<svg width="24" height="24" viewBox="0 0 24 24" fill="none" xmlns="http://www.w3.org/2000/svg">
<path d="M18.999 22H4.99902C3.89445 22 2.99902 21.1046 2.99902 20V6C2.99902 4.89543 3.89445 4 4.99902 4H6.59902C6.81994 4 6.99902 3.82091 6.99902 3.6V3C6.99902 2.44772 7.44674 2 7.99902 2V2C8.55131 2 8.99902 2.44772 8.99902 3V3.6C8.99902 3.82091 9.17811 4 9.39902 4H14.599C14.8199 4 14.999 3.82091 14.999 3.6V3C14.999 2.44772 15.4467 2 15.999 2V2C16.5513 2 16.999 2.44772 16.999 3V3.6C16.999 3.82091 17.1781 4 17.399 4H18.999C20.1036 4 20.999 4.89543 20.999 6V20C20.999 21.1046 20.1036 22 18.999 22ZM5.99902 10C5.44674 10 4.99902 10.4477 4.99902 11V19C4.99902 19.5523 5.44674 20 5.99902 20H17.999C18.5513 20 18.999 19.5523 18.999 19V11C18.999 10.4477 18.5513 10 17.999 10H5.99902ZM5.99902 6C5.44674 6 4.99902 6.44772 4.99902 7V7C4.99902 7.55228 5.44674 8 5.99902 8H17.999C18.5513 8 18.999 7.55228 18.999 7V7C18.999 6.44772 18.5513 6 17.999 6H5.99902Z" fill="#157EF8"/>
</svg>
