<svg width="24" height="24" viewBox="0 0 24 24" fill="none" xmlns="http://www.w3.org/2000/svg">
<path d="M12 22C6.47715 22 2 17.5228 2 12C2 6.47715 6.47715 2 12 2C17.5228 2 22 6.47715 22 12C21.9939 17.5203 17.5203 21.9939 12 22ZM12 4C7.58172 4 4 7.58172 4 12C4 16.4183 7.58172 20 12 20C16.4183 20 20 16.4183 20 12C19.995 7.58378 16.4162 4.00496 12 4ZM17 12C17 12.5523 16.5523 13 16 13H12C11.4477 13 11 12.5523 11 12V8C11 7.44772 11.4477 7 12 7V7C12.5523 7 13 7.44772 13 8V10.6C13 10.8209 13.1791 11 13.4 11H16C16.5523 11 17 11.4477 17 12V12Z" fill="#157EF8"/>
<rect x="14.5" y="0.5" width="9" height="9" rx="3.5" fill="#157EF8" stroke="white"/>
<path d="M21.088 5.044C21.088 5.39083 20.8068 5.672 20.46 5.672H19.904C19.7935 5.672 19.704 5.76154 19.704 5.872V6.42C19.704 6.78451 19.4085 7.08 19.044 7.08V7.08C18.6795 7.08 18.384 6.78451 18.384 6.42V5.872C18.384 5.76154 18.2945 5.672 18.184 5.672H17.628C17.2812 5.672 17 5.39083 17 5.044V5.044C17 4.69716 17.2812 4.416 17.628 4.416H18.184C18.2945 4.416 18.384 4.32646 18.384 4.216V3.66C18.384 3.29549 18.6795 3 19.044 3V3C19.4085 3 19.704 3.29549 19.704 3.66V4.216C19.704 4.32646 19.7935 4.416 19.904 4.416H20.46C20.8068 4.416 21.088 4.69716 21.088 5.044V5.044Z" fill="white"/>
</svg>
