<svg width="24" height="24" viewBox="0 0 24 24" fill="none" xmlns="http://www.w3.org/2000/svg">
<g clip-path="url(#clip0)">
<path d="M11.0745 16.2781C11.2578 16.0948 11.2578 15.7982 11.0745 15.6149C10.891 15.4321 10.5938 15.4321 10.4101 15.6149C10.2271 15.7982 10.2271 16.0948 10.4101 16.2781C10.5938 16.4608 10.891 16.4608 11.0745 16.2781Z" fill="#157EF8"/>
<path d="M11.0745 16.2781C11.2578 16.0948 11.2578 15.7982 11.0745 15.6149C10.891 15.4321 10.5938 15.4321 10.4101 15.6149C10.2271 15.7982 10.2271 16.0948 10.4101 16.2781C10.5938 16.4608 10.891 16.4608 11.0745 16.2781Z" stroke="#157EF8"/>
<path d="M14.0158 10.3098C11.1678 10.3098 8.85088 7.99713 8.85088 5.15479C8.85088 2.31244 11.1678 0 14.0158 0C16.8637 0 19.1806 2.31244 19.1806 5.15479C19.1806 7.99713 16.8637 10.3098 14.0158 10.3098ZM14.0158 9.37244C16.3459 9.37244 18.2417 7.48041 18.2417 5.15479C18.2417 2.82935 16.3459 0.937317 14.0158 0.937317C11.6856 0.937317 9.78985 2.82935 9.78985 5.15479C9.78985 7.48041 11.6856 9.37244 14.0158 9.37244ZM6.09354 23.8652C5.90916 24.0465 5.61286 24.0445 5.43087 23.8614L0.158851 18.5596C-0.023145 18.3765 -0.0227781 18.0811 0.159585 17.8986L2.39326 15.6627C2.73193 15.3247 3.2027 15.1899 3.64907 15.2743C4.70857 13.3202 6.68282 12.278 8.94383 12.278C9.75951 12.278 10.5501 12.4354 11.2951 12.7465H16.531C17.1074 12.7465 17.6409 13.0144 17.9908 13.4442L20.7615 10.602C21.4317 9.82636 22.6099 9.73133 23.3964 10.3929C24.1878 11.0607 24.2878 12.2457 23.6195 13.0349C21.7763 15.2336 20.7339 16.4777 20.1434 17.1826L20.1428 17.1833C19.3777 18.0965 19.3718 18.1036 19.3647 18.1089L19.3645 18.1091C19.3638 18.1096 19.3629 18.1103 19.3611 18.1121C18.5676 18.8828 17.5209 19.3072 16.4136 19.3072H10.1716C9.80464 19.3072 9.45753 19.4473 9.19389 19.7014L8.70423 20.1727C8.8743 20.6695 8.7567 21.241 8.36996 21.627L6.09354 23.8652ZM11.0107 13.6445C10.3582 13.3596 9.66283 13.2151 8.94365 13.2151C6.9371 13.2151 5.32391 14.1306 4.4642 15.7403L8.14264 19.4114L8.54168 19.027C8.98089 18.6035 9.5599 18.3701 10.1716 18.3701H16.4136C17.267 18.3701 18.0745 18.0458 18.6894 17.4566L22.9008 12.4318C23.2364 12.0353 23.1863 11.4428 22.7908 11.109C22.3956 10.7765 21.8015 10.8265 21.4669 11.2207C21.456 11.2337 21.2809 11.4133 20.3481 12.37L20.3471 12.3711L18.3926 14.376C18.4032 14.4569 18.4091 14.5386 18.4091 14.621C18.4091 15.6546 17.5666 16.4954 16.531 16.4954H12.7001C12.4408 16.4954 12.2306 16.2858 12.2306 16.0269C12.2306 15.7681 12.4408 15.5583 12.7001 15.5583H16.531C17.0489 15.5583 17.4701 15.1379 17.4701 14.621C17.4701 14.0982 17.0401 13.6838 16.531 13.6838H11.199C11.1342 13.6838 11.0702 13.6705 11.0107 13.6445ZM3.63916 16.259C3.45038 16.1426 3.21261 16.1704 3.05776 16.325L1.15433 18.2302L5.76789 22.8699L7.70857 20.9617C7.88359 20.7871 7.89368 20.4886 7.706 20.3013C6.01294 18.6139 5.03688 17.6378 4.46977 17.0706L4.46975 17.0706L4.4697 17.0706C3.7118 16.3126 3.68433 16.2852 3.65185 16.2664L3.64811 16.2642L3.63916 16.259ZM13.4523 2.3432V2.89234C12.9058 3.0857 12.5132 3.60663 12.5132 4.21765C12.5132 4.99274 13.145 5.62354 13.9218 5.62354C14.1807 5.62354 14.3913 5.83374 14.3913 6.09211C14.3913 6.35047 14.1807 6.56067 13.9218 6.56067C13.7213 6.56067 13.5046 6.43488 13.3122 6.20618C13.1452 6.00806 12.8491 5.98261 12.6506 6.14905C12.4521 6.31568 12.4264 6.61121 12.5934 6.80933C12.8443 7.10724 13.1395 7.31488 13.4523 7.41962V7.96656C13.4523 8.22547 13.6626 8.43512 13.9218 8.43512C14.1811 8.43512 14.3913 8.22547 14.3913 7.96656V7.41742C14.9378 7.22388 15.3305 6.70295 15.3305 6.09211C15.3305 5.31684 14.6986 4.68622 13.9218 4.68622C13.663 4.68622 13.4523 4.47602 13.4523 4.21765C13.4523 3.95929 13.663 3.7489 13.9218 3.7489C14.0882 3.7489 14.2638 3.83368 14.4296 3.9939C14.616 4.17389 14.9133 4.16895 15.0936 3.9831C15.2739 3.79706 15.269 3.50043 15.0828 3.32044C14.8445 3.09027 14.606 2.96009 14.3913 2.88904V2.3432C14.3913 2.08429 14.1811 1.87445 13.9218 1.87445C13.6626 1.87445 13.4523 2.08429 13.4523 2.3432Z" fill="#157EF8"/>
<path d="M14.0158 10.3098C11.1678 10.3098 8.85088 7.99713 8.85088 5.15479C8.85088 2.31244 11.1678 0 14.0158 0C16.8637 0 19.1806 2.31244 19.1806 5.15479C19.1806 7.99713 16.8637 10.3098 14.0158 10.3098ZM14.0158 9.37244C16.3459 9.37244 18.2417 7.48041 18.2417 5.15479C18.2417 2.82935 16.3459 0.937317 14.0158 0.937317C11.6856 0.937317 9.78985 2.82935 9.78985 5.15479C9.78985 7.48041 11.6856 9.37244 14.0158 9.37244ZM6.09354 23.8652C5.90916 24.0465 5.61286 24.0445 5.43087 23.8614L0.158851 18.5596C-0.023145 18.3765 -0.0227781 18.0811 0.159585 17.8986L2.39326 15.6627C2.73193 15.3247 3.2027 15.1899 3.64907 15.2743C4.70857 13.3202 6.68282 12.278 8.94383 12.278C9.75951 12.278 10.5501 12.4354 11.2951 12.7465H16.531C17.1074 12.7465 17.6409 13.0144 17.9908 13.4442L20.7615 10.602C21.4317 9.82636 22.6099 9.73133 23.3964 10.3929C24.1878 11.0607 24.2878 12.2457 23.6195 13.0349C21.7763 15.2336 20.7339 16.4777 20.1434 17.1826L20.1428 17.1833C19.3777 18.0965 19.3718 18.1036 19.3647 18.1089L19.3645 18.1091C19.3638 18.1096 19.3629 18.1103 19.3611 18.1121C18.5676 18.8828 17.5209 19.3072 16.4136 19.3072H10.1716C9.80464 19.3072 9.45753 19.4473 9.19389 19.7014L8.70423 20.1727C8.8743 20.6695 8.7567 21.241 8.36996 21.627L6.09354 23.8652ZM11.0107 13.6445C10.3582 13.3596 9.66283 13.2151 8.94365 13.2151C6.9371 13.2151 5.32391 14.1306 4.4642 15.7403L8.14264 19.4114L8.54168 19.027C8.98089 18.6035 9.5599 18.3701 10.1716 18.3701H16.4136C17.267 18.3701 18.0745 18.0458 18.6894 17.4566L22.9008 12.4318C23.2364 12.0353 23.1863 11.4428 22.7908 11.109C22.3956 10.7765 21.8015 10.8265 21.4669 11.2207C21.456 11.2337 21.2809 11.4133 20.3481 12.37L20.3471 12.3711L18.3926 14.376C18.4032 14.4569 18.4091 14.5386 18.4091 14.621C18.4091 15.6546 17.5666 16.4954 16.531 16.4954H12.7001C12.4408 16.4954 12.2306 16.2858 12.2306 16.0269C12.2306 15.7681 12.4408 15.5583 12.7001 15.5583H16.531C17.0489 15.5583 17.4701 15.1379 17.4701 14.621C17.4701 14.0982 17.0401 13.6838 16.531 13.6838H11.199C11.1342 13.6838 11.0702 13.6705 11.0107 13.6445ZM3.63916 16.259C3.45038 16.1426 3.21261 16.1704 3.05776 16.325L1.15433 18.2302L5.76789 22.8699L7.70857 20.9617C7.88359 20.7871 7.89368 20.4886 7.706 20.3013C6.01294 18.6139 5.03688 17.6378 4.46977 17.0706L4.46975 17.0706L4.4697 17.0706C3.7118 16.3126 3.68433 16.2852 3.65185 16.2664L3.64811 16.2642L3.63916 16.259ZM13.4523 2.3432V2.89234C12.9058 3.0857 12.5132 3.60663 12.5132 4.21765C12.5132 4.99274 13.145 5.62354 13.9218 5.62354C14.1807 5.62354 14.3913 5.83374 14.3913 6.09211C14.3913 6.35047 14.1807 6.56067 13.9218 6.56067C13.7213 6.56067 13.5046 6.43488 13.3122 6.20618C13.1452 6.00806 12.8491 5.98261 12.6506 6.14905C12.4521 6.31568 12.4264 6.61121 12.5934 6.80933C12.8443 7.10724 13.1395 7.31488 13.4523 7.41962V7.96656C13.4523 8.22547 13.6626 8.43512 13.9218 8.43512C14.1811 8.43512 14.3913 8.22547 14.3913 7.96656V7.41742C14.9378 7.22388 15.3305 6.70295 15.3305 6.09211C15.3305 5.31684 14.6986 4.68622 13.9218 4.68622C13.663 4.68622 13.4523 4.47602 13.4523 4.21765C13.4523 3.95929 13.663 3.7489 13.9218 3.7489C14.0882 3.7489 14.2638 3.83368 14.4296 3.9939C14.616 4.17389 14.9133 4.16895 15.0936 3.9831C15.2739 3.79706 15.269 3.50043 15.0828 3.32044C14.8445 3.09027 14.606 2.96009 14.3913 2.88904V2.3432C14.3913 2.08429 14.1811 1.87445 13.9218 1.87445C13.6626 1.87445 13.4523 2.08429 13.4523 2.3432Z" stroke="#157EF8"/>
</g>
<defs>
<clipPath id="clip0">
<rect width="24" height="24" fill="white"/>
</clipPath>
</defs>
</svg>
