<svg width="24" height="24" viewBox="0 0 24 24" fill="none" xmlns="http://www.w3.org/2000/svg">
<g clip-path="url(#clip0)">
<path d="M24.0214 14.0775L24.0214 14.0776C24.1812 14.3506 24.0895 14.7015 23.8165 14.8613L23.8166 14.8612L23.7659 14.7751L23.8164 14.8613L24.0214 14.0775ZM24.0214 14.0775C23.9575 13.9684 23.8593 13.8834 23.742 13.8359C23.742 13.8359 23.742 13.8359 23.7419 13.8359L22.2077 13.2078M24.0214 14.0775L22.2077 13.2078M1.85529 8.00731L0.28872 7.35879C0.154313 7.30811 0.0437757 7.20874 -0.0208364 7.08038C-0.020839 7.08038 -0.0208414 7.08037 -0.0208441 7.08037L0.0684792 7.03541C-0.0489714 6.80216 0.0448945 6.51784 0.278141 6.40039L1.85529 8.00731ZM1.85529 8.00731L0.22944 8.91387L0.228888 8.91418C-0.0464586 9.07001 -0.143339 9.4196 0.012482 9.69493L0.0124884 9.69494C0.074423 9.80435 0.170534 9.8903 0.286185 9.93964L0.287179 9.94005L1.85583 10.5894L0.243202 11.4934C-0.0443159 11.6192 -0.177298 11.9535 -0.0540164 12.2427L1.85529 8.00731ZM22.2077 13.2078L23.8164 12.2605L22.2077 13.2078ZM1.8553 13.2047L0.238703 14.1109L0.238346 14.1111C-0.037001 14.2669 -0.133881 14.6165 0.0219395 14.8918L0.0219459 14.8919C0.0838804 15.0013 0.179991 15.0872 0.295645 15.1365L0.295803 15.1366L6.4001 17.7285C6.42436 17.7453 6.44989 17.7603 6.47642 17.7732L6.47636 17.7733L6.48104 17.7753L9.8242 19.1939L9.82428 19.1939L15.9716 21.8089L15.9717 21.8089C16.1392 21.88 16.3306 21.8673 16.4873 21.7745L23.8164 17.4621L1.8553 13.2047ZM1.8553 13.2047L0.290591 12.5612C0.135599 12.5091 0.010154 12.3933 -0.0540152 12.2427L1.8553 13.2047ZM24.0214 16.6784L24.0214 16.6784C24.1812 16.9514 24.0895 17.3022 23.8166 17.462L24.0214 16.6784ZM24.0214 16.6784C23.9575 16.5692 23.8593 16.4842 23.742 16.4367M24.0214 16.6784L23.742 16.4367M23.742 16.4367C23.742 16.4367 23.742 16.4367 23.7419 16.4367L23.742 16.4367ZM22.2389 17.0499L20.9643 16.5088L16.4825 19.1454C16.4825 19.1454 16.4825 19.1454 16.4825 19.1454L16.4823 19.1455L16.4316 19.0593L22.2389 17.0499ZM22.2389 17.0499L16.15 20.6311L10.6206 18.2838V16.9306L15.9669 19.1798L22.2389 17.0499ZM22.2077 15.8087L22.0914 15.7611L21.9832 15.8248L22.0994 15.8724L22.2077 15.8087ZM7.51617 2.21811L0.231044 6.31215L23.8166 12.2604C24.0895 12.1005 24.1812 11.7497 24.0214 11.4767L24.0214 11.4767C23.9575 11.3676 23.8593 11.2826 23.742 11.2351C23.742 11.2351 23.742 11.2351 23.7419 11.2351L22.2077 10.607L23.8166 9.65956L23.8175 9.65907C24.0058 9.54572 24.1127 9.33459 24.0925 9.11568C24.0757 8.89957 23.9382 8.71134 23.7374 8.62959L16.9625 5.8544L16.9613 5.85389L13.624 4.43577L13.624 4.43574L13.6217 4.43482C13.5622 4.41126 13.4992 4.39795 13.4355 4.39522L8.01491 2.18929C8.01481 2.18925 8.01471 2.1892 8.01461 2.18916C7.85289 2.12212 7.66942 2.13277 7.51651 2.21792L7.51617 2.21811ZM16.1902 14.0476H16.1904C16.2933 14.0476 16.3942 14.0198 16.4826 13.9674C16.4826 13.9674 16.4826 13.9673 16.4826 13.9673L20.965 11.3304L22.2362 11.85L16.15 15.4341L10.6206 13.0869V11.7296L15.9668 14.0017C15.9669 14.0017 15.9669 14.0017 15.9669 14.0018C16.0375 14.0318 16.1135 14.0474 16.1902 14.0476ZM9.7274 10.3888L9.72696 10.3891L9.57488 10.8644H9.47488V10.8646V17.8065L7.26795 16.8699V9.75938L13.445 5.64291L15.5523 6.49781L9.7274 10.3888ZM15.9716 16.6026L15.9717 16.6026C16.1392 16.6737 16.3306 16.661 16.4873 16.5682L20.9697 13.9312L22.2363 14.4506L16.15 18.0302L10.6206 15.683V14.3304L15.9716 16.6026ZM22.2547 9.24439L16.1501 12.8286L11.2455 10.7454L16.8165 7.02382L22.2547 9.24439ZM6.12199 15.0209L6.11792 16.3738L1.80506 14.5405L3.17823 13.7703L6.12199 15.0209ZM6.11792 13.7729L1.80399 11.9392L3.17849 11.1602L6.12199 12.4106L6.11792 13.7729ZM6.12199 9.82395L6.11792 11.1723L1.80525 9.34344L3.17823 8.57343L6.12199 9.82395ZM7.83681 3.35251L12.1529 5.12125L6.64193 8.79827L1.80486 6.74263L7.83681 3.35251Z" fill="#157EF8" stroke="#157EF8" stroke-width="0.2" stroke-linecap="round" stroke-linejoin="bevel"/>
</g>
<defs>
<clipPath id="clip0">
<rect width="24" height="24" fill="white"/>
</clipPath>
</defs>
</svg>
