<svg width="120" height="120" viewBox="0 0 120 120" fill="none" xmlns="http://www.w3.org/2000/svg">
<rect width="120" height="120" rx="40" fill="#D0FBDE"/>
<circle cx="60" cy="60" r="19.25" stroke="#262626" stroke-width="3.5"/>
<path d="M66.0936 52.257C65.397 52.257 64.8324 52.8216 64.8324 53.5182C64.8324 54.2147 65.397 54.7793 66.0936 54.7793H66.6872C67.3432 54.7793 67.875 55.3111 67.875 55.9672C67.875 56.6232 67.3432 57.155 66.6872 57.155H66.2032C65.3668 57.155 64.6866 57.7855 64.4062 58.5735C64.0241 59.6477 63.3806 60.5045 62.4759 61.1439C61.5149 61.8338 60.1619 62.2591 58.417 62.4198C57.4821 62.5059 56.7188 63.2541 56.7188 64.193V64.3408C56.7188 66.3743 57.5739 67.3911 59.2841 67.3911C60.1193 67.3911 60.7358 67.1369 61.1335 66.6285C61.278 66.4526 61.3975 66.2463 61.492 66.0095C61.8401 65.1375 62.5211 64.3408 63.4599 64.3408H63.8963C64.8626 64.3408 65.6598 65.1544 65.4358 66.0943C65.1684 67.2168 64.6789 68.1476 63.9673 68.8869C62.9134 69.9623 61.4119 70.5 59.4631 70.5C57.2955 70.5 55.6349 69.9427 54.4815 68.8282C53.348 67.6941 52.7812 66.0028 52.7812 63.7542V61.4947C52.7812 60.5558 53.5424 59.7974 54.4812 59.7808C55.8177 59.757 56.8718 59.703 57.6435 59.6187C58.7173 59.4818 59.483 59.2277 59.9403 58.8561C60.757 58.2204 59.9001 57.155 58.8651 57.155H53.3128C52.6568 57.155 52.125 56.6232 52.125 55.9672C52.125 55.3111 52.6568 54.7793 53.3128 54.7793H59.6337C60.3302 54.7793 60.8949 54.2147 60.8949 53.5182C60.8949 52.8216 60.3302 52.257 59.6337 52.257H53.5035C52.7422 52.257 52.125 51.6398 52.125 50.8785C52.125 50.1172 52.7422 49.5 53.5035 49.5H66.4965C67.2578 49.5 67.875 50.1172 67.875 50.8785C67.875 51.6398 67.2578 52.257 66.4965 52.257H66.0936Z" fill="#262626"/>
</svg>
