<svg width="120" height="120" viewBox="0 0 120 120" fill="none" xmlns="http://www.w3.org/2000/svg">
<rect width="120" height="120" rx="40" fill="#F0FBD0"/>
<g clip-path="url(#clip0)">
<path d="M67.6667 75.625V72.0417C67.6667 70.1409 66.9116 68.3181 65.5676 66.9741C64.2236 65.6301 62.4007 64.875 60.5 64.875H47.9584C46.0576 64.875 44.2348 65.6301 42.8908 66.9741C41.5467 68.3181 40.7917 70.1409 40.7917 72.0417V75.625" stroke="#262626" stroke-width="4" stroke-linecap="round" stroke-linejoin="round"/>
<path d="M54.2292 57.7083C58.1872 57.7083 61.3958 54.4997 61.3958 50.5417C61.3958 46.5836 58.1872 43.375 54.2292 43.375C50.2711 43.375 47.0625 46.5836 47.0625 50.5417C47.0625 54.4997 50.2711 57.7083 54.2292 57.7083Z" stroke="#262626" stroke-width="4" stroke-linecap="round" stroke-linejoin="round"/>
<path fill-rule="evenodd" clip-rule="evenodd" d="M74.8334 50.5416C75.8229 50.5416 76.625 51.3438 76.625 52.3333V54.5166C76.625 55.2898 77.2518 55.9166 78.025 55.9166H80.2084C81.1979 55.9166 82 56.7188 82 57.7083C82 58.6978 81.1979 59.5 80.2084 59.5H78.025C77.2518 59.5 76.625 60.1268 76.625 60.9V63.0833C76.625 64.0728 75.8229 64.875 74.8334 64.875C73.8438 64.875 73.0417 64.0728 73.0417 63.0833V60.9C73.0417 60.1268 72.4149 59.5 71.6417 59.5H69.4584C68.4688 59.5 67.6667 58.6978 67.6667 57.7083C67.6667 56.7188 68.4688 55.9166 69.4584 55.9166H71.6417C72.4149 55.9166 73.0417 55.2898 73.0417 54.5166V52.3333C73.0417 51.3438 73.8438 50.5416 74.8334 50.5416Z" fill="#262626"/>
</g>
<defs>
<clipPath id="clip0">
<rect width="43" height="43" fill="white" transform="translate(39 38)"/>
</clipPath>
</defs>
</svg>
