<svg width="120" height="120" viewBox="0 0 120 120" fill="none" xmlns="http://www.w3.org/2000/svg">
<rect width="120" height="120" rx="40" fill="#D2EFF3"/>
<path d="M76.1566 64.7341L76.1564 64.7294L76.1565 57.3261C76.1565 57.2703 76.1335 57.2184 76.0942 57.1824C75.3087 56.4645 74.4487 55.8369 73.5296 55.3107C73.4099 55.2422 73.2531 55.3263 73.2531 55.4798V60.7449C73.2531 61.1289 72.8974 61.414 72.5226 61.3305L71.2084 61.0378C70.934 60.9766 70.7389 60.7332 70.7389 60.4521V54.1159C70.7389 54.0327 70.688 53.96 70.6132 53.9322C70.0398 53.719 69.4568 53.5334 68.8663 53.376C68.4675 53.2721 68.0748 53.1814 67.6881 53.0993C67.5677 53.0738 67.4523 53.166 67.4523 53.293V59.5068C67.4523 59.8908 67.0966 60.1759 66.7218 60.0924L65.4076 59.7996C65.1332 59.7385 64.9381 59.4951 64.9381 59.214V52.8488C64.9381 52.7475 64.863 52.6639 64.7651 52.6526C63.9205 52.5555 63.0723 52.4928 62.2228 52.4647C62.1136 52.4611 62.0214 52.5494 62.0214 52.6621V58.3782C62.0214 58.7613 61.6673 59.0462 61.2931 58.9643L59.4503 58.5608C59.175 58.5005 58.9787 58.2566 58.9787 57.9747V42.426C58.9345 41.9874 58.7262 41.5836 58.3979 41.2984C58.0675 41.0112 57.6413 40.8663 57.2091 40.8933L57.1966 40.894L57.1842 40.8933C56.752 40.8663 56.3258 41.0112 55.9954 41.2984C55.6671 41.5836 55.4588 41.9874 55.4146 42.426V62.3175C55.4146 62.5432 55.288 62.7498 55.0869 62.8522L53.2441 63.7906C52.8449 63.9939 52.3718 63.7039 52.3718 63.2559V59.7645L48.4661 55.7866C48.4659 55.7864 48.4657 55.7862 48.4655 55.786C48.0677 55.3872 47.5325 55.1643 46.9758 55.1643C46.4189 55.1643 45.8837 55.3873 45.4857 55.7864L76.1566 64.7341ZM76.1566 64.7341C76.2397 68.258 75.0358 71.6872 72.7793 74.3576M76.1566 64.7341L72.7793 74.3576M72.7793 74.3576C72.4559 74.6319 72.2471 75.0201 72.1939 75.4439L72.1924 75.4563V75.4688V77.9757C72.1924 78.0862 72.1028 78.1757 71.9924 78.1757H57.1209C57.0105 78.1757 56.9209 78.0862 56.9209 77.9757V76.3842L72.7793 74.3576ZM78.8046 55.6195L78.8047 55.6195L78.8005 55.6151C76.3099 53 73.1191 51.1877 69.6246 50.4041C67.2004 49.7839 64.7177 49.4333 62.2201 49.3585C62.1087 49.3552 62.0214 49.2646 62.0214 49.1562V42.4163H62.0215L62.0213 42.4094C61.9782 41.1487 61.4466 39.956 60.5417 39.0923C59.6381 38.2299 58.4358 37.7657 57.1966 37.802C55.9575 37.7657 54.7551 38.2299 53.8516 39.0923C52.9467 39.956 52.4151 41.1487 52.372 42.4094L52.3718 42.4094V42.4163V55.3893L50.5995 53.6068L50.599 53.6063C49.6306 52.6388 48.3274 52.0961 46.9692 52.0961C45.6114 52.0961 44.3084 52.6386 43.34 53.6057C42.8546 54.0835 42.4684 54.6555 42.2041 55.2876C41.9399 55.9194 41.8028 56.5986 41.8009 57.2851C41.7762 58.6153 42.2688 59.9021 43.1722 60.8648L49.2909 68.2466C49.5952 70.1484 50.2405 71.9773 51.1948 73.6419C51.8862 74.9105 52.7695 76.0603 53.8121 77.049V79.5454C53.8077 79.9635 53.9606 80.3681 54.2405 80.676C54.5207 80.9842 54.907 81.172 55.3202 81.1996L55.3202 81.2H55.3335H73.7138V81.2004L73.7271 81.1996C74.1403 81.172 74.5266 80.9842 74.8068 80.676C75.0867 80.3681 75.2396 79.9635 75.2351 79.5453V75.9845C77.8324 72.8081 79.2376 68.795 79.1992 64.6611V56.5874H79.1995L79.199 56.5768C79.18 56.2214 79.041 55.8832 78.8046 55.6195ZM52.3484 67.5114C52.3307 67.1805 52.2088 66.8637 52 66.6081L51.999 66.6069L45.4978 58.7744L45.4921 58.7675L45.4857 58.7611C45.2927 58.567 45.1392 58.3357 45.0343 58.0803C44.9295 57.8249 44.8755 57.5508 44.8755 57.2738C44.8755 56.9967 44.9295 56.7226 45.0343 56.4672C45.1391 56.2119 45.2926 55.9806 45.4856 55.7866L52.3484 67.5114Z" fill="#262626" stroke="#262626" stroke-width="0.4"/>
</svg>
