<svg width="120" height="120" viewBox="0 0 120 120" fill="none" xmlns="http://www.w3.org/2000/svg">
<rect width="120" height="120" rx="40" fill="#E0DDFF"/>
<path fill-rule="evenodd" clip-rule="evenodd" d="M52.4375 43.375C51.7248 43.375 51.0412 43.6581 50.5372 44.1621C50.0332 44.6661 49.75 45.3497 49.75 46.0625C49.75 46.7752 50.0332 47.4588 50.5372 47.9628C51.0412 48.4668 51.7248 48.75 52.4375 48.75H56.6357C57.3366 48.75 57.8194 48.0468 57.5079 47.4189C57.4266 47.2549 57.3408 47.0901 57.2504 46.9259C56.1235 44.877 54.5766 43.375 52.4375 43.375ZM46.1667 46.0625C46.1667 47.001 46.3771 47.9179 46.7718 48.75H42.5834C41.5938 48.75 40.7917 49.5521 40.7917 50.5416V59.5C40.7917 60.4895 41.5938 61.2916 42.5834 61.2916H44.375V77.4166C44.375 78.4061 45.1772 79.2083 46.1667 79.2083H60.5H74.8334C75.8229 79.2083 76.625 78.4061 76.625 77.4166V61.2916H78.4167C79.4062 61.2916 80.2083 60.4895 80.2083 59.5V50.5416C80.2083 49.5521 79.4062 48.75 78.4167 48.75H74.2283C74.623 47.9179 74.8334 47.001 74.8334 46.0625C74.8334 44.3993 74.1727 42.8043 72.9967 41.6283C71.8207 40.4523 70.2257 39.7916 68.5625 39.7916C64.4308 39.7916 61.9465 42.7688 60.6098 45.199C60.5726 45.2668 60.536 45.3345 60.5 45.4021C60.4641 45.3345 60.4275 45.2668 60.3902 45.199C59.0536 42.7688 56.5693 39.7916 52.4375 39.7916C50.7744 39.7916 49.1794 40.4523 48.0034 41.6283C46.8274 42.8043 46.1667 44.3993 46.1667 46.0625ZM64.3644 48.75H68.5625C69.2753 48.75 69.9589 48.4668 70.4629 47.9628C70.9669 47.4588 71.25 46.7752 71.25 46.0625C71.25 45.3497 70.9669 44.6661 70.4629 44.1621C69.9589 43.6581 69.2753 43.375 68.5625 43.375C66.4235 43.375 64.8765 44.877 63.7496 46.9259C63.6593 47.0901 63.5735 47.2549 63.4921 47.4189C63.1807 48.0468 63.6635 48.75 64.3644 48.75ZM62.2917 52.3333V57.7083H74.8334H75.625C76.1773 57.7083 76.625 57.2606 76.625 56.7083V53.3333C76.625 52.781 76.1773 52.3333 75.625 52.3333H68.5625H62.2917ZM52.4375 52.3333H58.7084V57.7083H46.1667H45.375C44.8227 57.7083 44.375 57.2606 44.375 56.7083V53.3333C44.375 52.781 44.8227 52.3333 45.375 52.3333H52.4375ZM62.2917 75.625H72.0417C72.594 75.625 73.0417 75.1772 73.0417 74.625V61.2916H62.2917V75.625ZM58.7084 61.2916V75.625H48.9584C48.4061 75.625 47.9584 75.1772 47.9584 74.625V61.2916H58.7084Z" fill="#262626"/>
</svg>
