<svg width="120" height="120" viewBox="0 0 120 120" fill="none" xmlns="http://www.w3.org/2000/svg">
<rect width="120" height="120" rx="40" fill="#DFEEFF"/>
<mask id="path-2-outside-1" maskUnits="userSpaceOnUse" x="41" y="40.8633" width="39" height="37" fill="black">
<rect fill="white" x="41" y="40.8633" width="39" height="37"/>
<path d="M75.8989 43.1541C74.1206 42.3218 71.8085 41.8633 69.3887 41.8633C66.9689 41.8633 64.6568 42.3218 62.8785 43.1541C62.7487 43.2149 62.6227 43.2773 62.5006 43.3413C61.3461 43.9463 59.6538 43.9463 58.4994 43.3413C58.3773 43.2773 58.2513 43.2149 58.1215 43.1542C56.3432 42.3218 54.0311 41.8633 51.6113 41.8633C49.1915 41.8633 46.8794 42.3218 45.1011 43.1541C43.1013 44.0902 42 45.4214 42 46.9023V67.0586C42 68.5396 43.1013 69.8707 45.1011 70.8068C46.7533 71.5801 48.8663 72.0302 51.0982 72.0902C51.1023 72.0903 51.1055 72.0936 51.1055 72.0977C51.1055 74.9704 55.1442 77.1367 60.5 77.1367C65.8558 77.1367 69.8945 74.9704 69.8945 72.0977C69.8945 72.0936 69.8977 72.0903 69.9018 72.0902C72.1337 72.0302 74.2467 71.5801 75.8989 70.8068C77.8987 69.8707 79 68.5396 79 67.0586V46.9023C79 45.4214 77.8987 44.0902 75.8989 43.1541ZM77.5547 62.0195C77.5547 62.7365 76.7133 63.5757 75.3589 64.2097C74.396 64.6604 73.2163 64.9942 71.9447 65.1871C70.8299 65.3562 69.8945 64.4386 69.8945 63.311V62.0195C69.8945 62.0155 69.8976 62.0122 69.9016 62.0121C72.1336 61.9521 74.2466 61.5021 75.8989 60.7287C76.6009 60.4001 77.5547 60.8798 77.5547 61.6549L77.5547 62.0195ZM59.7773 51.9414C59.7773 52.6584 58.936 53.4976 57.5816 54.1316C55.9941 54.8746 53.818 55.3008 51.6113 55.3008C49.4046 55.3008 47.2286 54.8746 45.6411 54.1316C44.2867 53.4976 43.4453 52.6584 43.4453 51.9414V51.5768C43.4453 50.8017 44.3991 50.322 45.1011 50.6506C46.8794 51.4829 49.1915 51.9414 51.6113 51.9414C54.0311 51.9414 56.3432 51.4829 58.1215 50.6506C58.8235 50.322 59.7773 50.8017 59.7773 51.5768V51.9414ZM45.1011 55.6896C46.8794 56.522 49.1915 56.9805 51.6113 56.9805C54.0311 56.9805 56.3432 56.522 58.1215 55.6896C58.227 55.6402 58.33 55.5898 58.4305 55.5382C58.9987 55.2465 59.7773 55.6331 59.7773 56.2718C59.7773 56.6759 59.4579 57.0062 59.0551 57.0381C57.449 57.1653 55.927 57.5024 54.6648 58.019C53.6856 58.4198 52.8913 58.9106 52.3031 59.4727C51.7988 59.9545 51.1682 60.3479 50.4723 60.302C48.6697 60.1828 46.9541 59.7852 45.6411 59.1706C44.2867 58.5366 43.4453 57.6974 43.4453 56.9805V56.6159C43.4453 55.8407 44.3991 55.361 45.1011 55.6896ZM43.4453 61.6549C43.4453 60.8798 44.3991 60.4001 45.1011 60.7287C46.7534 61.502 48.8664 61.952 51.0985 62.0121C51.1025 62.0122 51.1055 62.0155 51.1055 62.0195V63.311C51.1055 64.4386 50.1702 65.3562 49.0554 65.1871C47.7837 64.9942 46.6041 64.6604 45.6412 64.2097C44.2867 63.5757 43.4453 62.7365 43.4453 62.0195V61.6549ZM52.6272 61.6069C53.1628 60.1584 56.254 58.6602 60.5 58.6602C64.746 58.6602 67.8372 60.1584 68.3722 61.6052C68.4241 61.7464 68.4492 61.8819 68.4492 62.0195C68.4492 62.7579 67.6659 63.5781 66.3539 64.2135C64.8019 64.965 62.723 65.3789 60.5 65.3789C58.277 65.3789 56.1981 64.965 54.6461 64.2135C53.3341 63.5781 52.5508 62.7579 52.5508 62.0195C52.5508 61.8819 52.576 61.7464 52.6272 61.6069ZM77.5547 56.9805C77.5547 57.6974 76.7133 58.5366 75.3589 59.1706C74.046 59.7852 72.3305 60.1828 70.528 60.3019C69.8321 60.3479 69.2014 59.9544 68.697 59.4726C68.1089 58.9107 67.3145 58.4198 66.3352 58.019C65.073 57.5023 63.551 57.1653 61.9449 57.0381C61.5421 57.0062 61.2227 56.6759 61.2227 56.2718C61.2227 55.6331 62.0013 55.2465 62.5695 55.5382C62.67 55.5898 62.773 55.6402 62.8785 55.6896C64.6568 56.522 66.9689 56.9805 69.3887 56.9805C71.8085 56.9805 74.1206 56.522 75.8989 55.6896C76.6009 55.361 77.5547 55.8407 77.5547 56.6159V56.9805ZM77.5547 51.9414C77.5547 52.6584 76.7133 53.4976 75.3589 54.1316C73.7714 54.8746 71.5954 55.3008 69.3887 55.3008C67.182 55.3008 65.0059 54.8746 63.4184 54.1316C62.064 53.4976 61.2227 52.6584 61.2227 51.9414V51.5768C61.2227 50.8017 62.1765 50.322 62.8785 50.6506C64.6568 51.4829 66.9689 51.9414 69.3887 51.9414C71.8085 51.9414 74.1206 51.4829 75.8989 50.6506C76.6009 50.322 77.5547 50.8017 77.5547 51.5768V51.9414ZM63.4184 44.7122C65.0059 43.9691 67.182 43.543 69.3887 43.543C71.5954 43.543 73.7714 43.9691 75.3589 44.7122C76.7133 45.3462 77.5547 46.1854 77.5547 46.9023C77.5547 47.6193 76.7133 48.4585 75.3589 49.0925C73.7714 49.8356 71.5954 50.2617 69.3887 50.2617C67.182 50.2617 65.0059 49.8356 63.4184 49.0925C62.064 48.4585 61.2227 47.6193 61.2227 46.9023C61.2227 46.1854 62.064 45.3462 63.4184 44.7122ZM45.6411 44.7122C47.2286 43.9691 49.4046 43.543 51.6113 43.543C53.818 43.543 55.9941 43.9691 57.5816 44.7122C58.936 45.3462 59.7773 46.1854 59.7773 46.9023C59.7773 47.6193 58.936 48.4585 57.5816 49.0925C55.9941 49.8356 53.818 50.2617 51.6113 50.2617C49.4046 50.2617 47.2286 49.8356 45.6411 49.0925C44.2867 48.4585 43.4453 47.6193 43.4453 46.9023C43.4453 46.1854 44.2867 45.3462 45.6411 44.7122ZM45.6411 69.2487C44.2867 68.6147 43.4453 67.7756 43.4453 67.0586V66.694C43.4453 65.9189 44.3991 65.4392 45.1011 65.7678C46.3469 66.3508 47.8546 66.7501 49.4777 66.937C50.3801 67.041 51.1055 67.7752 51.1055 68.6836C51.1055 69.6286 50.3224 70.3955 49.3854 70.2728C47.9882 70.0898 46.6869 69.7383 45.6411 69.2487ZM66.3539 74.2916C64.8019 75.0432 62.723 75.457 60.5 75.457C58.277 75.457 56.1981 75.0432 54.6461 74.2916C53.3341 73.6562 52.5508 72.836 52.5508 72.0977V70.5095C52.5508 70.2396 52.8719 70.0862 53.096 70.2368C54.2182 70.9915 55.7451 71.5497 57.5117 71.8511C57.5473 71.8571 57.5826 71.8601 57.6175 71.8601C57.9702 71.8601 58.2788 71.5597 58.3316 71.1421C58.3896 70.6832 58.1164 70.2566 57.7216 70.1892C54.3631 69.6162 52.5508 68.1486 52.5508 67.0586C52.5508 66.1609 53.6699 65.5964 54.4934 65.9537C56.0992 66.6505 58.1755 67.0586 60.5 67.0586C62.8245 67.0586 64.9008 66.6505 66.5066 65.9537C67.3301 65.5964 68.4492 66.1609 68.4492 67.0586C68.4492 68.1486 66.6369 69.6162 63.2784 70.1892C62.8835 70.2566 62.6104 70.6832 62.6684 71.1421C62.7212 71.5597 63.0298 71.8601 63.3825 71.8601C63.4174 71.8601 63.4528 71.8571 63.4883 71.8511C65.2549 71.5497 66.7818 70.9916 67.904 70.2368C68.128 70.0862 68.4492 70.2396 68.4492 70.5095V72.0977C68.4492 72.836 67.6659 73.6562 66.3539 74.2916ZM75.3589 69.2487C74.3131 69.7382 73.0118 70.0898 71.6145 70.2728C70.6775 70.3955 69.8945 69.6285 69.8945 68.6836C69.8945 67.7752 70.6199 67.0409 71.5223 66.937C73.1454 66.75 74.6532 66.3508 75.8989 65.7677C76.6009 65.4391 77.5547 65.9188 77.5547 66.6939V67.0586C77.5547 67.7756 76.7133 68.6147 75.3589 69.2487Z"/>
</mask>
<path d="M75.8989 43.1541C74.1206 42.3218 71.8085 41.8633 69.3887 41.8633C66.9689 41.8633 64.6568 42.3218 62.8785 43.1541C62.7487 43.2149 62.6227 43.2773 62.5006 43.3413C61.3461 43.9463 59.6538 43.9463 58.4994 43.3413C58.3773 43.2773 58.2513 43.2149 58.1215 43.1542C56.3432 42.3218 54.0311 41.8633 51.6113 41.8633C49.1915 41.8633 46.8794 42.3218 45.1011 43.1541C43.1013 44.0902 42 45.4214 42 46.9023V67.0586C42 68.5396 43.1013 69.8707 45.1011 70.8068C46.7533 71.5801 48.8663 72.0302 51.0982 72.0902C51.1023 72.0903 51.1055 72.0936 51.1055 72.0977C51.1055 74.9704 55.1442 77.1367 60.5 77.1367C65.8558 77.1367 69.8945 74.9704 69.8945 72.0977C69.8945 72.0936 69.8977 72.0903 69.9018 72.0902C72.1337 72.0302 74.2467 71.5801 75.8989 70.8068C77.8987 69.8707 79 68.5396 79 67.0586V46.9023C79 45.4214 77.8987 44.0902 75.8989 43.1541ZM77.5547 62.0195C77.5547 62.7365 76.7133 63.5757 75.3589 64.2097C74.396 64.6604 73.2163 64.9942 71.9447 65.1871C70.8299 65.3562 69.8945 64.4386 69.8945 63.311V62.0195C69.8945 62.0155 69.8976 62.0122 69.9016 62.0121C72.1336 61.9521 74.2466 61.5021 75.8989 60.7287C76.6009 60.4001 77.5547 60.8798 77.5547 61.6549L77.5547 62.0195ZM59.7773 51.9414C59.7773 52.6584 58.936 53.4976 57.5816 54.1316C55.9941 54.8746 53.818 55.3008 51.6113 55.3008C49.4046 55.3008 47.2286 54.8746 45.6411 54.1316C44.2867 53.4976 43.4453 52.6584 43.4453 51.9414V51.5768C43.4453 50.8017 44.3991 50.322 45.1011 50.6506C46.8794 51.4829 49.1915 51.9414 51.6113 51.9414C54.0311 51.9414 56.3432 51.4829 58.1215 50.6506C58.8235 50.322 59.7773 50.8017 59.7773 51.5768V51.9414ZM45.1011 55.6896C46.8794 56.522 49.1915 56.9805 51.6113 56.9805C54.0311 56.9805 56.3432 56.522 58.1215 55.6896C58.227 55.6402 58.33 55.5898 58.4305 55.5382C58.9987 55.2465 59.7773 55.6331 59.7773 56.2718C59.7773 56.6759 59.4579 57.0062 59.0551 57.0381C57.449 57.1653 55.927 57.5024 54.6648 58.019C53.6856 58.4198 52.8913 58.9106 52.3031 59.4727C51.7988 59.9545 51.1682 60.3479 50.4723 60.302C48.6697 60.1828 46.9541 59.7852 45.6411 59.1706C44.2867 58.5366 43.4453 57.6974 43.4453 56.9805V56.6159C43.4453 55.8407 44.3991 55.361 45.1011 55.6896ZM43.4453 61.6549C43.4453 60.8798 44.3991 60.4001 45.1011 60.7287C46.7534 61.502 48.8664 61.952 51.0985 62.0121C51.1025 62.0122 51.1055 62.0155 51.1055 62.0195V63.311C51.1055 64.4386 50.1702 65.3562 49.0554 65.1871C47.7837 64.9942 46.6041 64.6604 45.6412 64.2097C44.2867 63.5757 43.4453 62.7365 43.4453 62.0195V61.6549ZM52.6272 61.6069C53.1628 60.1584 56.254 58.6602 60.5 58.6602C64.746 58.6602 67.8372 60.1584 68.3722 61.6052C68.4241 61.7464 68.4492 61.8819 68.4492 62.0195C68.4492 62.7579 67.6659 63.5781 66.3539 64.2135C64.8019 64.965 62.723 65.3789 60.5 65.3789C58.277 65.3789 56.1981 64.965 54.6461 64.2135C53.3341 63.5781 52.5508 62.7579 52.5508 62.0195C52.5508 61.8819 52.576 61.7464 52.6272 61.6069ZM77.5547 56.9805C77.5547 57.6974 76.7133 58.5366 75.3589 59.1706C74.046 59.7852 72.3305 60.1828 70.528 60.3019C69.8321 60.3479 69.2014 59.9544 68.697 59.4726C68.1089 58.9107 67.3145 58.4198 66.3352 58.019C65.073 57.5023 63.551 57.1653 61.9449 57.0381C61.5421 57.0062 61.2227 56.6759 61.2227 56.2718C61.2227 55.6331 62.0013 55.2465 62.5695 55.5382C62.67 55.5898 62.773 55.6402 62.8785 55.6896C64.6568 56.522 66.9689 56.9805 69.3887 56.9805C71.8085 56.9805 74.1206 56.522 75.8989 55.6896C76.6009 55.361 77.5547 55.8407 77.5547 56.6159V56.9805ZM77.5547 51.9414C77.5547 52.6584 76.7133 53.4976 75.3589 54.1316C73.7714 54.8746 71.5954 55.3008 69.3887 55.3008C67.182 55.3008 65.0059 54.8746 63.4184 54.1316C62.064 53.4976 61.2227 52.6584 61.2227 51.9414V51.5768C61.2227 50.8017 62.1765 50.322 62.8785 50.6506C64.6568 51.4829 66.9689 51.9414 69.3887 51.9414C71.8085 51.9414 74.1206 51.4829 75.8989 50.6506C76.6009 50.322 77.5547 50.8017 77.5547 51.5768V51.9414ZM63.4184 44.7122C65.0059 43.9691 67.182 43.543 69.3887 43.543C71.5954 43.543 73.7714 43.9691 75.3589 44.7122C76.7133 45.3462 77.5547 46.1854 77.5547 46.9023C77.5547 47.6193 76.7133 48.4585 75.3589 49.0925C73.7714 49.8356 71.5954 50.2617 69.3887 50.2617C67.182 50.2617 65.0059 49.8356 63.4184 49.0925C62.064 48.4585 61.2227 47.6193 61.2227 46.9023C61.2227 46.1854 62.064 45.3462 63.4184 44.7122ZM45.6411 44.7122C47.2286 43.9691 49.4046 43.543 51.6113 43.543C53.818 43.543 55.9941 43.9691 57.5816 44.7122C58.936 45.3462 59.7773 46.1854 59.7773 46.9023C59.7773 47.6193 58.936 48.4585 57.5816 49.0925C55.9941 49.8356 53.818 50.2617 51.6113 50.2617C49.4046 50.2617 47.2286 49.8356 45.6411 49.0925C44.2867 48.4585 43.4453 47.6193 43.4453 46.9023C43.4453 46.1854 44.2867 45.3462 45.6411 44.7122ZM45.6411 69.2487C44.2867 68.6147 43.4453 67.7756 43.4453 67.0586V66.694C43.4453 65.9189 44.3991 65.4392 45.1011 65.7678C46.3469 66.3508 47.8546 66.7501 49.4777 66.937C50.3801 67.041 51.1055 67.7752 51.1055 68.6836C51.1055 69.6286 50.3224 70.3955 49.3854 70.2728C47.9882 70.0898 46.6869 69.7383 45.6411 69.2487ZM66.3539 74.2916C64.8019 75.0432 62.723 75.457 60.5 75.457C58.277 75.457 56.1981 75.0432 54.6461 74.2916C53.3341 73.6562 52.5508 72.836 52.5508 72.0977V70.5095C52.5508 70.2396 52.8719 70.0862 53.096 70.2368C54.2182 70.9915 55.7451 71.5497 57.5117 71.8511C57.5473 71.8571 57.5826 71.8601 57.6175 71.8601C57.9702 71.8601 58.2788 71.5597 58.3316 71.1421C58.3896 70.6832 58.1164 70.2566 57.7216 70.1892C54.3631 69.6162 52.5508 68.1486 52.5508 67.0586C52.5508 66.1609 53.6699 65.5964 54.4934 65.9537C56.0992 66.6505 58.1755 67.0586 60.5 67.0586C62.8245 67.0586 64.9008 66.6505 66.5066 65.9537C67.3301 65.5964 68.4492 66.1609 68.4492 67.0586C68.4492 68.1486 66.6369 69.6162 63.2784 70.1892C62.8835 70.2566 62.6104 70.6832 62.6684 71.1421C62.7212 71.5597 63.0298 71.8601 63.3825 71.8601C63.4174 71.8601 63.4528 71.8571 63.4883 71.8511C65.2549 71.5497 66.7818 70.9916 67.904 70.2368C68.128 70.0862 68.4492 70.2396 68.4492 70.5095V72.0977C68.4492 72.836 67.6659 73.6562 66.3539 74.2916ZM75.3589 69.2487C74.3131 69.7382 73.0118 70.0898 71.6145 70.2728C70.6775 70.3955 69.8945 69.6285 69.8945 68.6836C69.8945 67.7752 70.6199 67.0409 71.5223 66.937C73.1454 66.75 74.6532 66.3508 75.8989 65.7677C76.6009 65.4391 77.5547 65.9188 77.5547 66.6939V67.0586C77.5547 67.7756 76.7133 68.6147 75.3589 69.2487Z" fill="#262626"/>
<path d="M75.8989 43.1541C74.1206 42.3218 71.8085 41.8633 69.3887 41.8633C66.9689 41.8633 64.6568 42.3218 62.8785 43.1541C62.7487 43.2149 62.6227 43.2773 62.5006 43.3413C61.3461 43.9463 59.6538 43.9463 58.4994 43.3413C58.3773 43.2773 58.2513 43.2149 58.1215 43.1542C56.3432 42.3218 54.0311 41.8633 51.6113 41.8633C49.1915 41.8633 46.8794 42.3218 45.1011 43.1541C43.1013 44.0902 42 45.4214 42 46.9023V67.0586C42 68.5396 43.1013 69.8707 45.1011 70.8068C46.7533 71.5801 48.8663 72.0302 51.0982 72.0902C51.1023 72.0903 51.1055 72.0936 51.1055 72.0977C51.1055 74.9704 55.1442 77.1367 60.5 77.1367C65.8558 77.1367 69.8945 74.9704 69.8945 72.0977C69.8945 72.0936 69.8977 72.0903 69.9018 72.0902C72.1337 72.0302 74.2467 71.5801 75.8989 70.8068C77.8987 69.8707 79 68.5396 79 67.0586V46.9023C79 45.4214 77.8987 44.0902 75.8989 43.1541ZM77.5547 62.0195C77.5547 62.7365 76.7133 63.5757 75.3589 64.2097C74.396 64.6604 73.2163 64.9942 71.9447 65.1871C70.8299 65.3562 69.8945 64.4386 69.8945 63.311V62.0195C69.8945 62.0155 69.8976 62.0122 69.9016 62.0121C72.1336 61.9521 74.2466 61.5021 75.8989 60.7287C76.6009 60.4001 77.5547 60.8798 77.5547 61.6549L77.5547 62.0195ZM59.7773 51.9414C59.7773 52.6584 58.936 53.4976 57.5816 54.1316C55.9941 54.8746 53.818 55.3008 51.6113 55.3008C49.4046 55.3008 47.2286 54.8746 45.6411 54.1316C44.2867 53.4976 43.4453 52.6584 43.4453 51.9414V51.5768C43.4453 50.8017 44.3991 50.322 45.1011 50.6506C46.8794 51.4829 49.1915 51.9414 51.6113 51.9414C54.0311 51.9414 56.3432 51.4829 58.1215 50.6506C58.8235 50.322 59.7773 50.8017 59.7773 51.5768V51.9414ZM45.1011 55.6896C46.8794 56.522 49.1915 56.9805 51.6113 56.9805C54.0311 56.9805 56.3432 56.522 58.1215 55.6896C58.227 55.6402 58.33 55.5898 58.4305 55.5382C58.9987 55.2465 59.7773 55.6331 59.7773 56.2718C59.7773 56.6759 59.4579 57.0062 59.0551 57.0381C57.449 57.1653 55.927 57.5024 54.6648 58.019C53.6856 58.4198 52.8913 58.9106 52.3031 59.4727C51.7988 59.9545 51.1682 60.3479 50.4723 60.302C48.6697 60.1828 46.9541 59.7852 45.6411 59.1706C44.2867 58.5366 43.4453 57.6974 43.4453 56.9805V56.6159C43.4453 55.8407 44.3991 55.361 45.1011 55.6896ZM43.4453 61.6549C43.4453 60.8798 44.3991 60.4001 45.1011 60.7287C46.7534 61.502 48.8664 61.952 51.0985 62.0121C51.1025 62.0122 51.1055 62.0155 51.1055 62.0195V63.311C51.1055 64.4386 50.1702 65.3562 49.0554 65.1871C47.7837 64.9942 46.6041 64.6604 45.6412 64.2097C44.2867 63.5757 43.4453 62.7365 43.4453 62.0195V61.6549ZM52.6272 61.6069C53.1628 60.1584 56.254 58.6602 60.5 58.6602C64.746 58.6602 67.8372 60.1584 68.3722 61.6052C68.4241 61.7464 68.4492 61.8819 68.4492 62.0195C68.4492 62.7579 67.6659 63.5781 66.3539 64.2135C64.8019 64.965 62.723 65.3789 60.5 65.3789C58.277 65.3789 56.1981 64.965 54.6461 64.2135C53.3341 63.5781 52.5508 62.7579 52.5508 62.0195C52.5508 61.8819 52.576 61.7464 52.6272 61.6069ZM77.5547 56.9805C77.5547 57.6974 76.7133 58.5366 75.3589 59.1706C74.046 59.7852 72.3305 60.1828 70.528 60.3019C69.8321 60.3479 69.2014 59.9544 68.697 59.4726C68.1089 58.9107 67.3145 58.4198 66.3352 58.019C65.073 57.5023 63.551 57.1653 61.9449 57.0381C61.5421 57.0062 61.2227 56.6759 61.2227 56.2718C61.2227 55.6331 62.0013 55.2465 62.5695 55.5382C62.67 55.5898 62.773 55.6402 62.8785 55.6896C64.6568 56.522 66.9689 56.9805 69.3887 56.9805C71.8085 56.9805 74.1206 56.522 75.8989 55.6896C76.6009 55.361 77.5547 55.8407 77.5547 56.6159V56.9805ZM77.5547 51.9414C77.5547 52.6584 76.7133 53.4976 75.3589 54.1316C73.7714 54.8746 71.5954 55.3008 69.3887 55.3008C67.182 55.3008 65.0059 54.8746 63.4184 54.1316C62.064 53.4976 61.2227 52.6584 61.2227 51.9414V51.5768C61.2227 50.8017 62.1765 50.322 62.8785 50.6506C64.6568 51.4829 66.9689 51.9414 69.3887 51.9414C71.8085 51.9414 74.1206 51.4829 75.8989 50.6506C76.6009 50.322 77.5547 50.8017 77.5547 51.5768V51.9414ZM63.4184 44.7122C65.0059 43.9691 67.182 43.543 69.3887 43.543C71.5954 43.543 73.7714 43.9691 75.3589 44.7122C76.7133 45.3462 77.5547 46.1854 77.5547 46.9023C77.5547 47.6193 76.7133 48.4585 75.3589 49.0925C73.7714 49.8356 71.5954 50.2617 69.3887 50.2617C67.182 50.2617 65.0059 49.8356 63.4184 49.0925C62.064 48.4585 61.2227 47.6193 61.2227 46.9023C61.2227 46.1854 62.064 45.3462 63.4184 44.7122ZM45.6411 44.7122C47.2286 43.9691 49.4046 43.543 51.6113 43.543C53.818 43.543 55.9941 43.9691 57.5816 44.7122C58.936 45.3462 59.7773 46.1854 59.7773 46.9023C59.7773 47.6193 58.936 48.4585 57.5816 49.0925C55.9941 49.8356 53.818 50.2617 51.6113 50.2617C49.4046 50.2617 47.2286 49.8356 45.6411 49.0925C44.2867 48.4585 43.4453 47.6193 43.4453 46.9023C43.4453 46.1854 44.2867 45.3462 45.6411 44.7122ZM45.6411 69.2487C44.2867 68.6147 43.4453 67.7756 43.4453 67.0586V66.694C43.4453 65.9189 44.3991 65.4392 45.1011 65.7678C46.3469 66.3508 47.8546 66.7501 49.4777 66.937C50.3801 67.041 51.1055 67.7752 51.1055 68.6836C51.1055 69.6286 50.3224 70.3955 49.3854 70.2728C47.9882 70.0898 46.6869 69.7383 45.6411 69.2487ZM66.3539 74.2916C64.8019 75.0432 62.723 75.457 60.5 75.457C58.277 75.457 56.1981 75.0432 54.6461 74.2916C53.3341 73.6562 52.5508 72.836 52.5508 72.0977V70.5095C52.5508 70.2396 52.8719 70.0862 53.096 70.2368C54.2182 70.9915 55.7451 71.5497 57.5117 71.8511C57.5473 71.8571 57.5826 71.8601 57.6175 71.8601C57.9702 71.8601 58.2788 71.5597 58.3316 71.1421C58.3896 70.6832 58.1164 70.2566 57.7216 70.1892C54.3631 69.6162 52.5508 68.1486 52.5508 67.0586C52.5508 66.1609 53.6699 65.5964 54.4934 65.9537C56.0992 66.6505 58.1755 67.0586 60.5 67.0586C62.8245 67.0586 64.9008 66.6505 66.5066 65.9537C67.3301 65.5964 68.4492 66.1609 68.4492 67.0586C68.4492 68.1486 66.6369 69.6162 63.2784 70.1892C62.8835 70.2566 62.6104 70.6832 62.6684 71.1421C62.7212 71.5597 63.0298 71.8601 63.3825 71.8601C63.4174 71.8601 63.4528 71.8571 63.4883 71.8511C65.2549 71.5497 66.7818 70.9916 67.904 70.2368C68.128 70.0862 68.4492 70.2396 68.4492 70.5095V72.0977C68.4492 72.836 67.6659 73.6562 66.3539 74.2916ZM75.3589 69.2487C74.3131 69.7382 73.0118 70.0898 71.6145 70.2728C70.6775 70.3955 69.8945 69.6285 69.8945 68.6836C69.8945 67.7752 70.6199 67.0409 71.5223 66.937C73.1454 66.75 74.6532 66.3508 75.8989 65.7677C76.6009 65.4391 77.5547 65.9188 77.5547 66.6939V67.0586C77.5547 67.7756 76.7133 68.6147 75.3589 69.2487Z" stroke="#262626" stroke-width="1.2" mask="url(#path-2-outside-1)"/>
</svg>
