<svg width="24" height="24" viewBox="0 0 24 24" fill="none" xmlns="http://www.w3.org/2000/svg">
<path d="M19 22H5C3.89543 22 3 21.1046 3 20V6C3 4.89543 3.89543 4 5 4H6.6C6.82091 4 7 3.82091 7 3.6V3C7 2.44772 7.44772 2 8 2C8.55228 2 9 2.44772 9 3V3.6C9 3.82091 9.17909 4 9.4 4H14.6C14.8209 4 15 3.82091 15 3.6V3C15 2.44772 15.4477 2 16 2C16.5523 2 17 2.44772 17 3V3.6C17 3.82091 17.1791 4 17.4 4H19C20.1046 4 21 4.89543 21 6V20C21 21.1046 20.1046 22 19 22ZM6 10C5.44772 10 5 10.4477 5 11V19C5 19.5523 5.44772 20 6 20H18C18.5523 20 19 19.5523 19 19V11C19 10.4477 18.5523 10 18 10H6ZM6 6C5.44772 6 5 6.44772 5 7C5 7.55228 5.44772 8 6 8H18C18.5523 8 19 7.55228 19 7C19 6.44772 18.5523 6 18 6H6ZM10.0927 18.7079C9.90528 18.895 9.65129 19 9.38648 19H8.4C8.17909 19 8 18.8209 8 18.6V17.6149C8 17.3493 8.10568 17.0946 8.29374 16.907L11.4929 13.7154C11.8836 13.3257 12.5161 13.3261 12.9063 13.7163L13.2921 14.1021C13.6829 14.4929 13.6825 15.1267 13.2912 15.5171L10.0927 18.7079ZM14.6268 14.1824C14.6256 14.1821 14.6245 14.1815 14.6237 14.1807L12.9667 12.5237C12.8885 12.4455 12.8886 12.3186 12.967 12.2406L14.0586 11.1538C14.1367 11.076 14.2631 11.0761 14.3411 11.1541L15.8586 12.6716C15.9367 12.7497 15.9367 12.8763 15.8586 12.9544L14.6323 14.1807C14.6309 14.1821 14.6288 14.1828 14.6268 14.1824Z" fill="black"/>
</svg>
