<svg width="24" height="24" viewBox="0 0 24 24" fill="none" xmlns="http://www.w3.org/2000/svg">
<path fill-rule="evenodd" clip-rule="evenodd" d="M10 2C9.20435 2 8.44129 2.31607 7.87868 2.87868C7.31607 3.44129 7 4.20435 7 5V5C7 5.55228 6.55228 6 6 6H4C2.34315 6 1 7.34315 1 9V19C1 20.6569 2.34315 22 4 22H8H16H20C21.6569 22 23 20.6569 23 19V9C23 7.34315 21.6569 6 20 6H18C17.4477 6 17 5.55228 17 5V5C17 4.20435 16.6839 3.44129 16.1213 2.87868C15.5587 2.31607 14.7956 2 14 2H10ZM14 6C14.5523 6 15 5.55228 15 5V5C15 4.73478 14.8946 4.48043 14.7071 4.29289C14.5196 4.10536 14.2652 4 14 4H10C9.73478 4 9.48043 4.10536 9.29289 4.29289C9.10536 4.48043 9 4.73478 9 5V5C9 5.55228 9.44772 6 10 6H14ZM9 9C9 8.44772 9.44772 8 10 8H14C14.5523 8 15 8.44772 15 9V19C15 19.5523 14.5523 20 14 20H10C9.44772 20 9 19.5523 9 19V9ZM7 9C7 8.44772 6.55228 8 6 8H4C3.44772 8 3 8.44772 3 9V19C3 19.5523 3.44772 20 4 20H6C6.55228 20 7 19.5523 7 19V9ZM18 20C17.4477 20 17 19.5523 17 19V9C17 8.44772 17.4477 8 18 8H20C20.5523 8 21 8.44772 21 9V19C21 19.5523 20.5523 20 20 20H18Z" fill="black"/>
</svg>
