<svg width="24" height="24" viewBox="0 0 24 24" fill="none" xmlns="http://www.w3.org/2000/svg">
<path d="M19 21H10C8.89543 21 8 20.1046 8 19V16C8 15.4477 8.44772 15 9 15V15C9.55228 15 10 15.4477 10 16V18C10 18.5523 10.4477 19 11 19H18C18.5523 19 19 18.5523 19 18V6C19 5.44772 18.5523 5 18 5H11C10.4477 5 10 5.44772 10 6V8C10 8.55228 9.55228 9 9 9V9C8.44772 9 8 8.55228 8 8V5C8 3.89543 8.89543 3 10 3H19C20.1046 3 21 3.89543 21 5V19C21 20.1046 20.1046 21 19 21ZM13.2998 14.9602C12.7759 15.3792 12 15.0063 12 14.3355V13.8C12 13.3582 11.6418 13 11.2 13H4C3.44772 13 3 12.5523 3 12V12C3 11.4477 3.44772 11 4 11H11.2C11.6418 11 12 10.6418 12 10.2V9.6645C12 8.99369 12.7759 8.62076 13.2998 9.0398L16.2191 11.3753C16.6195 11.6956 16.6195 12.3044 16.2191 12.6247L13.2998 14.9602Z" fill="black"/>
</svg>
