<svg width="24" height="24" viewBox="0 0 24 24" fill="none" xmlns="http://www.w3.org/2000/svg">
<path d="M22.8631 15.4044L22.9142 15.4394C22.987 15.4892 23.0487 15.5536 23.096 15.6282C23.2864 15.9287 23.2091 16.3347 22.9142 16.5368L14.8453 22.087C14.8452 22.0871 14.845 22.0872 14.8449 22.0873C14.6279 22.2377 14.3436 22.2376 14.1267 22.087L14.1255 22.0862L7.32242 17.2921L1.77879 20.782L22.8631 15.4044ZM22.8631 15.4044H22.8579M22.8631 15.4044H22.8579M22.8579 15.4044L15.2008 10.2457L15.2009 2.45762L15.2008 2.45684C15.1994 2.09999 14.918 1.79847 14.5562 1.80001L14.5562 1.80001C14.4378 1.80051 14.3223 1.8346 14.2221 1.89803C14.2221 1.89805 14.2221 1.89807 14.2221 1.89809L1.10541 10.1738L1.10521 10.1739C0.914269 10.2947 0.800938 10.5072 0.8 10.7327V10.7335L0.799998 20.2225L0.800002 20.2233C0.8014 20.5801 1.08282 20.8817 1.44462 20.8801C1.56286 20.8796 1.67825 20.8456 1.77831 20.7824L22.8579 15.4044ZM11.3125 8.09171L11.3135 8.091C11.5276 7.94637 11.8049 7.94632 12.019 8.09085L11.3125 8.09171ZM11.3125 8.09171L3.46352 13.468L3.46352 13.468L3.462 13.4691C3.16902 13.6738 3.09514 14.0805 3.28825 14.3793L3.28826 14.3793C3.33395 14.45 3.39274 14.5113 3.46163 14.5595C3.46175 14.5596 3.46187 14.5597 3.46198 14.5598L6.16843 16.4681L2.08389 19.0421V11.1011L13.917 3.62919M11.3125 8.09171L13.917 3.62919M13.917 3.62919V9.36963L12.0192 8.091L13.917 3.62919ZM13.2727 19.8771C14.0016 19.2535 15.0519 19.2377 15.7978 19.838L14.4938 20.737L13.2727 19.8771ZM12.3104 18.9833L12.4477 19.1287L12.3104 18.9833C12.265 19.0261 12.2208 19.0703 12.1778 19.1157L4.96602 14.0265L11.6866 9.4451L18.8016 14.2619C18.1879 15.3411 18.1882 16.6831 18.8026 17.762L16.8907 19.0859C15.6434 17.7993 13.6273 17.7398 12.3104 18.9833ZM21.3851 15.9964L19.8894 17.0236C19.553 16.391 19.5533 15.6201 19.8903 14.9877L21.3851 15.9964Z" fill="black" stroke="black" stroke-width="0.4"/>
</svg>
