<svg width="24" height="24" viewBox="0 0 24 24" fill="none" xmlns="http://www.w3.org/2000/svg">
<path fill-rule="evenodd" clip-rule="evenodd" d="M11.2929 4.29289C11.6834 3.90237 12.3166 3.90237 12.7071 4.29289L19.7071 11.2929C20.0976 11.6834 20.0976 12.3166 19.7071 12.7071C19.3166 13.0976 18.6834 13.0976 18.2929 12.7071L14.0243 8.43848C13.6463 8.0605 13 8.3282 13 8.86274V19C13 19.5523 12.5523 20 12 20C11.4477 20 11 19.5523 11 19L11 8.86274C11 8.3282 10.3537 8.0605 9.97574 8.43848L5.70711 12.7071C5.31658 13.0976 4.68342 13.0976 4.29289 12.7071C3.90237 12.3166 3.90237 11.6834 4.29289 11.2929L11.2929 4.29289Z" fill="white"/>
</svg>
