<svg width="106" height="106" viewBox="0 0 106 106" fill="none" xmlns="http://www.w3.org/2000/svg">
<path d="M78.0381 80.6837C75.1722 80.7193 72.3253 80.2144 69.6464 79.1953C67.2464 78.262 65.0778 76.8183 63.2908 74.9641C61.5304 73.0693 60.1709 70.8385 59.2938 68.4054C58.3305 65.7138 57.8535 62.8723 57.8848 60.0137C57.8643 57.2043 58.3552 54.4147 59.3335 51.781C60.2456 49.3252 61.6493 47.0814 63.4587 45.187C65.2732 43.3161 67.441 41.8239 69.8363 40.7968C72.431 39.6992 75.2255 39.1532 78.0425 39.1935C81.0699 39.1289 84.0683 39.7955 86.7831 41.1369C89.2063 42.3798 91.3079 44.1684 92.9223 46.3618C94.5507 48.6021 95.7255 51.1393 96.3805 53.8304C97.0953 56.6912 97.3502 59.6476 97.1358 62.5886H68.7322C68.6192 65.3821 69.5765 68.1134 71.4087 70.225C73.3334 71.9134 75.8499 72.7681 78.4047 72.6012C80.4112 72.6482 82.383 72.0727 84.0492 70.9538C85.3721 70.1462 86.3873 68.9197 86.9333 67.469H96.4512C95.3724 71.5708 92.8908 75.1651 89.4375 77.6274C86.0194 79.7414 82.0553 80.8043 78.0381 80.6837ZM77.7333 47.3644C76.2492 47.3086 74.7736 47.6116 73.4315 48.2477C72.3821 48.7769 71.4506 49.5131 70.6932 50.4119C70.0269 51.2284 69.5339 52.1722 69.2445 53.1855C68.9895 54.0299 68.8251 54.899 68.7543 55.7781H86.3414C86.2147 53.4878 85.3413 51.3021 83.8548 49.555C82.2098 48.002 79.9902 47.2077 77.7333 47.3644ZM35.2008 79.659H8.83334V25.312H34.45C36.8231 25.2912 39.1917 25.5206 41.5167 25.9965C43.4859 26.381 45.3622 27.1429 47.0419 28.2402C48.559 29.2933 49.7765 30.7224 50.5753 32.3875C51.4571 34.3932 51.8796 36.5707 51.8119 38.7607C51.9076 41.1837 51.2654 43.5786 49.9702 45.6286C48.5529 47.5856 46.6374 49.1274 44.4228 50.0939C47.432 50.8459 50.0769 52.641 51.887 55.1598C53.5684 57.7516 54.4189 60.7947 54.325 63.8827C54.389 66.3524 53.8461 68.8002 52.7438 71.0112C51.7266 72.9723 50.2509 74.6587 48.442 75.927C46.5667 77.2318 44.4724 78.1892 42.2587 78.7536C39.9477 79.3605 37.5681 79.6663 35.1788 79.6635L35.2008 79.659ZM20.8025 55.4425V70.415H33.5667C34.6947 70.4271 35.8206 70.313 36.9233 70.0749C37.9329 69.88 38.8936 69.4867 39.75 68.9177C40.5747 68.3754 41.2443 67.6281 41.6933 66.7491C42.2141 65.6465 42.4596 64.4341 42.4088 63.2158C42.6229 60.955 41.747 58.7274 40.0503 57.218C38.2198 55.9578 36.0246 55.3368 33.8052 55.4513L20.8025 55.4425ZM20.8025 34.5737V47.2716H32.913C34.7864 47.3454 36.6333 46.8108 38.1777 45.7479C39.6335 44.5388 40.4001 42.6901 40.227 40.8056C40.2643 39.7239 40.0337 38.6497 39.5557 37.6786C39.1239 36.8936 38.4874 36.2403 37.7139 35.7883C36.8994 35.3053 35.9998 34.9829 35.0639 34.8387C34.0447 34.6476 33.0092 34.5574 31.9723 34.5693L20.8025 34.5737ZM88.5586 34.3264H66.5194V28.9601H88.5586V34.322V34.3264Z" fill="#EBEBEB"/>
</svg>
