<svg width="106" height="106" viewBox="0 0 106 106" fill="none" xmlns="http://www.w3.org/2000/svg">
<path d="M50.3414 92.7898H39.1937C38.6273 92.8219 38.0811 92.5743 37.7318 92.1273C37.3777 91.6736 37.2332 91.0907 37.3343 90.5241C37.5109 89.4597 37.7318 88.0552 38.01 86.2708C38.1646 85.2903 38.3324 84.2259 38.5135 83.0599C39.0656 79.5266 39.441 77.1548 39.6928 75.6046C39.7929 74.9833 39.9121 74.2472 40.0505 73.3962V73.3079C40.2773 71.8975 40.554 70.1839 40.8809 68.1669L41.3225 65.433V65.4109C41.6405 63.447 41.8908 61.8849 42.0734 60.7248C42.0937 60.2478 42.311 59.8007 42.6736 59.49C43.0361 59.1794 43.5113 59.0332 43.9858 59.0862H50.6991C53.9197 59.1209 57.1346 58.807 60.2877 58.1499C65.035 57.2026 69.4387 54.9916 73.0342 51.7502C76.1846 48.7236 78.5496 44.9745 79.9242 40.8277C80.5952 38.9013 81.115 36.9255 81.4789 34.9182C81.5098 34.7327 81.5451 34.6267 81.5893 34.5914C81.6157 34.5574 81.6566 34.5377 81.6997 34.5384H81.7439C81.8408 34.5791 81.9327 34.631 82.0177 34.693C84.3351 36.4484 85.8856 39.0305 86.346 41.901C86.8687 44.9039 86.8087 47.9793 86.1694 50.9596C85.3328 56.7272 82.4157 61.9897 77.9676 65.7554C73.0538 69.2576 67.1 70.9947 61.0739 70.6844H59.1349C58.4132 70.6784 57.7147 70.9395 57.1739 71.4176C56.6133 71.9042 56.24 72.5711 56.1184 73.3035L55.9373 74.1603L53.4949 89.5215L53.4021 90.1884C53.2759 90.9284 52.887 91.598 52.3068 92.0743C51.7606 92.5441 51.0618 92.7985 50.3414 92.7898ZM34.5385 83.9565H21.4431C20.8182 83.9696 20.2202 83.7022 19.8134 83.2277C19.3893 82.7616 19.2021 82.1269 19.3054 81.5052L29.6007 16.1827C29.7302 15.3447 30.1661 14.5845 30.8241 14.0495C31.4596 13.5014 32.2728 13.2032 33.1119 13.2102H59.6738C61.13 13.2677 62.5776 13.4614 63.9977 13.7889C65.6903 14.1092 67.3504 14.5823 68.9576 15.2022C71.8829 16.2366 74.4193 18.1455 76.223 20.6701C77.9332 23.2471 78.8091 26.2879 78.7317 29.3797C78.6568 32.9654 77.9682 36.5118 76.6956 39.8649C74.667 46.378 69.6913 51.5565 63.2645 53.8437C59.6571 55.0651 55.8768 55.6989 52.0683 55.7207C52.0241 55.7472 50.1249 55.7517 48.0933 55.7517L44.1183 55.7207C41.4962 55.4531 39.1517 57.3572 38.8757 59.9784C38.8183 60.2169 37.4756 68.5777 35.0994 83.5148C35.0996 83.6565 35.0361 83.7907 34.9266 83.8806C34.8171 83.9704 34.673 84.0064 34.5341 83.9786L34.5385 83.9565Z" fill="#EBEBEB"/>
</svg>
