<svg width="107" height="106" viewBox="0 0 107 106" fill="none" xmlns="http://www.w3.org/2000/svg">
<path d="M90.0807 29.4167C89.8667 29.4472 89.7644 29.1568 89.9447 29.0377C93.3931 26.7594 96.007 23.4319 97.3875 19.5524C97.4492 19.379 97.261 19.2263 97.1011 19.3173C93.5017 21.3671 89.5889 22.824 85.5157 23.6301C85.4488 23.6433 85.3797 23.621 85.3323 23.572C79.3879 17.4132 70.0237 15.9283 62.4319 19.9529C54.8864 23.9529 50.9405 32.4153 52.7331 40.6833C52.7612 40.8131 52.659 40.9358 52.5264 40.9286C37.34 40.0998 23.1996 33.001 13.5446 21.3599C13.4557 21.2527 13.2864 21.2667 13.2179 21.388C8.45728 29.8091 10.8435 40.414 18.7021 46.0455C18.8659 46.1628 18.7804 46.4241 18.5794 46.4103C15.8671 46.2245 13.2242 45.4658 10.8293 44.1833C10.7349 44.1327 10.6198 44.2007 10.6198 44.3079C10.6215 53.049 16.6454 60.6164 25.1379 62.7076C25.3431 62.7581 25.3485 63.0509 25.1422 63.0968C22.6869 63.6437 20.1451 63.7067 17.6622 63.2802C17.5123 63.2545 17.3876 63.3974 17.4372 63.5411C19.9797 70.9068 26.8041 75.9839 34.6376 76.3626C34.8259 76.3717 34.9047 76.612 34.7542 76.7255C28.0578 81.7756 19.8665 84.5088 11.4401 84.4952C10.2033 84.4969 8.96734 84.4402 7.73635 84.3252C7.52491 84.3054 7.42771 84.5852 7.60866 84.6963C16.1898 89.9674 26.0933 92.76 36.2017 92.7499C50.6701 92.8484 64.5747 87.1977 74.8052 77.062C85.0357 66.9262 90.7385 53.1512 90.638 38.818C90.638 38.0331 90.6203 37.2523 90.5851 36.4755C90.582 36.4077 90.6134 36.3429 90.6684 36.3032C94.1904 33.7667 97.256 30.6629 99.7382 27.1222C99.8533 26.9581 99.6796 26.7477 99.4947 26.825C96.4811 28.0842 93.3173 28.9551 90.0807 29.4167Z" fill="#EBEBEB"/>
</svg>
