<svg width="25" height="25" viewBox="0 0 25 25" fill="none" xmlns="http://www.w3.org/2000/svg">
<path fill-rule="evenodd" clip-rule="evenodd" d="M13.7071 20.7071C13.3166 21.0976 12.6834 21.0976 12.2929 20.7071L5.29289 13.7071C4.90237 13.3166 4.90237 12.6834 5.29289 12.2929L12.2929 5.29289C12.6834 4.90237 13.3166 4.90237 13.7071 5.29289C14.0976 5.68342 14.0976 6.31658 13.7071 6.70711L9.43848 10.9757C9.0605 11.3537 9.3282 12 9.86274 12L20 12C20.5523 12 21 12.4477 21 13C21 13.5523 20.5523 14 20 14L9.86274 14C9.3282 14 9.0605 14.6463 9.43848 15.0243L13.7071 19.2929C14.0976 19.6834 14.0976 20.3166 13.7071 20.7071Z" fill="white"/>
</svg>
