<svg width="24" height="24" viewBox="0 0 24 24" fill="none" xmlns="http://www.w3.org/2000/svg">
<path d="M19.971 21.385C19.9704 21.385 19.9697 21.3847 19.9693 21.3842L17.1044 18.5193C16.8094 18.2244 16.364 18.1477 15.9741 18.2959C14.7073 18.7774 13.3593 19.0177 12 19.002C10.3599 19.0223 8.73671 18.6684 7.254 17.967C6.10468 17.4062 5.07264 16.6317 4.213 15.685C3.30049 14.7068 2.5833 13.5633 2.1 12.316L2.09873 12.312C2.03457 12.1105 2.03592 11.8939 2.10259 11.6932L2.105 11.686C2.68797 10.1989 3.59204 8.86453 4.74727 7.77525C5.18819 7.3595 5.23939 6.65334 4.81087 6.22483L3.7065 5.12045C3.31635 4.7303 3.31646 4.09771 3.70675 3.7077V3.7077C4.09684 3.31789 4.72905 3.318 5.119 3.70795L20.6759 19.2648C21.066 19.655 21.0665 20.2874 20.6769 20.6781L19.9727 21.3842C19.9723 21.3847 19.9716 21.385 19.971 21.385V21.385ZM7.62964 9.04381C7.2863 8.70092 6.74185 8.64934 6.37362 8.96536C5.51773 9.69989 4.81407 10.5971 4.3044 11.6061C4.17853 11.8553 4.17742 12.1493 4.30173 12.3993C5.74107 15.2937 8.74248 17.104 12 17.002C12.5138 17.0062 13.0261 16.9678 13.5317 16.8878C14.2627 16.7721 14.4758 15.8908 13.9525 15.3675L13.7924 15.2074C13.4901 14.9051 13.0313 14.8456 12.6134 14.9358C12.4125 14.9792 12.2069 15.0015 12 15.002C10.3475 14.9916 9.01037 13.6545 9 12.002C9.00022 11.7943 9.02247 11.5879 9.06596 11.3861C9.15612 10.9679 9.09652 10.5087 8.79379 10.2064L7.62964 9.04381ZM19.8521 15.6128C19.852 15.6122 19.8518 15.6118 19.8514 15.6114L19.1256 14.8861C18.7516 14.5124 18.7387 13.9154 19.0436 13.4835C19.2874 13.1381 19.5055 12.7751 19.6961 12.3973C19.8216 12.1483 19.8228 11.8548 19.6988 11.6051C18.261 8.70891 15.2583 6.89772 12 7.00195C11.907 7.00195 11.8138 7.00323 11.721 7.00573C11.4311 7.01353 11.1473 6.91008 10.9423 6.7049L10.7987 6.56111C10.2387 6.00048 10.5285 5.06144 11.3197 5.01881C11.5462 5.00661 11.773 5.00098 12 5.00195C13.6401 4.9816 15.2633 5.33557 16.746 6.03695C17.8953 6.59769 18.9274 7.37215 19.787 8.31895C20.6991 9.29592 21.4163 10.438 21.9 11.684L21.903 11.6935C21.9661 11.894 21.9643 12.1093 21.898 12.3088L21.895 12.318C21.4274 13.5344 20.736 14.6524 19.8566 15.6141C19.8551 15.6156 19.8525 15.6149 19.8521 15.6128V15.6128Z" fill="white"/>
</svg>
