<svg width="24" height="24" viewBox="0 0 24 24" fill="none" xmlns="http://www.w3.org/2000/svg">
<path d="M16 21V19C16 17.9391 15.5786 16.9217 14.8284 16.1716C14.0783 15.4214 13.0609 15 12 15H5C3.93913 15 2.92172 15.4214 2.17157 16.1716C1.42143 16.9217 1 17.9391 1 19V21" stroke="white" stroke-width="2" stroke-linecap="round" stroke-linejoin="round"/>
<path d="M8.5 11C10.7091 11 12.5 9.20914 12.5 7C12.5 4.79086 10.7091 3 8.5 3C6.29086 3 4.5 4.79086 4.5 7C4.5 9.20914 6.29086 11 8.5 11Z" stroke="white" stroke-width="2" stroke-linecap="round" stroke-linejoin="round"/>
<path fill-rule="evenodd" clip-rule="evenodd" d="M20 7C20.5523 7 21 7.44772 21 8V9.6C21 9.82091 21.1791 10 21.4 10H23C23.5523 10 24 10.4477 24 11C24 11.5523 23.5523 12 23 12H21.4C21.1791 12 21 12.1791 21 12.4V14C21 14.5523 20.5523 15 20 15C19.4477 15 19 14.5523 19 14V12.4C19 12.1791 18.8209 12 18.6 12H17C16.4477 12 16 11.5523 16 11C16 10.4477 16.4477 10 17 10H18.6C18.8209 10 19 9.82091 19 9.6V8C19 7.44772 19.4477 7 20 7Z" fill="white"/>
</svg>
