<svg width="24" height="24" viewBox="0 0 24 24" fill="none" xmlns="http://www.w3.org/2000/svg">
<path d="M20 20H4C2.89543 20 2 19.1046 2 18V5.913C2.04661 4.84255 2.92853 3.99899 4 4H20C21.1046 4 22 4.89543 22 6V18C22 19.1046 21.1046 20 20 20ZM5.5546 8.90414C4.89004 8.46121 4 8.93762 4 9.73626V17C4 17.5523 4.44772 18 5 18H19C19.5523 18 20 17.5523 20 17V9.73626C20 8.93762 19.11 8.46121 18.4454 8.90415L13.6638 12.0911C12.6562 12.7626 11.3438 12.7626 10.3362 12.0911L5.5546 8.90414ZM8.10278 6C7.11337 6 6.72484 7.28323 7.54808 7.83205L10.3359 9.6906C11.3436 10.3624 12.6564 10.3624 13.6641 9.6906L16.4519 7.83205C17.2752 7.28323 16.8866 6 15.8972 6H8.10278Z" fill="white"/>
</svg>
