<svg width="24" height="24" viewBox="0 0 24 24" fill="none" xmlns="http://www.w3.org/2000/svg">
<circle cx="12" cy="12" r="11" stroke="white" stroke-width="2"/>
<path d="M15.1614 7.57542C14.9405 7.57542 14.7614 7.7545 14.7614 7.97542V8.61676C14.7614 8.83767 14.9405 9.01676 15.1614 9.01676H16.1C16.3209 9.01676 16.5 9.19585 16.5 9.41676V9.9743C16.5 10.1952 16.3209 10.3743 16.1 10.3743H15.0596C14.8595 10.3743 14.6924 10.5229 14.6499 10.7185C14.4683 11.555 14.0566 12.2 13.4148 12.6536C12.7651 13.1201 11.8018 13.3749 10.525 13.418C10.3042 13.4254 10.125 13.6037 10.125 13.8246V14.4804C10.125 15.6425 10.6136 16.2235 11.5909 16.2235C12.0682 16.2235 12.4205 16.0782 12.6477 15.7877C12.8281 15.5681 12.9404 15.2654 12.9844 14.8797C13.0094 14.6602 13.1848 14.4804 13.4057 14.4804H14.8219C15.0492 14.4804 15.2326 14.6701 15.2072 14.896C15.1051 15.8057 14.7917 16.5331 14.267 17.0782C13.6648 17.6927 12.8068 18 11.6932 18C10.4545 18 9.50568 17.6816 8.84659 17.0447C8.19886 16.3966 7.875 15.4302 7.875 14.1453V12.2827C7.875 12.0618 8.05431 11.8829 8.27522 11.8814C9.31504 11.8748 10.1078 11.8417 10.6534 11.7821C11.267 11.7039 11.7045 11.5587 11.9659 11.3464C12.1346 11.2151 12.2641 11.041 12.3546 10.8242C12.4491 10.5976 12.2554 10.3743 12.0098 10.3743H7.9C7.67909 10.3743 7.5 10.1952 7.5 9.9743V9.41676C7.5 9.19585 7.67909 9.01676 7.9 9.01676H12.1114C12.3323 9.01676 12.5114 8.83767 12.5114 8.61676V7.97542C12.5114 7.7545 12.3323 7.57542 12.1114 7.57542H7.9C7.67909 7.57542 7.5 7.39633 7.5 7.17542V6.4C7.5 6.17909 7.67909 6 7.9 6H16.1C16.3209 6 16.5 6.17909 16.5 6.4V7.17542C16.5 7.39633 16.3209 7.57542 16.1 7.57542H15.1614Z" fill="white"/>
</svg>
