<svg width="24" height="24" viewBox="0 0 24 24" fill="none" xmlns="http://www.w3.org/2000/svg">
<path d="M12 22C6.47715 22 2 17.5228 2 12C2 6.47715 6.47715 2 12 2C17.5228 2 22 6.47715 22 12C21.9939 17.5203 17.5203 21.9939 12 22ZM11.984 20H12C16.4167 19.9956 19.9942 16.4127 19.992 11.996C19.9898 7.57929 16.4087 4 11.992 4C7.57528 4 3.99421 7.57929 3.992 11.996C3.98979 16.4127 7.56729 19.9956 11.984 20ZM10.7071 16.2929C10.3166 16.6834 9.68342 16.6834 9.29289 16.2929L6.70568 13.7057C6.31594 13.3159 6.31594 12.6841 6.70568 12.2943V12.2943C7.09489 11.9051 7.72572 11.9045 8.11568 12.293L9.2929 13.4656C9.68364 13.8549 10.3158 13.8542 10.7057 13.4643L15.8804 8.28961C16.2719 7.89811 16.9074 7.89963 17.2975 8.29251V8.29251C17.6857 8.68343 17.6849 9.31506 17.2954 9.70461L10.7071 16.2929Z" fill="white"/>
</svg>
