<svg width="24" height="24" viewBox="0 0 24 24" fill="none" xmlns="http://www.w3.org/2000/svg">
<path fill-rule="evenodd" clip-rule="evenodd" d="M12 3.99997C12.5523 3.99997 13 4.44768 13 4.99997V15.1372C13 15.6718 13.6463 15.9395 14.0243 15.5615L18.2929 11.2929C18.6834 10.9023 19.3166 10.9023 19.7071 11.2929C20.0976 11.6834 20.0976 12.3166 19.7071 12.7071L12.7071 19.7071C12.3166 20.0976 11.6834 20.0976 11.2929 19.7071L4.29289 12.7071C3.90237 12.3166 3.90237 11.6834 4.29289 11.2929C4.68342 10.9023 5.31658 10.9023 5.70711 11.2929L9.97574 15.5615C10.3537 15.9395 11 15.6718 11 15.1372V4.99997C11 4.44768 11.4477 3.99997 12 3.99997Z" fill="#157EF8"/>
</svg>
