<svg width="24" height="24" viewBox="0 0 24 24" fill="none" xmlns="http://www.w3.org/2000/svg">
<path fill-rule="evenodd" clip-rule="evenodd" d="M6 4C4.89543 4 4 4.89543 4 6C4 7.10457 4.89543 8 6 8C6.53418 8 7.01945 7.79058 7.37818 7.44936C7.38939 7.43698 7.40095 7.42482 7.41289 7.41289C7.42482 7.40095 7.43698 7.38939 7.44936 7.37818C7.79058 7.01945 8 6.53418 8 6C8 4.89543 7.10457 4 6 4ZM9.99446 8.58025C9.67176 8.25755 9.62169 7.76077 9.77344 7.33038C9.92017 6.91417 10 6.46641 10 6C10 3.79086 8.20914 2 6 2C3.79086 2 2 3.79086 2 6C2 8.20914 3.79086 10 6 10C6.46641 10 6.91417 9.92017 7.33038 9.77344C7.76077 9.62169 8.25755 9.67176 8.58025 9.99446L9.87868 11.2929C10.2692 11.6834 10.2692 12.3166 9.87868 12.7071L8.58024 14.0055C8.25755 14.3282 7.76077 14.3783 7.33037 14.2266C6.91417 14.0798 6.46641 14 6 14C3.79086 14 2 15.7909 2 18C2 20.2091 3.79086 22 6 22C8.20914 22 10 20.2091 10 18C10 17.5336 9.92017 17.0858 9.77344 16.6696C9.62169 16.2392 9.67176 15.7424 9.99446 15.4197L12.7071 12.7071L20.7071 4.70711C21.0976 4.31658 21.0976 3.68342 20.7071 3.29289C20.3166 2.90237 19.6834 2.90237 19.2929 3.29289L12.7071 9.87868C12.3166 10.2692 11.6834 10.2692 11.2929 9.87868L9.99446 8.58025ZM6 16C4.89543 16 4 16.8954 4 18C4 19.1046 4.89543 20 6 20C7.10457 20 8 19.1046 8 18C8 17.4658 7.79056 16.9805 7.44932 16.6218C7.43696 16.6106 7.42481 16.599 7.41289 16.5871C7.40097 16.5752 7.38941 16.563 7.37821 16.5507C7.01948 16.2094 6.5342 16 6 16ZM13.7622 13.7735C14.1524 13.3826 14.7856 13.3821 15.1764 13.7722L20.7064 19.2922C21.0973 19.6824 21.0979 20.3156 20.7077 20.7064C20.3175 21.0973 19.6844 21.0979 19.2935 20.7077L13.7635 15.1877C13.3726 14.7976 13.3721 14.1644 13.7622 13.7735Z" fill="#157EF8"/>
</svg>
