<svg width="24" height="24" viewBox="0 0 24 24" fill="none" xmlns="http://www.w3.org/2000/svg">
<path d="M19 21C19 21.5523 18.5523 22 18 22H6C5.44772 22 5 21.5523 5 21V21C5 20.4477 5.44772 20 6 20H18C18.5523 20 19 20.4477 19 21V21ZM12.7071 17.2929C12.3166 17.6834 11.6834 17.6834 11.2929 17.2929L6.70549 12.7055C6.31586 12.3159 6.31586 11.6841 6.70549 11.2945V11.2945C7.09474 10.9053 7.7257 10.9048 8.11549 11.2935L9.97633 13.1492C10.3545 13.5263 11 13.2585 11 12.7243V3C11 2.44771 11.4477 2 12 2V2C12.5523 2 13 2.44772 13 3V12.7243C13 13.2585 13.6455 13.5263 14.0237 13.1492L15.8845 11.2935C16.2743 10.9048 16.9053 10.9053 17.2945 11.2945V11.2945C17.6841 11.6841 17.6841 12.3159 17.2945 12.7055L12.7071 17.2929Z" fill="#157EF8"/>
</svg>
