<svg width="24" height="24" viewBox="0 0 24 24" fill="none" xmlns="http://www.w3.org/2000/svg">
<path d="M2.00195 12.002C2.00308 16.7645 5.3558 20.8421 9.97805 21.7969C10.2189 21.8466 10.439 21.6584 10.439 21.4125V15.292C10.439 15.0711 10.2599 14.892 10.039 14.892H8.30195C8.08104 14.892 7.90195 14.7129 7.90195 14.492V12.402C7.90195 12.1811 8.08104 12.002 8.30195 12.002H10.042C10.2629 12.002 10.442 11.8229 10.442 11.602V9.80198C10.3284 8.75952 10.6845 7.72058 11.4136 6.96692C12.1427 6.21325 13.1693 5.823 14.215 5.90198C14.8522 5.91227 15.488 5.96201 16.1189 6.05087C16.313 6.07821 16.455 6.24592 16.455 6.44193V8.16098C16.455 8.3819 16.2759 8.56098 16.055 8.56098H15.191C14.7558 8.50399 14.3183 8.64771 14.0017 8.95165C13.6851 9.25559 13.5237 9.68687 13.563 10.124V11.602C13.563 11.8229 13.742 12.002 13.963 12.002H15.868C16.113 12.002 16.3005 12.2203 16.2634 12.4626L15.943 14.5536C15.913 14.7488 15.7451 14.893 15.5476 14.893H13.963C13.742 14.893 13.563 15.0721 13.563 15.293V21.4128C13.563 21.6586 13.783 21.8468 14.0237 21.7972C19.0311 20.7671 22.4857 16.0957 21.9475 10.9611C21.3929 5.67035 16.7932 1.73991 11.4808 2.01716C6.16831 2.29441 2.0028 6.68229 2.00195 12.002Z" fill="#157EF8"/>
</svg>
