<svg width="24" height="24" viewBox="0 0 24 24" fill="none" xmlns="http://www.w3.org/2000/svg">
<path d="M12 22C6.47967 21.9939 2.00606 17.5203 2 12V11.8C2.10993 6.30452 6.63459 1.92794 12.1307 2.00087C17.6268 2.07379 22.0337 6.56887 21.9978 12.0653C21.9619 17.5618 17.4966 21.9989 12 22ZM11.984 20H12C16.4167 19.9956 19.9942 16.4127 19.992 11.996C19.9898 7.57928 16.4087 3.99999 11.992 3.99999C7.57528 3.99999 3.99421 7.57928 3.992 11.996C3.98979 16.4127 7.56729 19.9956 11.984 20ZM15 15C15 15.5523 14.5523 16 14 16V16C13.4477 16 13 15.5523 13 15V8.99999C13 8.4477 13.4477 7.99999 14 7.99999V7.99999C14.5523 7.99999 15 8.4477 15 8.99999V15ZM11 15C11 15.5523 10.5523 16 10 16V16C9.44772 16 9 15.5523 9 15V8.99999C9 8.4477 9.44772 7.99999 10 7.99999V7.99999C10.5523 7.99999 11 8.4477 11 8.99999V15Z" fill="#157EF8"/>
</svg>
