<svg width="24" height="24" viewBox="0 0 24 24" fill="none" xmlns="http://www.w3.org/2000/svg">
<path d="M22.8631 15.4044L22.9142 15.4394C22.987 15.4893 23.0487 15.5536 23.096 15.6282C23.2864 15.9287 23.2091 16.3348 22.9142 16.5368L14.8453 22.0871C14.8452 22.0872 14.845 22.0873 14.8449 22.0874C14.6279 22.2377 14.3436 22.2376 14.1267 22.0871L14.1255 22.0863L7.32242 17.2922L1.77879 20.7821L22.8631 15.4044ZM22.8631 15.4044H22.8579M22.8631 15.4044H22.8579M22.8579 15.4044L15.2008 10.2458L15.2009 2.45769L15.2008 2.4569C15.1994 2.10005 14.918 1.79853 14.5562 1.80007L14.5562 1.80007C14.4378 1.80057 14.3223 1.83467 14.2221 1.89809C14.2221 1.89811 14.2221 1.89813 14.2221 1.89815L1.10541 10.1738L1.10521 10.174C0.914269 10.2947 0.800938 10.5072 0.8 10.7327V10.7336L0.799998 20.2226L0.800002 20.2234C0.8014 20.5802 1.08282 20.8817 1.44462 20.8802C1.56286 20.8797 1.67825 20.8457 1.77831 20.7824L22.8579 15.4044ZM11.3125 8.09177L11.3135 8.09106C11.5276 7.94643 11.8049 7.94638 12.019 8.09091L11.3125 8.09177ZM11.3125 8.09177L3.46352 13.4681L3.46352 13.4681L3.462 13.4692C3.16902 13.6739 3.09514 14.0805 3.28825 14.3794L3.28826 14.3794C3.33395 14.4501 3.39274 14.5114 3.46163 14.5596C3.46175 14.5597 3.46187 14.5598 3.46198 14.5598L6.16843 16.4682L2.08389 19.0422V11.1011L13.917 3.62926M11.3125 8.09177L13.917 3.62926M13.917 3.62926V9.36969L12.0192 8.09107L13.917 3.62926ZM13.2727 19.8771C14.0016 19.2536 15.0519 19.2377 15.7978 19.8381L14.4938 20.737L13.2727 19.8771ZM12.3104 18.9833L12.4477 19.1287L12.3104 18.9833C12.265 19.0262 12.2208 19.0703 12.1778 19.1157L4.96602 14.0265L11.6866 9.44516L18.8016 14.2619C18.1879 15.3411 18.1882 16.6832 18.8026 17.762L16.8907 19.086C15.6434 17.7994 13.6273 17.7398 12.3104 18.9833ZM21.3851 15.9965L19.8894 17.0237C19.553 16.391 19.5533 15.6202 19.8903 14.9878L21.3851 15.9965Z" fill="#157EF8" stroke="#157EF8" stroke-width="0.4"/>
</svg>
