<svg width="24" height="24" viewBox="0 0 24 24" fill="none" xmlns="http://www.w3.org/2000/svg">
<path d="M13.0021 22.4199C12.3822 22.7787 11.6178 22.7787 10.9979 22.4199L3.49793 18.0777C2.88029 17.7202 2.5 17.0606 2.5 16.3469V7.6531C2.5 6.93943 2.88029 6.27983 3.49793 5.92225L10.9979 1.58015C11.6178 1.22128 12.3822 1.22128 13.0021 1.58015L20.5021 5.92225C21.1197 6.27983 21.5 6.93943 21.5 7.65311V16.3469C21.5 17.0606 21.1197 17.7202 20.5021 18.0777L13.0021 22.4199ZM13.0019 3.89189C12.3821 3.53317 11.6179 3.53317 10.9981 3.89189L5.49812 7.07529C4.88038 7.43284 4.5 8.0925 4.5 8.80625V15.1939C4.5 15.9076 4.8803 16.5672 5.49795 16.9247L10.9979 20.1089C11.6178 20.4677 12.3822 20.4677 13.0021 20.1089L18.5021 16.9247C19.1197 16.5672 19.5 15.9076 19.5 15.1939V8.80625C19.5 8.0925 19.1196 7.43284 18.5019 7.07529L13.0019 3.89189ZM12 16C10.9395 15.997 9.92294 15.5759 9.171 14.828C8.02724 13.6839 7.68525 11.9635 8.30448 10.4689C8.92371 8.97436 10.3822 8 12 8C13.0603 8.00284 14.0765 8.42402 14.828 9.172C16.3895 10.734 16.3895 13.266 14.828 14.828C14.0764 15.5757 13.0602 15.9968 12 16ZM12 10C11.0458 9.9998 10.2244 10.6736 10.0381 11.6094C9.85175 12.5452 10.3524 13.4823 11.2339 13.8476C12.1153 14.2129 13.1321 13.9047 13.6623 13.1114C14.1926 12.3182 14.0886 11.2608 13.414 10.586C13.0398 10.2098 12.5307 9.99879 12 10Z" fill="#157EF8"/>
</svg>
