<svg width="28" height="24" viewBox="0 0 28 24" fill="none" xmlns="http://www.w3.org/2000/svg">
<path d="M28 18.6536C28 15.632 25.8202 13.1112 22.954 12.5874L22.1576 5.67065C22.1303 5.43318 22.316 5.2249 22.555 5.2249H23.4398C23.9921 5.2249 24.4398 4.77719 24.4398 4.2249V0.968208C24.4398 0.455649 24.0518 0.0208045 23.5395 0.00525128C21.198 -0.0658318 19.2493 0.584167 17.7534 1.99004C17.5515 2.1798 17.4553 2.45369 17.4723 2.73026L17.4984 3.15613C17.5126 3.38625 17.3297 3.58063 17.0992 3.58063H16.5995C16.1454 3.58063 15.7773 3.94873 15.7773 4.40279V4.40279C15.7773 4.85686 16.1454 5.22496 16.5995 5.22496H17.2493C17.4607 5.22496 17.6356 5.38945 17.6486 5.60045L18.1264 13.3835C18.1545 13.7875 17.8149 14.2694 17.2958 14.2688H12.7226C12.0554 14.2688 11.6039 13.6109 12.0818 13.1453C12.5864 12.6535 13.2811 12.3343 13.9973 12.3504V12.3504C14.4504 12.3504 14.8176 11.9831 14.8176 11.5301V7.9655C14.8176 6.52995 13.6523 5.36199 12.22 5.36199H6.89062C5.4583 5.36199 4.29297 6.52995 4.29297 7.9655C4.29297 8.78629 4.6743 9.51912 5.26832 9.99668C4.3843 10.4531 3.56639 11.0491 2.84277 11.774C1.00959 13.612 0 16.0551 0 18.6536V18.6536C0 19.1076 0.368096 19.4757 0.822165 19.4757H1.93818C1.84942 21.9222 3.85273 24.0073 6.30935 24C8.39893 24.004 10.1817 22.4929 10.5938 20.5061C10.7088 19.9517 11.1506 19.4757 11.7168 19.4757H16.2824C16.8489 19.4757 17.291 19.9521 17.4066 20.5067C17.818 22.4802 19.5884 24.0063 21.6906 24C24.1292 24.0047 26.1498 21.9459 26.0618 19.4757H27.1778C27.6319 19.4757 28 19.1076 28 18.6536V18.6536ZM19.1436 3.17861C19.1353 3.04357 19.1906 2.91162 19.2976 2.82886C20.0016 2.28444 20.8611 1.91952 21.8228 1.75166C22.3515 1.65938 22.7992 2.09633 22.7992 2.63302V2.63302C22.7992 3.15634 22.375 3.58058 21.8517 3.58058H19.571C19.3447 3.58058 19.1574 3.40448 19.1436 3.17861V3.17861ZM6.89062 8.92464C6.36295 8.92464 5.93359 8.49432 5.93359 7.96545C5.93359 7.43658 6.36295 7.00626 6.89062 7.00626H12.2199C12.7476 7.00626 13.177 7.43658 13.177 7.96545V7.96545C13.177 8.49519 12.7475 8.92464 12.2178 8.92464H9.70703H6.89062ZM4.0028 12.9367C5.52677 11.4099 7.55256 10.569 9.70703 10.569H13.0602C13.1247 10.569 13.177 10.6213 13.177 10.6858V10.6858C13.177 10.7419 13.137 10.7899 13.0821 10.8016C12.2627 10.9755 11.51 11.3828 10.9038 11.9905C10.0688 12.7824 9.70155 13.8675 9.62341 14.976C9.58633 15.502 10.0327 15.9131 10.5601 15.9131H17.2958C18.6363 15.944 19.8795 14.6873 19.7639 13.2824L19.3087 5.86866C19.2873 5.51972 19.5645 5.22496 19.9141 5.22496V5.22496C20.2222 5.22496 20.4814 5.456 20.5167 5.76212L21.477 14.1039C21.7417 15.9868 20.1146 17.8775 18.1623 17.8315H2.78665C2.19498 17.8315 1.72752 17.3179 1.86594 16.7426C2.20981 15.3137 2.93961 14.0027 4.0028 12.9367ZM6.30935 22.3557C5.09306 22.3579 4.02612 21.524 3.68739 20.3924C3.53812 19.8938 3.98689 19.4758 4.50738 19.4758H5.00763C5.27353 19.4758 5.48909 19.6913 5.48909 19.9572V19.9572C5.48909 20.2231 5.70464 20.4387 5.97054 20.4387L6.64822 20.4387C6.91414 20.4387 7.12972 20.2232 7.12972 19.9573V19.9573C7.12972 19.6913 7.34528 19.4758 7.6112 19.4758H8.11142C8.63191 19.4758 9.08067 19.8938 8.93139 20.3924C8.59261 21.524 7.52568 22.3579 6.30935 22.3557ZM21.6906 22.3557C20.4743 22.3579 19.4074 21.524 19.0686 20.3924C18.9194 19.8938 19.3681 19.4758 19.8886 19.4758H20.3889C20.6548 19.4758 20.8703 19.6913 20.8703 19.9572V19.9572C20.8703 20.2231 21.0859 20.4387 21.3518 20.4387L22.0295 20.4387C22.2954 20.4387 22.511 20.2232 22.511 19.9573V19.9573C22.511 19.6913 22.7265 19.4758 22.9924 19.4758H23.4927C24.0132 19.4758 24.4619 19.8938 24.3126 20.3924C23.9739 21.524 22.9069 22.3579 21.6906 22.3557ZM21.8551 17.8314C21.8627 17.823 21.8705 17.8148 21.878 17.8064C22.7311 16.847 23.1789 15.5955 23.1367 14.3208C24.3591 14.6868 25.3658 15.5587 25.9129 16.6933C26.1842 17.256 25.7086 17.8314 25.0838 17.8314H21.8551Z" fill="white"/>
</svg>
