<svg width="24" height="24" viewBox="0 0 24 24" fill="none" xmlns="http://www.w3.org/2000/svg">
<path d="M19 22H5C3.89543 22 3 21.1046 3 20V6C3 4.89543 3.89543 4 5 4H6.6C6.82091 4 7 3.82091 7 3.6V3C7 2.44772 7.44772 2 8 2V2C8.55228 2 9 2.44772 9 3V3.6C9 3.82091 9.17909 4 9.4 4H14.6C14.8209 4 15 3.82091 15 3.6V3C15 2.44772 15.4477 2 16 2V2C16.5523 2 17 2.44772 17 3V3.6C17 3.82091 17.1791 4 17.4 4H19C20.1046 4 21 4.89543 21 6V20C21 21.1046 20.1046 22 19 22ZM6 10C5.44772 10 5 10.4477 5 11V19C5 19.5523 5.44772 20 6 20H18C18.5523 20 19 19.5523 19 19V11C19 10.4477 18.5523 10 18 10H6ZM6 6C5.44772 6 5 6.44772 5 7V7C5 7.55228 5.44772 8 6 8H18C18.5523 8 19 7.55228 19 7V7C19 6.44772 18.5523 6 18 6H6ZM13 17C13 17.5523 12.5523 18 12 18V18C11.4477 18 11 17.5523 11 17V16H10C9.44772 16 9 15.5523 9 15V15C9 14.4477 9.44772 14 10 14H11V13C11 12.4477 11.4477 12 12 12V12C12.5523 12 13 12.4477 13 13V14H14C14.5523 14 15 14.4477 15 15V15C15 15.5523 14.5523 16 14 16H13V17Z" fill="white"/>
</svg>
