<svg width="24" height="24" viewBox="0 0 24 24" fill="none" xmlns="http://www.w3.org/2000/svg">
<path d="M13 20C13 20.5523 12.5523 21 12 21H10C9.44772 21 9 20.5523 9 20V10C9 9.44772 9.44772 9 10 9H12.4859C12.7698 9 13 9.23016 13 9.51408V9.51408C13 10.0022 13.6813 10.2669 14.0889 9.99824C14.8052 9.52602 15.6476 9.25708 16.525 9.237C19.0056 9.25077 21.0072 11.2694 21 13.75V20C21 20.5523 20.5523 21 20 21H18C17.4477 21 17 20.5523 17 20V14.3212C17 14.2738 16.997 14.2263 16.9888 14.1796C16.7995 13.098 15.8579 12.3036 14.753 12.306C14.2593 12.3216 13.7932 12.5378 13.4624 12.9046C13.1316 13.2715 12.9646 13.7573 13 14.25V20ZM7 20C7 20.5523 6.55228 21 6 21H4C3.44772 21 3 20.5523 3 20V10C3 9.44772 3.44772 9 4 9H6C6.55228 9 7 9.44772 7 10V20ZM5 7C3.89543 7 3 6.10457 3 5C3 3.89543 3.89543 3 5 3C6.10457 3 7 3.89543 7 5C7 5.53043 6.78929 6.03914 6.41421 6.41421C6.03914 6.78929 5.53043 7 5 7Z" fill="white"/>
</svg>
