<svg width="24" height="24" viewBox="0 0 24 24" fill="none" xmlns="http://www.w3.org/2000/svg">
<path fill-rule="evenodd" clip-rule="evenodd" d="M12 24C18.6274 24 24 18.6274 24 12C24 5.37258 18.6274 0 12 0C5.37258 0 0 5.37258 0 12C0 18.6274 5.37258 24 12 24ZM14.9528 7.97542C14.9528 7.7545 15.1319 7.57542 15.3528 7.57542H16.2914C16.5123 7.57542 16.6914 7.39633 16.6914 7.17542V6.4C16.6914 6.17909 16.5123 6 16.2914 6H8.09141C7.87049 6 7.69141 6.17909 7.69141 6.4V7.17542C7.69141 7.39633 7.87049 7.57542 8.09141 7.57542H12.3028C12.5237 7.57542 12.7028 7.7545 12.7028 7.97542V8.61676C12.7028 8.83767 12.5237 9.01676 12.3028 9.01676H8.09141C7.87049 9.01676 7.69141 9.19585 7.69141 9.41676V9.9743C7.69141 10.1952 7.87049 10.3743 8.09141 10.3743H12.2012C12.4468 10.3743 12.6405 10.5976 12.546 10.8242C12.4556 11.041 12.326 11.2151 12.1573 11.3464C11.896 11.5587 11.4585 11.7039 10.8448 11.7821C10.2992 11.8417 9.50644 11.8748 8.46663 11.8814C8.24572 11.8828 8.06641 12.0618 8.06641 12.2827V14.1453C8.06641 15.4302 8.39027 16.3966 9.038 17.0447C9.69709 17.6816 10.646 18 11.8846 18C12.9982 18 13.8562 17.6927 14.4585 17.0782C14.9831 16.5331 15.2965 15.8057 15.3986 14.896C15.424 14.6701 15.2406 14.4804 15.0133 14.4804H13.5971C13.3762 14.4804 13.2008 14.6602 13.1758 14.8797C13.1318 15.2654 13.0196 15.5681 12.8391 15.7877C12.6119 16.0782 12.2596 16.2235 11.7823 16.2235C10.805 16.2235 10.3164 15.6425 10.3164 14.4804V13.8246C10.3164 13.6037 10.4956 13.4254 10.7164 13.418C11.9932 13.3749 12.9565 13.1201 13.6062 12.6536C14.248 12.2 14.6597 11.555 14.8413 10.7185C14.8838 10.5229 15.0509 10.3743 15.2511 10.3743H16.2914C16.5123 10.3743 16.6914 10.1952 16.6914 9.9743V9.41676C16.6914 9.19585 16.5123 9.01676 16.2914 9.01676H15.3528C15.1319 9.01676 14.9528 8.83767 14.9528 8.61676V7.97542Z" fill="white"/>
</svg>
