<svg width="19" height="22" viewBox="0 0 19 22" fill="none" xmlns="http://www.w3.org/2000/svg">
<path d="M18.4933 9.12663C17.25 7.84489 15.6573 6.95697 13.9133 6.5733C12.76 6.28343 11.5802 6.11311 10.3927 6.06481C10.1747 6.05595 9.99996 5.87854 9.99996 5.66043V2.51996C9.97908 1.92107 9.72188 1.35481 9.28462 0.945031C8.84736 0.535254 8.26562 0.315309 7.66662 0.333298C7.06763 0.315309 6.48589 0.535254 6.04863 0.945031C5.61137 1.35481 5.35417 1.92107 5.33329 2.51996V8.70805C5.33329 8.88563 5.11911 8.97513 4.99276 8.85036L4.26662 8.1333C3.79675 7.67239 3.16482 7.41419 2.50662 7.41419C1.84843 7.41419 1.2165 7.67239 0.746624 8.1333C0.511206 8.36074 0.323821 8.63311 0.195567 8.93428C0.0673125 9.23545 0.000796197 9.55929 -4.27152e-05 9.88663C-0.0122664 10.5213 0.227445 11.135 0.666624 11.5933L3.77329 15.2733C3.92317 16.2136 4.24643 17.1178 4.72662 17.94C5.07746 18.5722 5.52764 19.144 6.05996 19.6333V20.9133C6.05786 21.0958 6.12581 21.2722 6.24983 21.4061C6.37384 21.5401 6.54448 21.6214 6.72662 21.6333H16C16.1821 21.6214 16.3527 21.5401 16.4768 21.4061C16.6008 21.2722 16.6687 21.0958 16.6666 20.9133V19.1133C17.9766 17.5535 18.686 15.5768 18.6666 13.54V9.53997C18.6583 9.38631 18.597 9.24028 18.4933 9.12663ZM17.3333 13.5733C17.3759 15.3458 16.7581 17.0708 15.6 18.4133C15.4528 18.5332 15.3573 18.705 15.3333 18.8933V19.9333C15.3333 20.1542 15.1542 20.3333 14.9333 20.3333H7.82662C7.60571 20.3333 7.42662 20.1542 7.42662 19.9333V19.3466C7.42679 19.2374 7.40013 19.1299 7.34898 19.0334C7.29783 18.9369 7.22376 18.8545 7.13329 18.7933C6.63368 18.3837 6.22113 17.8782 5.91996 17.3066C5.49529 16.5875 5.22299 15.7887 5.11996 14.96C5.11281 14.8157 5.05899 14.6777 4.96662 14.5666L1.68662 10.6866C1.57979 10.5812 1.49497 10.4556 1.43707 10.3171C1.37918 10.1787 1.34936 10.0301 1.34936 9.87996C1.34936 9.72987 1.37918 9.58128 1.43707 9.4428C1.49497 9.30432 1.57979 9.17873 1.68662 9.0733C1.90613 8.85711 2.20186 8.73593 2.50996 8.73593C2.81805 8.73593 3.11378 8.85711 3.33329 9.0733L5.33329 11.0733V12.5194C5.33329 12.8168 5.64622 13.0102 5.91218 12.8772L6.44551 12.6105C6.58102 12.5428 6.66662 12.4043 6.66662 12.2528V2.51996C6.69034 2.27591 6.80783 2.05058 6.99435 1.89142C7.18087 1.73225 7.42188 1.65167 7.66662 1.66663C7.91137 1.65167 8.15237 1.73225 8.3389 1.89142C8.52542 2.05058 8.64291 2.27591 8.66662 2.51996V10.0635C8.66662 10.252 8.79824 10.4149 8.98255 10.4546L9.51588 10.5692C9.76496 10.6228 9.99996 10.4329 9.99996 10.1782V7.80127C9.99996 7.57727 10.1839 7.39642 10.4077 7.40649C10.7131 7.42022 11.018 7.4426 11.3221 7.47361C11.5229 7.49409 11.6733 7.66487 11.6733 7.86673V10.678C11.6733 10.866 11.8042 11.0286 11.9878 11.0688L12.2545 11.1271C12.5039 11.1817 12.74 10.9917 12.74 10.7363V8.15222C12.74 7.90057 12.9697 7.71071 13.2153 7.76588C13.3356 7.79292 13.4572 7.82189 13.58 7.8533C13.8367 7.92047 14.0906 7.99792 14.341 8.08543C14.4977 8.14018 14.6 8.28966 14.6 8.45564V11.2913C14.6 11.4793 14.7308 11.6419 14.9145 11.6821L15.1811 11.7404C15.4306 11.795 15.6666 11.605 15.6666 11.3497V9.31661C15.6666 9.01859 15.98 8.82751 16.2332 8.98471C16.5752 9.19701 16.8994 9.43709 17.2025 9.70266C17.2868 9.77642 17.3333 9.88368 17.3333 9.99562V13.5733Z" fill="white"/>
</svg>
