<svg width="112" height="45" viewBox="0 0 112 45" fill="none" xmlns="http://www.w3.org/2000/svg">
<path d="M0 10.1124C0 4.52746 4.53752 0 10.1348 0H30.7365C36.4049 0 41 4.58491 41 10.2407V20.2247H10.1348C4.53752 20.2247 0 15.6973 0 10.1124Z" fill="url(#paint0_linear)"/>
<path d="M41 34.8876C41 40.4725 36.4625 45 30.8652 45L10.2635 45C4.59511 45 1.72252e-06 40.4151 1.22134e-06 34.7593L3.36632e-07 24.7753L30.8652 24.7753C36.4625 24.7753 41 29.3027 41 34.8876Z" fill="url(#paint1_linear)"/>
<path d="M54.5944 15.731C55.1415 16.6874 55.7512 17.4569 56.4233 18.0397C57.1111 18.6224 57.9474 18.9138 58.9322 18.9138C59.8076 18.9138 60.511 18.6822 61.0425 18.219C61.574 17.7557 61.8397 17.1655 61.8397 16.4483C61.8397 15.746 61.6678 15.1856 61.3239 14.7672C60.98 14.3488 60.5267 14.0126 59.9639 13.7586C59.4168 13.4897 58.8306 13.2506 58.2053 13.0414C57.7989 12.9069 57.3456 12.7351 56.8454 12.5259C56.3452 12.3017 55.8684 12.0253 55.4151 11.6966C54.9618 11.3529 54.5866 10.9345 54.2896 10.4414C54.0082 9.94827 53.8676 9.3431 53.8676 8.62586C53.8676 7.84885 54.0708 7.15402 54.4772 6.54138C54.8836 5.92873 55.4464 5.45057 56.1654 5.1069C56.8845 4.74828 57.7051 4.56897 58.6274 4.56897C59.5184 4.56897 60.2922 4.73333 60.9487 5.06207C61.6209 5.37586 62.1914 5.78678 62.6604 6.29483C63.1293 6.78793 63.4967 7.31092 63.7624 7.86379L62.0507 8.80517C61.8475 8.41667 61.5896 8.03563 61.277 7.66207C60.9643 7.28851 60.5814 6.98218 60.128 6.7431C59.6904 6.50402 59.1511 6.38448 58.5102 6.38448C57.6192 6.38448 56.9704 6.59368 56.564 7.01207C56.1576 7.41552 55.9544 7.87126 55.9544 8.37931C55.9544 9.03678 56.2279 9.61207 56.7751 10.1052C57.3222 10.5983 58.3148 11.0839 59.7529 11.5621C60.1906 11.7115 60.6517 11.9057 61.1363 12.1448C61.6209 12.3839 62.0664 12.6902 62.4728 13.0638C62.8949 13.4224 63.2387 13.8632 63.5045 14.3862C63.7702 14.8943 63.9031 15.5069 63.9031 16.2241C63.9031 17.1356 63.6608 17.9276 63.1762 18.6C62.7073 19.2724 62.0898 19.7954 61.3239 20.169C60.5579 20.5276 59.7373 20.7069 58.8619 20.7069C57.9709 20.7069 57.1424 20.5276 56.3764 20.169C55.6261 19.7954 54.9618 19.3098 54.3834 18.7121C53.8207 18.0994 53.3595 17.4494 53 16.7621L54.5944 15.731Z" fill="#141414"/>
<path d="M67.2761 12.5483L66.3616 11.2259C66.768 10.942 67.323 10.658 68.0264 10.3741C68.7454 10.0902 69.6052 9.94827 70.6056 9.94827C71.8561 9.94827 72.8722 10.2247 73.6538 10.7776C74.4354 11.3155 74.8262 12.0851 74.8262 13.0862V20.4828H72.9504V19.0931C72.6065 19.631 72.0906 20.0345 71.4028 20.3034C70.715 20.5724 70.0429 20.7069 69.3863 20.7069C68.7298 20.7069 68.1124 20.5799 67.534 20.3259C66.9712 20.0569 66.5179 19.6759 66.174 19.1828C65.8301 18.6897 65.6582 18.092 65.6582 17.3897C65.6582 16.3885 66.0255 15.5891 66.7602 14.9914C67.5105 14.3787 68.55 14.0724 69.8787 14.0724C70.5978 14.0724 71.2074 14.1546 71.7076 14.319C72.2235 14.4684 72.6377 14.6402 72.9504 14.8345V13.3328C72.9504 12.6305 72.7081 12.1523 72.2235 11.8983C71.7545 11.6443 71.184 11.5172 70.5118 11.5172C69.699 11.5172 69.019 11.6443 68.4719 11.8983C67.9248 12.1523 67.5262 12.369 67.2761 12.5483ZM67.5574 17.3C67.5574 17.8977 67.7685 18.3609 68.1905 18.6897C68.6282 19.0034 69.1909 19.1603 69.8787 19.1603C70.7385 19.1603 71.4653 18.9138 72.0594 18.4207C72.6534 17.9276 72.9504 17.2701 72.9504 16.4483V16.0672C72.5127 15.858 72.0672 15.7086 71.6138 15.619C71.1605 15.5293 70.6838 15.4845 70.1835 15.4845C69.2769 15.4845 68.6126 15.6488 68.1905 15.9776C67.7685 16.2914 67.5574 16.7322 67.5574 17.3Z" fill="#141414"/>
<path d="M78.002 3H79.8778V20.4828H78.002V3Z" fill="#141414"/>
<path d="M83.9687 12.5483L83.0542 11.2259C83.4606 10.942 84.0156 10.658 84.719 10.3741C85.4381 10.0902 86.2978 9.94827 87.2982 9.94827C88.5488 9.94827 89.5648 10.2247 90.3464 10.7776C91.128 11.3155 91.5188 12.0851 91.5188 13.0862V20.4828H89.643V19.0931C89.2991 19.631 88.7832 20.0345 88.0954 20.3034C87.4076 20.5724 86.7355 20.7069 86.079 20.7069C85.4224 20.7069 84.805 20.5799 84.2266 20.3259C83.6639 20.0569 83.2105 19.6759 82.8666 19.1828C82.5227 18.6897 82.3508 18.092 82.3508 17.3897C82.3508 16.3885 82.7181 15.5891 83.4528 14.9914C84.2032 14.3787 85.2427 14.0724 86.5714 14.0724C87.2904 14.0724 87.9 14.1546 88.4003 14.319C88.9161 14.4684 89.3303 14.6402 89.643 14.8345V13.3328C89.643 12.6305 89.4007 12.1523 88.9161 11.8983C88.4472 11.6443 87.8766 11.5172 87.2044 11.5172C86.3916 11.5172 85.7116 11.6443 85.1645 11.8983C84.6174 12.1523 84.2188 12.369 83.9687 12.5483ZM84.25 17.3C84.25 17.8977 84.4611 18.3609 84.8831 18.6897C85.3208 19.0034 85.8836 19.1603 86.5714 19.1603C87.4311 19.1603 88.158 18.9138 88.752 18.4207C89.346 17.9276 89.643 17.2701 89.643 16.4483V16.0672C89.2053 15.858 88.7598 15.7086 88.3065 15.619C87.8532 15.5293 87.3764 15.4845 86.8762 15.4845C85.9695 15.4845 85.3052 15.6488 84.8831 15.9776C84.4611 16.2914 84.25 16.7322 84.25 17.3Z" fill="#141414"/>
<path d="M99.8296 12.1448C99.5795 11.9655 99.3529 11.8385 99.1497 11.7638C98.9465 11.6741 98.6885 11.6293 98.3759 11.6293C97.6725 11.6293 97.1957 11.8759 96.9456 12.369C96.6955 12.8471 96.5704 13.4598 96.5704 14.2069V20.4828H94.6946V10.1724H96.5704V11.3603C96.8674 10.927 97.2192 10.5833 97.6256 10.3293C98.032 10.0753 98.4384 9.94827 98.8448 9.94827C99.2356 9.94827 99.5952 10.0006 99.9234 10.1052C100.267 10.1948 100.58 10.3816 100.861 10.6655L99.8296 12.1448Z" fill="#141414"/>
<path d="M112 10.1724L104.966 25.4138H102.855L105.81 19.0259L101.683 10.1724H103.911L106.935 17.2776L109.89 10.1724H112Z" fill="#141414"/>
<path d="M64.0203 37.181C64.0203 38.2121 63.7702 39.0713 63.27 39.7586C62.7854 40.431 62.1211 40.9391 61.277 41.2828C60.4485 41.6115 59.5028 41.7759 58.4398 41.7759H53.9848V26.0862H58.2053C59.6747 26.0862 60.8549 26.4075 61.7459 27.05C62.6369 27.6925 63.0824 28.6787 63.0824 30.0086C63.0824 30.8155 62.8401 31.4954 62.3556 32.0483C61.871 32.5862 61.2066 32.9747 60.3625 33.2138C61.4411 33.423 62.3165 33.8563 62.9886 34.5138C63.6764 35.1563 64.0203 36.0454 64.0203 37.181ZM58.2053 27.7672H55.9778V32.4293H58.2053C59.0338 32.4293 59.7216 32.2276 60.2687 31.8241C60.8158 31.4207 61.0894 30.8529 61.0894 30.1207C61.0894 29.3736 60.8158 28.7983 60.2687 28.3948C59.7216 27.9764 59.0338 27.7672 58.2053 27.7672ZM55.9778 40.0948H58.4398C59.5028 40.0948 60.3625 39.8333 61.0191 39.3103C61.6912 38.7724 62.0273 38.0253 62.0273 37.069C62.0273 36.0977 61.6912 35.358 61.0191 34.85C60.3625 34.342 59.5028 34.0879 58.4398 34.0879H55.9778V40.0948Z" fill="#141414"/>
<path d="M66.0044 36.6207C66.0044 35.5747 66.2467 34.6483 66.7313 33.8414C67.2315 33.0345 67.9036 32.3994 68.7478 31.9362C69.5919 31.473 70.5376 31.2414 71.5849 31.2414C72.6479 31.2414 73.5936 31.473 74.4221 31.9362C75.2662 32.3994 75.9305 33.0345 76.4151 33.8414C76.9153 34.6483 77.1654 35.5747 77.1654 36.6207C77.1654 37.6517 76.9153 38.5782 76.4151 39.4C75.9305 40.2069 75.2662 40.842 74.4221 41.3052C73.5936 41.7684 72.6479 42 71.5849 42C70.5376 42 69.5919 41.7684 68.7478 41.3052C67.9036 40.842 67.2315 40.2069 66.7313 39.4C66.2467 38.5782 66.0044 37.6517 66.0044 36.6207ZM67.9036 36.6207C67.9036 37.3379 68.06 37.973 68.3726 38.5259C68.7009 39.0787 69.1385 39.5195 69.6857 39.8483C70.2484 40.1621 70.8815 40.319 71.5849 40.319C72.2883 40.319 72.9136 40.1621 73.4607 39.8483C74.0234 39.5195 74.4611 39.0787 74.7738 38.5259C75.102 37.973 75.2662 37.3379 75.2662 36.6207C75.2662 35.9034 75.102 35.2684 74.7738 34.7155C74.4611 34.1477 74.0234 33.7069 73.4607 33.3931C72.9136 33.0793 72.2883 32.9224 71.5849 32.9224C70.8815 32.9224 70.2484 33.0793 69.6857 33.3931C69.1385 33.7069 68.7009 34.1477 68.3726 34.7155C68.06 35.2684 67.9036 35.9034 67.9036 36.6207Z" fill="#141414"/>
<path d="M78.8044 36.6207C78.8044 35.5747 79.0467 34.6483 79.5312 33.8414C80.0314 33.0345 80.7036 32.3994 81.5477 31.9362C82.3918 31.473 83.3375 31.2414 84.3849 31.2414C85.4478 31.2414 86.3935 31.473 87.222 31.9362C88.0661 32.3994 88.7305 33.0345 89.2151 33.8414C89.7153 34.6483 89.9654 35.5747 89.9654 36.6207C89.9654 37.6517 89.7153 38.5782 89.2151 39.4C88.7305 40.2069 88.0661 40.842 87.222 41.3052C86.3935 41.7684 85.4478 42 84.3849 42C83.3375 42 82.3918 41.7684 81.5477 41.3052C80.7036 40.842 80.0314 40.2069 79.5312 39.4C79.0467 38.5782 78.8044 37.6517 78.8044 36.6207ZM80.7036 36.6207C80.7036 37.3379 80.8599 37.973 81.1726 38.5259C81.5008 39.0787 81.9385 39.5195 82.4856 39.8483C83.0484 40.1621 83.6814 40.319 84.3849 40.319C85.0883 40.319 85.7136 40.1621 86.2607 39.8483C86.8234 39.5195 87.2611 39.0787 87.5737 38.5259C87.902 37.973 88.0661 37.3379 88.0661 36.6207C88.0661 35.9034 87.902 35.2684 87.5737 34.7155C87.2611 34.1477 86.8234 33.7069 86.2607 33.3931C85.7136 33.0793 85.0883 32.9224 84.3849 32.9224C83.6814 32.9224 83.0484 33.0793 82.4856 33.3931C81.9385 33.7069 81.5008 34.1477 81.1726 34.7155C80.8599 35.2684 80.7036 35.9034 80.7036 36.6207Z" fill="#141414"/>
<path d="M98.2869 31.4655H100.632L95.9421 35.7241L101.101 41.7759H98.7558L94.3008 36.5534V41.7759H92.425V24.2931H94.3008V35.0741L98.2869 31.4655Z" fill="#141414"/>
<defs>
<linearGradient id="paint0_linear" x1="1.44792e-06" y1="34.8876" x2="41" y2="34.8876" gradientUnits="userSpaceOnUse">
<stop stop-color="#157EF8"/>
<stop offset="1" stop-color="#00C2FF"/>
</linearGradient>
<linearGradient id="paint1_linear" x1="1.44792e-06" y1="34.8876" x2="41" y2="34.8876" gradientUnits="userSpaceOnUse">
<stop stop-color="#157EF8"/>
<stop offset="1" stop-color="#00C2FF"/>
</linearGradient>
</defs>
</svg>
