<svg width="42" height="42" viewBox="0 0 42 42" fill="none" xmlns="http://www.w3.org/2000/svg">
<circle cx="21" cy="21" r="19.25" stroke="#262626" stroke-width="3.5"/>
<path d="M27.0936 13.257C26.397 13.257 25.8324 13.8216 25.8324 14.5182C25.8324 15.2147 26.397 15.7793 27.0936 15.7793H27.6872C28.3432 15.7793 28.875 16.3111 28.875 16.9672C28.875 17.6232 28.3432 18.155 27.6872 18.155H27.2032C26.3668 18.155 25.6866 18.7855 25.4062 19.5735C25.0241 20.6477 24.3806 21.5045 23.4759 22.1439C22.5149 22.8338 21.1619 23.2591 19.417 23.4198C18.4821 23.5059 17.7188 24.2541 17.7188 25.193V25.3408C17.7188 27.3743 18.5739 28.3911 20.2841 28.3911C21.1193 28.3911 21.7358 28.1369 22.1335 27.6285C22.278 27.4526 22.3975 27.2463 22.492 27.0095C22.8401 26.1375 23.5211 25.3408 24.4599 25.3408H24.8963C25.8626 25.3408 26.6598 26.1544 26.4358 27.0943C26.1684 28.2168 25.6789 29.1476 24.9673 29.8869C23.9134 30.9623 22.4119 31.5 20.4631 31.5C18.2955 31.5 16.6349 30.9427 15.4815 29.8282C14.348 28.6941 13.7812 27.0028 13.7812 24.7542V22.4947C13.7812 21.5558 14.5424 20.7974 15.4812 20.7808C16.8177 20.757 17.8718 20.703 18.6435 20.6187C19.7173 20.4818 20.483 20.2277 20.9403 19.8561C21.757 19.2204 20.9001 18.155 19.8651 18.155H14.3128C13.6568 18.155 13.125 17.6232 13.125 16.9672C13.125 16.3111 13.6568 15.7793 14.3128 15.7793H20.6337C21.3302 15.7793 21.8949 15.2147 21.8949 14.5182C21.8949 13.8216 21.3302 13.257 20.6337 13.257H14.5035C13.7422 13.257 13.125 12.6398 13.125 11.8785C13.125 11.1172 13.7422 10.5 14.5035 10.5H27.4965C28.2578 10.5 28.875 11.1172 28.875 11.8785C28.875 12.6398 28.2578 13.257 27.4965 13.257H27.0936Z" fill="#262626"/>
</svg>
