<svg width="41" height="41" viewBox="0 0 41 41" fill="none" xmlns="http://www.w3.org/2000/svg">
<path fill-rule="evenodd" clip-rule="evenodd" d="M12.4375 4.37496C11.7248 4.37496 11.0412 4.65811 10.5372 5.16211C10.0332 5.66611 9.75002 6.34969 9.75002 7.06246C9.75002 7.77523 10.0332 8.45881 10.5372 8.96281C11.0412 9.46681 11.7248 9.74996 12.4375 9.74996H16.6357C17.3366 9.74996 17.8194 9.04675 17.5079 8.41886C17.4266 8.25486 17.3408 8.09015 17.2504 7.9259C16.1235 5.87699 14.5766 4.37496 12.4375 4.37496ZM6.16669 7.06246C6.16669 8.00101 6.37709 8.91786 6.77177 9.74996H2.58335C1.59384 9.74996 0.791687 10.5521 0.791687 11.5416V20.5C0.791687 21.4895 1.59384 22.2916 2.58335 22.2916H4.37502V38.4166C4.37502 39.4061 5.17718 40.2083 6.16669 40.2083H20.5H34.8334C35.8229 40.2083 36.625 39.4061 36.625 38.4166V22.2916H38.4167C39.4062 22.2916 40.2083 21.4895 40.2083 20.5V11.5416C40.2083 10.5521 39.4062 9.74996 38.4167 9.74996H34.2283C34.623 8.91786 34.8334 8.00101 34.8334 7.06246C34.8334 5.39933 34.1727 3.80432 32.9967 2.62831C31.8207 1.4523 30.2257 0.791626 28.5625 0.791626C24.4308 0.791626 21.9465 3.76876 20.6098 6.19902C20.5726 6.26678 20.536 6.33448 20.5 6.40209C20.4641 6.33448 20.4275 6.26678 20.3902 6.19902C19.0536 3.76876 16.5693 0.791626 12.4375 0.791626C10.7744 0.791626 9.17938 1.4523 8.00337 2.62831C6.82736 3.80432 6.16669 5.39933 6.16669 7.06246ZM24.3644 9.74996H28.5625C29.2753 9.74996 29.9589 9.46681 30.4629 8.96281C30.9669 8.45881 31.25 7.77523 31.25 7.06246C31.25 6.34969 30.9669 5.66611 30.4629 5.16211C29.9589 4.65811 29.2753 4.37496 28.5625 4.37496C26.4235 4.37496 24.8765 5.87699 23.7496 7.9259C23.6593 8.09015 23.5735 8.25486 23.4921 8.41886C23.1807 9.04675 23.6635 9.74996 24.3644 9.74996ZM22.2917 13.3333V18.7083H34.8334H35.625C36.1773 18.7083 36.625 18.2606 36.625 17.7083V14.3333C36.625 13.781 36.1773 13.3333 35.625 13.3333H28.5625H22.2917ZM12.4375 13.3333H18.7084V18.7083H6.16669H5.37502C4.82274 18.7083 4.37502 18.2606 4.37502 17.7083V14.3333C4.37502 13.781 4.82274 13.3333 5.37502 13.3333H12.4375ZM22.2917 36.625H32.0417C32.594 36.625 33.0417 36.1772 33.0417 35.625V22.2916H22.2917V36.625ZM18.7084 22.2916V36.625H8.95835C8.40607 36.625 7.95835 36.1772 7.95835 35.625V22.2916H18.7084Z" fill="#262626"/>
</svg>
