<svg width="39" height="37" viewBox="0 0 39 37" fill="none" xmlns="http://www.w3.org/2000/svg">
<mask id="path-1-outside-1" maskUnits="userSpaceOnUse" x="0" y="-0.136719" width="39" height="37" fill="black">
<rect fill="white" y="-0.136719" width="39" height="37"/>
<path d="M34.8989 2.15412C33.1206 1.32175 30.8085 0.863281 28.3887 0.863281C25.9689 0.863281 23.6568 1.32175 21.8785 2.15412C21.7487 2.21487 21.6227 2.27728 21.5006 2.34129C20.3461 2.94629 18.6538 2.94632 17.4994 2.34135C17.3773 2.27735 17.2513 2.21494 17.1215 2.1542C15.3432 1.32175 13.0311 0.863281 10.6113 0.863281C8.19151 0.863281 5.87945 1.32175 4.10113 2.15412C2.10133 3.09021 1 4.42136 1 5.90234V26.0586C1 27.5396 2.10133 28.8707 4.10113 29.8068C5.75329 30.5801 7.86631 31.0302 10.0982 31.0902C10.1023 31.0903 10.1055 31.0936 10.1055 31.0977C10.1055 33.9704 14.1442 36.1367 19.5 36.1367C24.8558 36.1367 28.8945 33.9704 28.8945 31.0977C28.8945 31.0936 28.8977 31.0903 28.9018 31.0902C31.1337 31.0302 33.2467 30.5801 34.8989 29.8068C36.8987 28.8707 38 27.5396 38 26.0586V5.90234C38 4.42136 36.8987 3.09021 34.8989 2.15412ZM36.5547 21.0195C36.5547 21.7365 35.7133 22.5757 34.3589 23.2097C33.396 23.6604 32.2163 23.9942 30.9447 24.1871C29.8299 24.3562 28.8945 23.4386 28.8945 22.311V21.0195C28.8945 21.0155 28.8976 21.0122 28.9016 21.0121C31.1336 20.9521 33.2466 20.5021 34.8989 19.7287C35.6009 19.4001 36.5547 19.8798 36.5547 20.6549L36.5547 21.0195ZM18.7773 10.9414C18.7773 11.6584 17.936 12.4976 16.5816 13.1316C14.9941 13.8746 12.818 14.3008 10.6113 14.3008C8.40462 14.3008 6.22856 13.8746 4.6411 13.1316C3.2867 12.4976 2.44531 11.6584 2.44531 10.9414V10.5768C2.44531 9.80167 3.39911 9.32197 4.10113 9.65057C5.87945 10.4829 8.19151 10.9414 10.6113 10.9414C13.0311 10.9414 15.3432 10.4829 17.1215 9.65057C17.8235 9.32197 18.7773 9.80167 18.7773 10.5768V10.9414ZM4.10113 14.6896C5.87945 15.522 8.19151 15.9805 10.6113 15.9805C13.0311 15.9805 15.3432 15.522 17.1215 14.6896C17.227 14.6402 17.33 14.5898 17.4305 14.5382C17.9987 14.2465 18.7773 14.6331 18.7773 15.2718C18.7773 15.6759 18.4579 16.0062 18.0551 16.0381C16.449 16.1653 14.927 16.5024 13.6648 17.019C12.6856 17.4198 11.8913 17.9106 11.3031 18.4727C10.7988 18.9545 10.1682 19.3479 9.4723 19.302C7.66971 19.1828 5.95407 18.7852 4.6411 18.1706C3.2867 17.5366 2.44531 16.6974 2.44531 15.9805V15.6159C2.44531 14.8407 3.39911 14.361 4.10113 14.6896ZM2.44531 20.6549C2.44531 19.8798 3.39911 19.4001 4.10113 19.7287C5.75337 20.502 7.86645 20.952 10.0985 21.0121C10.1025 21.0122 10.1055 21.0155 10.1055 21.0195V22.311C10.1055 23.4386 9.17019 24.3562 8.05537 24.1871C6.78373 23.9942 5.60412 23.6604 4.64118 23.2097C3.2867 22.5757 2.44531 21.7365 2.44531 21.0195V20.6549ZM11.6272 20.6069C12.1628 19.1584 15.254 17.6602 19.5 17.6602C23.746 17.6602 26.8372 19.1584 27.3722 20.6052C27.4241 20.7464 27.4492 20.8819 27.4492 21.0195C27.4492 21.7579 26.6659 22.5781 25.3539 23.2135C23.8019 23.965 21.723 24.3789 19.5 24.3789C17.277 24.3789 15.1981 23.965 13.6461 23.2135C12.3341 22.5781 11.5508 21.7579 11.5508 21.0195C11.5508 20.8819 11.576 20.7464 11.6272 20.6069ZM36.5547 15.9805C36.5547 16.6974 35.7133 17.5366 34.3589 18.1706C33.046 18.7852 31.3305 19.1828 29.528 19.3019C28.8321 19.3479 28.2014 18.9544 27.697 18.4726C27.1089 17.9107 26.3145 17.4198 25.3352 17.019C24.073 16.5023 22.551 16.1653 20.9449 16.0381C20.5421 16.0062 20.2227 15.6759 20.2227 15.2718C20.2227 14.6331 21.0013 14.2465 21.5695 14.5382C21.67 14.5898 21.773 14.6402 21.8785 14.6896C23.6568 15.522 25.9689 15.9805 28.3887 15.9805C30.8085 15.9805 33.1206 15.522 34.8989 14.6896C35.6009 14.361 36.5547 14.8407 36.5547 15.6159V15.9805ZM36.5547 10.9414C36.5547 11.6584 35.7133 12.4976 34.3589 13.1316C32.7714 13.8746 30.5954 14.3008 28.3887 14.3008C26.182 14.3008 24.0059 13.8746 22.4184 13.1316C21.064 12.4976 20.2227 11.6584 20.2227 10.9414V10.5768C20.2227 9.80167 21.1765 9.32197 21.8785 9.65057C23.6568 10.4829 25.9689 10.9414 28.3887 10.9414C30.8085 10.9414 33.1206 10.4829 34.8989 9.65057C35.6009 9.32197 36.5547 9.80167 36.5547 10.5768V10.9414ZM22.4184 3.7122C24.0059 2.96911 26.182 2.54297 28.3887 2.54297C30.5954 2.54297 32.7714 2.96911 34.3589 3.7122C35.7133 4.3462 36.5547 5.18537 36.5547 5.90234C36.5547 6.61932 35.7133 7.45849 34.3589 8.09249C32.7714 8.83558 30.5954 9.26172 28.3887 9.26172C26.182 9.26172 24.0059 8.83558 22.4184 8.09249C21.064 7.45849 20.2227 6.61932 20.2227 5.90234C20.2227 5.18537 21.064 4.3462 22.4184 3.7122ZM4.6411 3.7122C6.22856 2.96911 8.40462 2.54297 10.6113 2.54297C12.818 2.54297 14.9941 2.96911 16.5816 3.7122C17.936 4.3462 18.7773 5.18537 18.7773 5.90234C18.7773 6.61932 17.936 7.45849 16.5816 8.09249C14.9941 8.83558 12.818 9.26172 10.6113 9.26172C8.40462 9.26172 6.22856 8.83558 4.6411 8.09249C3.2867 7.45849 2.44531 6.61932 2.44531 5.90234C2.44531 5.18537 3.2867 4.3462 4.6411 3.7122ZM4.6411 28.2487C3.2867 27.6147 2.44531 26.7756 2.44531 26.0586V25.694C2.44531 24.9189 3.39911 24.4392 4.10113 24.7678C5.34685 25.3508 6.85457 25.7501 8.47772 25.937C9.38013 26.041 10.1055 26.7752 10.1055 27.6836C10.1055 28.6286 9.32243 29.3955 8.38543 29.2728C6.98821 29.0898 5.68688 28.7383 4.6411 28.2487ZM25.3539 33.2916C23.8019 34.0432 21.723 34.457 19.5 34.457C17.277 34.457 15.1981 34.0432 13.6461 33.2916C12.3341 32.6562 11.5508 31.836 11.5508 31.0977V29.5095C11.5508 29.2396 11.8719 29.0862 12.096 29.2368C13.2182 29.9915 14.7451 30.5497 16.5117 30.8511C16.5473 30.8571 16.5826 30.8601 16.6175 30.8601C16.9702 30.8601 17.2788 30.5597 17.3316 30.1421C17.3896 29.6832 17.1164 29.2566 16.7216 29.1892C13.3631 28.6162 11.5508 27.1486 11.5508 26.0586C11.5508 25.1609 12.6699 24.5964 13.4934 24.9537C15.0992 25.6505 17.1755 26.0586 19.5 26.0586C21.8245 26.0586 23.9008 25.6505 25.5066 24.9537C26.3301 24.5964 27.4492 25.1609 27.4492 26.0586C27.4492 27.1486 25.6369 28.6162 22.2784 29.1892C21.8835 29.2566 21.6104 29.6832 21.6684 30.1421C21.7212 30.5597 22.0298 30.8601 22.3825 30.8601C22.4174 30.8601 22.4528 30.8571 22.4883 30.8511C24.2549 30.5497 25.7818 29.9916 26.904 29.2368C27.128 29.0862 27.4492 29.2396 27.4492 29.5095V31.0977C27.4492 31.836 26.6659 32.6562 25.3539 33.2916ZM34.3589 28.2487C33.3131 28.7382 32.0118 29.0898 30.6145 29.2728C29.6775 29.3955 28.8945 28.6285 28.8945 27.6836C28.8945 26.7752 29.6199 26.0409 30.5223 25.937C32.1454 25.75 33.6532 25.3508 34.8989 24.7677C35.6009 24.4391 36.5547 24.9188 36.5547 25.6939V26.0586C36.5547 26.7756 35.7133 27.6147 34.3589 28.2487Z"/>
</mask>
<path d="M34.8989 2.15412C33.1206 1.32175 30.8085 0.863281 28.3887 0.863281C25.9689 0.863281 23.6568 1.32175 21.8785 2.15412C21.7487 2.21487 21.6227 2.27728 21.5006 2.34129C20.3461 2.94629 18.6538 2.94632 17.4994 2.34135C17.3773 2.27735 17.2513 2.21494 17.1215 2.1542C15.3432 1.32175 13.0311 0.863281 10.6113 0.863281C8.19151 0.863281 5.87945 1.32175 4.10113 2.15412C2.10133 3.09021 1 4.42136 1 5.90234V26.0586C1 27.5396 2.10133 28.8707 4.10113 29.8068C5.75329 30.5801 7.86631 31.0302 10.0982 31.0902C10.1023 31.0903 10.1055 31.0936 10.1055 31.0977C10.1055 33.9704 14.1442 36.1367 19.5 36.1367C24.8558 36.1367 28.8945 33.9704 28.8945 31.0977C28.8945 31.0936 28.8977 31.0903 28.9018 31.0902C31.1337 31.0302 33.2467 30.5801 34.8989 29.8068C36.8987 28.8707 38 27.5396 38 26.0586V5.90234C38 4.42136 36.8987 3.09021 34.8989 2.15412ZM36.5547 21.0195C36.5547 21.7365 35.7133 22.5757 34.3589 23.2097C33.396 23.6604 32.2163 23.9942 30.9447 24.1871C29.8299 24.3562 28.8945 23.4386 28.8945 22.311V21.0195C28.8945 21.0155 28.8976 21.0122 28.9016 21.0121C31.1336 20.9521 33.2466 20.5021 34.8989 19.7287C35.6009 19.4001 36.5547 19.8798 36.5547 20.6549L36.5547 21.0195ZM18.7773 10.9414C18.7773 11.6584 17.936 12.4976 16.5816 13.1316C14.9941 13.8746 12.818 14.3008 10.6113 14.3008C8.40462 14.3008 6.22856 13.8746 4.6411 13.1316C3.2867 12.4976 2.44531 11.6584 2.44531 10.9414V10.5768C2.44531 9.80167 3.39911 9.32197 4.10113 9.65057C5.87945 10.4829 8.19151 10.9414 10.6113 10.9414C13.0311 10.9414 15.3432 10.4829 17.1215 9.65057C17.8235 9.32197 18.7773 9.80167 18.7773 10.5768V10.9414ZM4.10113 14.6896C5.87945 15.522 8.19151 15.9805 10.6113 15.9805C13.0311 15.9805 15.3432 15.522 17.1215 14.6896C17.227 14.6402 17.33 14.5898 17.4305 14.5382C17.9987 14.2465 18.7773 14.6331 18.7773 15.2718C18.7773 15.6759 18.4579 16.0062 18.0551 16.0381C16.449 16.1653 14.927 16.5024 13.6648 17.019C12.6856 17.4198 11.8913 17.9106 11.3031 18.4727C10.7988 18.9545 10.1682 19.3479 9.4723 19.302C7.66971 19.1828 5.95407 18.7852 4.6411 18.1706C3.2867 17.5366 2.44531 16.6974 2.44531 15.9805V15.6159C2.44531 14.8407 3.39911 14.361 4.10113 14.6896ZM2.44531 20.6549C2.44531 19.8798 3.39911 19.4001 4.10113 19.7287C5.75337 20.502 7.86645 20.952 10.0985 21.0121C10.1025 21.0122 10.1055 21.0155 10.1055 21.0195V22.311C10.1055 23.4386 9.17019 24.3562 8.05537 24.1871C6.78373 23.9942 5.60412 23.6604 4.64118 23.2097C3.2867 22.5757 2.44531 21.7365 2.44531 21.0195V20.6549ZM11.6272 20.6069C12.1628 19.1584 15.254 17.6602 19.5 17.6602C23.746 17.6602 26.8372 19.1584 27.3722 20.6052C27.4241 20.7464 27.4492 20.8819 27.4492 21.0195C27.4492 21.7579 26.6659 22.5781 25.3539 23.2135C23.8019 23.965 21.723 24.3789 19.5 24.3789C17.277 24.3789 15.1981 23.965 13.6461 23.2135C12.3341 22.5781 11.5508 21.7579 11.5508 21.0195C11.5508 20.8819 11.576 20.7464 11.6272 20.6069ZM36.5547 15.9805C36.5547 16.6974 35.7133 17.5366 34.3589 18.1706C33.046 18.7852 31.3305 19.1828 29.528 19.3019C28.8321 19.3479 28.2014 18.9544 27.697 18.4726C27.1089 17.9107 26.3145 17.4198 25.3352 17.019C24.073 16.5023 22.551 16.1653 20.9449 16.0381C20.5421 16.0062 20.2227 15.6759 20.2227 15.2718C20.2227 14.6331 21.0013 14.2465 21.5695 14.5382C21.67 14.5898 21.773 14.6402 21.8785 14.6896C23.6568 15.522 25.9689 15.9805 28.3887 15.9805C30.8085 15.9805 33.1206 15.522 34.8989 14.6896C35.6009 14.361 36.5547 14.8407 36.5547 15.6159V15.9805ZM36.5547 10.9414C36.5547 11.6584 35.7133 12.4976 34.3589 13.1316C32.7714 13.8746 30.5954 14.3008 28.3887 14.3008C26.182 14.3008 24.0059 13.8746 22.4184 13.1316C21.064 12.4976 20.2227 11.6584 20.2227 10.9414V10.5768C20.2227 9.80167 21.1765 9.32197 21.8785 9.65057C23.6568 10.4829 25.9689 10.9414 28.3887 10.9414C30.8085 10.9414 33.1206 10.4829 34.8989 9.65057C35.6009 9.32197 36.5547 9.80167 36.5547 10.5768V10.9414ZM22.4184 3.7122C24.0059 2.96911 26.182 2.54297 28.3887 2.54297C30.5954 2.54297 32.7714 2.96911 34.3589 3.7122C35.7133 4.3462 36.5547 5.18537 36.5547 5.90234C36.5547 6.61932 35.7133 7.45849 34.3589 8.09249C32.7714 8.83558 30.5954 9.26172 28.3887 9.26172C26.182 9.26172 24.0059 8.83558 22.4184 8.09249C21.064 7.45849 20.2227 6.61932 20.2227 5.90234C20.2227 5.18537 21.064 4.3462 22.4184 3.7122ZM4.6411 3.7122C6.22856 2.96911 8.40462 2.54297 10.6113 2.54297C12.818 2.54297 14.9941 2.96911 16.5816 3.7122C17.936 4.3462 18.7773 5.18537 18.7773 5.90234C18.7773 6.61932 17.936 7.45849 16.5816 8.09249C14.9941 8.83558 12.818 9.26172 10.6113 9.26172C8.40462 9.26172 6.22856 8.83558 4.6411 8.09249C3.2867 7.45849 2.44531 6.61932 2.44531 5.90234C2.44531 5.18537 3.2867 4.3462 4.6411 3.7122ZM4.6411 28.2487C3.2867 27.6147 2.44531 26.7756 2.44531 26.0586V25.694C2.44531 24.9189 3.39911 24.4392 4.10113 24.7678C5.34685 25.3508 6.85457 25.7501 8.47772 25.937C9.38013 26.041 10.1055 26.7752 10.1055 27.6836C10.1055 28.6286 9.32243 29.3955 8.38543 29.2728C6.98821 29.0898 5.68688 28.7383 4.6411 28.2487ZM25.3539 33.2916C23.8019 34.0432 21.723 34.457 19.5 34.457C17.277 34.457 15.1981 34.0432 13.6461 33.2916C12.3341 32.6562 11.5508 31.836 11.5508 31.0977V29.5095C11.5508 29.2396 11.8719 29.0862 12.096 29.2368C13.2182 29.9915 14.7451 30.5497 16.5117 30.8511C16.5473 30.8571 16.5826 30.8601 16.6175 30.8601C16.9702 30.8601 17.2788 30.5597 17.3316 30.1421C17.3896 29.6832 17.1164 29.2566 16.7216 29.1892C13.3631 28.6162 11.5508 27.1486 11.5508 26.0586C11.5508 25.1609 12.6699 24.5964 13.4934 24.9537C15.0992 25.6505 17.1755 26.0586 19.5 26.0586C21.8245 26.0586 23.9008 25.6505 25.5066 24.9537C26.3301 24.5964 27.4492 25.1609 27.4492 26.0586C27.4492 27.1486 25.6369 28.6162 22.2784 29.1892C21.8835 29.2566 21.6104 29.6832 21.6684 30.1421C21.7212 30.5597 22.0298 30.8601 22.3825 30.8601C22.4174 30.8601 22.4528 30.8571 22.4883 30.8511C24.2549 30.5497 25.7818 29.9916 26.904 29.2368C27.128 29.0862 27.4492 29.2396 27.4492 29.5095V31.0977C27.4492 31.836 26.6659 32.6562 25.3539 33.2916ZM34.3589 28.2487C33.3131 28.7382 32.0118 29.0898 30.6145 29.2728C29.6775 29.3955 28.8945 28.6285 28.8945 27.6836C28.8945 26.7752 29.6199 26.0409 30.5223 25.937C32.1454 25.75 33.6532 25.3508 34.8989 24.7677C35.6009 24.4391 36.5547 24.9188 36.5547 25.6939V26.0586C36.5547 26.7756 35.7133 27.6147 34.3589 28.2487Z" fill="#262626"/>
<path d="M34.8989 2.15412C33.1206 1.32175 30.8085 0.863281 28.3887 0.863281C25.9689 0.863281 23.6568 1.32175 21.8785 2.15412C21.7487 2.21487 21.6227 2.27728 21.5006 2.34129C20.3461 2.94629 18.6538 2.94632 17.4994 2.34135C17.3773 2.27735 17.2513 2.21494 17.1215 2.1542C15.3432 1.32175 13.0311 0.863281 10.6113 0.863281C8.19151 0.863281 5.87945 1.32175 4.10113 2.15412C2.10133 3.09021 1 4.42136 1 5.90234V26.0586C1 27.5396 2.10133 28.8707 4.10113 29.8068C5.75329 30.5801 7.86631 31.0302 10.0982 31.0902C10.1023 31.0903 10.1055 31.0936 10.1055 31.0977C10.1055 33.9704 14.1442 36.1367 19.5 36.1367C24.8558 36.1367 28.8945 33.9704 28.8945 31.0977C28.8945 31.0936 28.8977 31.0903 28.9018 31.0902C31.1337 31.0302 33.2467 30.5801 34.8989 29.8068C36.8987 28.8707 38 27.5396 38 26.0586V5.90234C38 4.42136 36.8987 3.09021 34.8989 2.15412ZM36.5547 21.0195C36.5547 21.7365 35.7133 22.5757 34.3589 23.2097C33.396 23.6604 32.2163 23.9942 30.9447 24.1871C29.8299 24.3562 28.8945 23.4386 28.8945 22.311V21.0195C28.8945 21.0155 28.8976 21.0122 28.9016 21.0121C31.1336 20.9521 33.2466 20.5021 34.8989 19.7287C35.6009 19.4001 36.5547 19.8798 36.5547 20.6549L36.5547 21.0195ZM18.7773 10.9414C18.7773 11.6584 17.936 12.4976 16.5816 13.1316C14.9941 13.8746 12.818 14.3008 10.6113 14.3008C8.40462 14.3008 6.22856 13.8746 4.6411 13.1316C3.2867 12.4976 2.44531 11.6584 2.44531 10.9414V10.5768C2.44531 9.80167 3.39911 9.32197 4.10113 9.65057C5.87945 10.4829 8.19151 10.9414 10.6113 10.9414C13.0311 10.9414 15.3432 10.4829 17.1215 9.65057C17.8235 9.32197 18.7773 9.80167 18.7773 10.5768V10.9414ZM4.10113 14.6896C5.87945 15.522 8.19151 15.9805 10.6113 15.9805C13.0311 15.9805 15.3432 15.522 17.1215 14.6896C17.227 14.6402 17.33 14.5898 17.4305 14.5382C17.9987 14.2465 18.7773 14.6331 18.7773 15.2718C18.7773 15.6759 18.4579 16.0062 18.0551 16.0381C16.449 16.1653 14.927 16.5024 13.6648 17.019C12.6856 17.4198 11.8913 17.9106 11.3031 18.4727C10.7988 18.9545 10.1682 19.3479 9.4723 19.302C7.66971 19.1828 5.95407 18.7852 4.6411 18.1706C3.2867 17.5366 2.44531 16.6974 2.44531 15.9805V15.6159C2.44531 14.8407 3.39911 14.361 4.10113 14.6896ZM2.44531 20.6549C2.44531 19.8798 3.39911 19.4001 4.10113 19.7287C5.75337 20.502 7.86645 20.952 10.0985 21.0121C10.1025 21.0122 10.1055 21.0155 10.1055 21.0195V22.311C10.1055 23.4386 9.17019 24.3562 8.05537 24.1871C6.78373 23.9942 5.60412 23.6604 4.64118 23.2097C3.2867 22.5757 2.44531 21.7365 2.44531 21.0195V20.6549ZM11.6272 20.6069C12.1628 19.1584 15.254 17.6602 19.5 17.6602C23.746 17.6602 26.8372 19.1584 27.3722 20.6052C27.4241 20.7464 27.4492 20.8819 27.4492 21.0195C27.4492 21.7579 26.6659 22.5781 25.3539 23.2135C23.8019 23.965 21.723 24.3789 19.5 24.3789C17.277 24.3789 15.1981 23.965 13.6461 23.2135C12.3341 22.5781 11.5508 21.7579 11.5508 21.0195C11.5508 20.8819 11.576 20.7464 11.6272 20.6069ZM36.5547 15.9805C36.5547 16.6974 35.7133 17.5366 34.3589 18.1706C33.046 18.7852 31.3305 19.1828 29.528 19.3019C28.8321 19.3479 28.2014 18.9544 27.697 18.4726C27.1089 17.9107 26.3145 17.4198 25.3352 17.019C24.073 16.5023 22.551 16.1653 20.9449 16.0381C20.5421 16.0062 20.2227 15.6759 20.2227 15.2718C20.2227 14.6331 21.0013 14.2465 21.5695 14.5382C21.67 14.5898 21.773 14.6402 21.8785 14.6896C23.6568 15.522 25.9689 15.9805 28.3887 15.9805C30.8085 15.9805 33.1206 15.522 34.8989 14.6896C35.6009 14.361 36.5547 14.8407 36.5547 15.6159V15.9805ZM36.5547 10.9414C36.5547 11.6584 35.7133 12.4976 34.3589 13.1316C32.7714 13.8746 30.5954 14.3008 28.3887 14.3008C26.182 14.3008 24.0059 13.8746 22.4184 13.1316C21.064 12.4976 20.2227 11.6584 20.2227 10.9414V10.5768C20.2227 9.80167 21.1765 9.32197 21.8785 9.65057C23.6568 10.4829 25.9689 10.9414 28.3887 10.9414C30.8085 10.9414 33.1206 10.4829 34.8989 9.65057C35.6009 9.32197 36.5547 9.80167 36.5547 10.5768V10.9414ZM22.4184 3.7122C24.0059 2.96911 26.182 2.54297 28.3887 2.54297C30.5954 2.54297 32.7714 2.96911 34.3589 3.7122C35.7133 4.3462 36.5547 5.18537 36.5547 5.90234C36.5547 6.61932 35.7133 7.45849 34.3589 8.09249C32.7714 8.83558 30.5954 9.26172 28.3887 9.26172C26.182 9.26172 24.0059 8.83558 22.4184 8.09249C21.064 7.45849 20.2227 6.61932 20.2227 5.90234C20.2227 5.18537 21.064 4.3462 22.4184 3.7122ZM4.6411 3.7122C6.22856 2.96911 8.40462 2.54297 10.6113 2.54297C12.818 2.54297 14.9941 2.96911 16.5816 3.7122C17.936 4.3462 18.7773 5.18537 18.7773 5.90234C18.7773 6.61932 17.936 7.45849 16.5816 8.09249C14.9941 8.83558 12.818 9.26172 10.6113 9.26172C8.40462 9.26172 6.22856 8.83558 4.6411 8.09249C3.2867 7.45849 2.44531 6.61932 2.44531 5.90234C2.44531 5.18537 3.2867 4.3462 4.6411 3.7122ZM4.6411 28.2487C3.2867 27.6147 2.44531 26.7756 2.44531 26.0586V25.694C2.44531 24.9189 3.39911 24.4392 4.10113 24.7678C5.34685 25.3508 6.85457 25.7501 8.47772 25.937C9.38013 26.041 10.1055 26.7752 10.1055 27.6836C10.1055 28.6286 9.32243 29.3955 8.38543 29.2728C6.98821 29.0898 5.68688 28.7383 4.6411 28.2487ZM25.3539 33.2916C23.8019 34.0432 21.723 34.457 19.5 34.457C17.277 34.457 15.1981 34.0432 13.6461 33.2916C12.3341 32.6562 11.5508 31.836 11.5508 31.0977V29.5095C11.5508 29.2396 11.8719 29.0862 12.096 29.2368C13.2182 29.9915 14.7451 30.5497 16.5117 30.8511C16.5473 30.8571 16.5826 30.8601 16.6175 30.8601C16.9702 30.8601 17.2788 30.5597 17.3316 30.1421C17.3896 29.6832 17.1164 29.2566 16.7216 29.1892C13.3631 28.6162 11.5508 27.1486 11.5508 26.0586C11.5508 25.1609 12.6699 24.5964 13.4934 24.9537C15.0992 25.6505 17.1755 26.0586 19.5 26.0586C21.8245 26.0586 23.9008 25.6505 25.5066 24.9537C26.3301 24.5964 27.4492 25.1609 27.4492 26.0586C27.4492 27.1486 25.6369 28.6162 22.2784 29.1892C21.8835 29.2566 21.6104 29.6832 21.6684 30.1421C21.7212 30.5597 22.0298 30.8601 22.3825 30.8601C22.4174 30.8601 22.4528 30.8571 22.4883 30.8511C24.2549 30.5497 25.7818 29.9916 26.904 29.2368C27.128 29.0862 27.4492 29.2396 27.4492 29.5095V31.0977C27.4492 31.836 26.6659 32.6562 25.3539 33.2916ZM34.3589 28.2487C33.3131 28.7382 32.0118 29.0898 30.6145 29.2728C29.6775 29.3955 28.8945 28.6285 28.8945 27.6836C28.8945 26.7752 29.6199 26.0409 30.5223 25.937C32.1454 25.75 33.6532 25.3508 34.8989 24.7677C35.6009 24.4391 36.5547 24.9188 36.5547 25.6939V26.0586C36.5547 26.7756 35.7133 27.6147 34.3589 28.2487Z" stroke="#262626" stroke-width="1.2" mask="url(#path-1-outside-1)"/>
</svg>
