<svg width="24" height="24" viewBox="0 0 24 24" fill="none" xmlns="http://www.w3.org/2000/svg">
<path d="M12 22C7.05667 21.9349 3.06515 17.9433 2.99999 13C3.06515 8.05669 7.05667 4.06517 12 4.00002C16.9433 4.06517 20.9348 8.05669 21 13C20.9348 17.9433 16.9433 21.9349 12 22ZM12 6.00002C8.15516 6.05063 5.05061 9.15518 4.99999 13C5.05061 16.8448 8.15516 19.9494 12 20C15.8448 19.9494 18.9494 16.8448 19 13C18.9494 9.15518 15.8448 6.05063 12 6.00002ZM13 17C13 17.5523 12.5523 18 12 18V18C11.4477 18 11 17.5523 11 17V14.4C11 14.1791 10.8209 14 10.6 14H7.99999C7.44771 14 6.99999 13.5523 6.99999 13V13C6.99999 12.4477 7.44771 12 7.99999 12H10.6C10.8209 12 11 11.8209 11 11.6V9.00002C11 8.44773 11.4477 8.00002 12 8.00002V8.00002C12.5523 8.00002 13 8.44773 13 9.00002V11.6C13 11.8209 13.1791 12 13.4 12H16C16.5523 12 17 12.4477 17 13V13C17 13.5523 16.5523 14 16 14H13.4C13.1791 14 13 14.1791 13 14.4V17ZM20.9976 5.99888C20.608 6.39041 19.9747 6.39167 19.5835 6.00169L17.9897 4.41258C17.5992 4.02331 17.5979 3.39136 17.9866 3.0004V3.0004C18.376 2.60875 19.0094 2.60733 19.4006 2.99722L20.9947 4.58607C21.3854 4.97549 21.3867 5.60784 20.9976 5.99888V5.99888ZM4.4161 5.99807C4.0258 6.38993 3.39033 6.38935 2.99925 5.99827V5.99827C2.60914 5.60816 2.60745 4.97461 2.99698 4.58391L4.57564 3.0005C4.96609 2.60888 5.60108 2.60933 5.99198 3.00051V3.00051C6.38172 3.39052 6.38306 4.02322 5.99396 4.41387L4.4161 5.99807Z" fill="white"/>
</svg>
