<svg width="24" height="24" viewBox="0 0 24 24" fill="none" xmlns="http://www.w3.org/2000/svg">
<path d="M4.41999 20.579C4.13948 20.5785 3.87206 20.4603 3.68299 20.253C3.49044 20.0475 3.39476 19.7695 3.41999 19.489V19.489C3.5783 17.7483 4.34199 16.1183 5.57814 14.8826L13.2149 7.24848C14.1915 6.27225 15.7745 6.27228 16.751 7.24854V7.24854C17.7279 8.22518 17.728 9.80891 16.7511 10.7856L9.11797 18.4174C7.8819 19.6532 6.25173 20.4167 4.51099 20.575V20.575C4.47999 20.578 4.44899 20.579 4.41999 20.579ZM19.227 8.30903C19.2264 8.30958 19.2255 8.30958 19.225 8.30903L17.4578 6.54182C16.4815 5.56549 16.4815 3.98256 17.4578 3.00624L17.811 2.65303C17.9986 2.46525 18.2531 2.35974 18.5185 2.35974C18.7839 2.35974 19.0384 2.46525 19.226 2.65303L21.347 4.77403C21.5348 4.9616 21.6403 5.21612 21.6403 5.48153C21.6403 5.74694 21.5348 6.00146 21.347 6.18903L19.227 8.30903V8.30903Z" fill="white"/>
</svg>
