<svg width="24" height="24" viewBox="0 0 24 24" fill="none" xmlns="http://www.w3.org/2000/svg">
<path d="M20 19.9999H4C2.93052 20.0319 2.03642 19.1933 2 18.1239V5.87494C2.03641 4.80575 2.93068 3.96737 4 3.99994H20C21.0693 3.96737 21.9636 4.80575 22 5.87494V18.1249C21.963 19.1939 21.0691 20.032 20 19.9999ZM5.00069 6.00063C4.44813 6.00025 4 6.44808 4 7.00063V16.9896C4 17.5416 4.4473 17.9892 4.99931 17.9896L18.9993 17.9993C19.5519 17.9996 20 17.5518 20 16.9993V7.01025C20 6.45824 19.5527 6.01063 19.0007 6.01025L5.00069 6.00063ZM13.1514 14.9484C13.3958 15.4825 12.9243 15.9999 12.337 15.9999H7.09274C6.50554 15.9999 6.03404 15.4826 6.2783 14.9487C6.46731 14.5355 6.74361 14.1633 7.093 13.8599C7.79183 13.1667 8.73081 12.7691 9.715 12.7499C10.6992 12.7691 11.6382 13.1667 12.337 13.8599C12.6862 14.1633 12.9624 14.5354 13.1514 14.9484ZM18 13.9999C18 14.5522 17.5523 14.9999 17 14.9999H16C15.4477 14.9999 15 14.5522 15 13.9999V13.9999C15 13.4477 15.4477 12.9999 16 12.9999H17C17.5523 12.9999 18 13.4477 18 13.9999V13.9999ZM9.715 11.9999C9.17907 12.0186 8.65947 11.8138 8.28029 11.4347C7.9011 11.0555 7.69638 10.5359 7.715 9.99994C7.69668 9.4641 7.9015 8.94468 8.28062 8.56556C8.65974 8.18644 9.17916 7.98162 9.715 7.99994C10.2508 7.98162 10.7703 8.18644 11.1494 8.56556C11.5285 8.94468 11.7333 9.4641 11.715 9.99994C11.7336 10.5359 11.5289 11.0555 11.1497 11.4347C10.7705 11.8138 10.2509 12.0186 9.715 11.9999ZM18 9.99994C18 10.5522 17.5523 10.9999 17 10.9999H15C14.4477 10.9999 14 10.5522 14 9.99994V9.99994C14 9.44766 14.4477 8.99994 15 8.99994H17C17.5523 8.99994 18 9.44766 18 9.99994V9.99994Z" fill="white"/>
</svg>
