<svg width="106" height="106" viewBox="0 0 106 106" fill="none" xmlns="http://www.w3.org/2000/svg">
<path d="M53 97.1667C28.6074 97.1667 8.83334 77.3926 8.83334 53C8.83334 28.6075 28.6074 8.83337 53 8.83337C77.3926 8.83337 97.1667 28.6075 97.1667 53C97.1399 77.3815 77.3815 97.1399 53 97.1667ZM30.0643 46.565C27.4214 46.5664 25.047 48.1804 24.0732 50.6373C23.0994 53.0942 23.7234 55.8966 25.6476 57.7082C26.1562 58.19 26.7413 58.584 27.3789 58.8742C27.3234 59.5193 27.3234 60.168 27.3789 60.8131C27.3789 70.7065 38.9285 78.7536 53.1237 78.7536C67.3188 78.7536 78.8728 70.7065 78.8728 60.8131C78.9243 60.1678 78.9243 59.5195 78.8728 58.8742C81.5535 57.5718 82.9714 54.5835 82.2847 51.6834C81.5981 48.7833 78.9909 46.748 76.0108 46.7858H75.7768C74.1946 46.8442 72.6896 47.4843 71.55 48.5834C66.5261 45.1671 60.6198 43.2802 54.5458 43.1509L57.4167 29.3709L66.8595 31.3584C67.1028 33.5979 68.9926 35.2955 71.2453 35.298C71.4061 35.2979 71.5668 35.289 71.7267 35.2715C74.0684 35.0365 75.8145 33.0064 75.6967 30.6558C75.5789 28.3053 73.6385 26.4603 71.285 26.4603C71.118 26.4643 70.9514 26.4776 70.7859 26.5C69.3861 26.6487 68.1409 27.4559 67.4337 28.673L56.6217 26.5C56.5259 26.4795 56.4282 26.4691 56.3302 26.4691C55.6917 26.4767 55.1427 26.9233 55.0052 27.5468L51.7015 42.8859C45.5527 42.9729 39.5643 44.86 34.4765 48.314C33.284 47.1874 31.7047 46.5613 30.0643 46.565ZM53.795 72.981C53.5477 72.981 53.2959 72.981 53.0486 72.981C52.8013 72.981 52.5495 72.981 52.3022 72.981C48.6367 72.9671 45.0737 71.7696 42.1438 69.567C41.9418 69.3232 41.8455 69.0089 41.8762 68.6938C41.9069 68.3787 42.062 68.0889 42.3073 67.8886C42.5209 67.7153 42.7874 67.6202 43.0625 67.6192C43.3378 67.6191 43.6047 67.7143 43.8178 67.8886C46.2937 69.7029 49.2857 70.6764 52.3552 70.6667C52.5701 70.6667 52.7851 70.6667 53 70.6667C53.2606 70.6667 53.5256 70.6667 53.7862 70.6667C56.816 70.6718 59.7705 69.723 62.2308 67.9549C62.4634 67.7175 62.7818 67.5837 63.1142 67.5837C63.4465 67.5837 63.7649 67.7175 63.9975 67.9549C64.4765 68.4499 64.4666 69.2386 63.9754 69.7215V69.5449C61.0439 71.7626 57.4709 72.9671 53.795 72.9766V72.981ZM63.1893 62.1867H63.1186L63.1539 62.0145C61.2112 61.8818 59.6224 60.4154 59.3347 58.4895C59.0471 56.5636 60.138 54.6969 61.9572 54.0024C63.7764 53.3078 65.8338 53.9725 66.9028 55.6C67.9719 57.2276 67.7646 59.3797 66.4046 60.7734C65.6138 61.6366 64.5094 62.1458 63.3394 62.1867H63.1848H63.1893ZM42.7092 61.8334C40.2699 61.8334 38.2925 59.856 38.2925 57.4167C38.2925 54.9775 40.2699 53 42.7092 53C45.1484 53 47.1258 54.9775 47.1258 57.4167C47.1258 59.856 45.1484 61.8334 42.7092 61.8334Z" fill="#EBEBEB"/>
</svg>
