<svg width="107" height="106" viewBox="0 0 107 106" fill="none" xmlns="http://www.w3.org/2000/svg">
<path d="M53.5 97.1711L48.15 97.1446C31.5427 96.9679 21.4803 95.8196 15.8806 90.2723C10.2809 84.7249 9.12623 74.7477 8.94344 58.3044L8.91669 51.6353L8.94344 47.7044C8.81946 40.7801 9.34182 33.8591 10.5039 27.03C11.1234 22.6178 13.1548 18.5187 16.2997 15.3347C22.1713 9.95518 32.5146 8.9261 50.7715 8.83777L58.85 8.85985C76.5095 9.04977 86.4917 10.2953 91.9086 16.5802C97.1605 22.6487 98.0834 33.1604 98.0834 53.0044L98.0611 58.3044C97.8694 75.7989 96.6121 85.6878 90.2634 91.054C84.1377 96.2524 73.5269 97.1711 53.5 97.1711ZM34.1821 30.9211C32.7078 30.9222 31.4555 31.9901 31.2351 33.4342L31.2084 33.8626V50.0541C31.2132 51.5108 32.2874 52.7473 33.7407 52.9691L34.1865 53H36.7813C45.6757 52.9919 53.0212 59.8807 53.5 68.6792V69.5625V72.133C53.5082 73.5893 54.5803 74.8252 56.0324 75.0524L56.4782 75.0834H72.8269C74.2995 75.0801 75.5493 74.0127 75.7694 72.5703L75.8006 72.1286V69.5581C75.8072 48.651 59.0269 31.5305 37.9315 30.9211H36.7813H34.1821Z" fill="#EBEBEB"/>
</svg>
