<svg width="24" height="24" viewBox="0 0 24 24" fill="none" xmlns="http://www.w3.org/2000/svg">
<path d="M18 22H6C4.89543 22 4 21.1046 4 20V4.00002C4 2.89545 4.89543 2.00002 6 2.00002H13C13.009 1.99886 13.018 1.99886 13.027 2.00002H13.033C13.0424 2.00298 13.0522 2.00498 13.062 2.00602C13.1502 2.01167 13.2373 2.02882 13.321 2.05702H13.336H13.351H13.363C13.3815 2.06994 13.3988 2.08432 13.415 2.10002C13.5239 2.14844 13.6232 2.2162 13.708 2.30002L19.708 8.30002C19.7918 8.3848 19.8596 8.48407 19.908 8.59302C19.917 8.61502 19.924 8.63602 19.931 8.65902V8.67302V8.68702C19.9589 8.77041 19.9754 8.8572 19.98 8.94502C19.9809 8.95498 19.9832 8.96475 19.987 8.97402V8.98002C19.9921 8.98617 19.9964 8.99288 20 9.00002V20C20 21.1046 19.1046 22 18 22ZM7 4.00002C6.44772 4.00002 6 4.44773 6 5.00002V19C6 19.5523 6.44772 20 7 20H17C17.5523 20 18 19.5523 18 19V11C18 10.4477 17.5523 10 17 10H13C12.4477 10 12 9.5523 12 9.00002V5.00002C12 4.44773 11.5523 4.00002 11 4.00002H7ZM14.6828 6.09686C14.4309 5.84487 14 6.02334 14 6.3797V7.60002C14 7.82093 14.1791 8.00002 14.4 8.00002H15.6203C15.9767 8.00002 16.1551 7.56916 15.9032 7.31717L14.6828 6.09686ZM13 17C13 17.5523 12.5523 18 12 18V18C11.4477 18 11 17.5523 11 17V16.4C11 16.1791 10.8209 16 10.6 16H10C9.44772 16 9 15.5523 9 15V15C9 14.4477 9.44772 14 10 14H10.6C10.8209 14 11 13.8209 11 13.6V13C11 12.4477 11.4477 12 12 12V12C12.5523 12 13 12.4477 13 13V13.6C13 13.8209 13.1791 14 13.4 14H14C14.5523 14 15 14.4477 15 15V15C15 15.5523 14.5523 16 14 16H13.4C13.1791 16 13 16.1791 13 16.4V17Z" fill="#157EF8"/>
</svg>
