<svg width="26" height="26" viewBox="0 0 26 26" fill="none" xmlns="http://www.w3.org/2000/svg">
<path fill-rule="evenodd" clip-rule="evenodd" d="M7.99987 20.2111C6.51983 19.2222 5.36627 17.8166 4.68508 16.1721C4.0039 14.5275 3.82567 12.7179 4.17293 10.9721C4.5202 9.22627 5.37737 7.62263 6.63604 6.36395C7.02656 5.97343 7.65973 5.97343 8.05025 6.36395C8.44078 6.75448 8.44078 7.38764 8.05025 7.77817C7.07129 8.75713 6.4046 10.0044 6.1345 11.3623C5.86441 12.7201 6.00303 14.1276 6.53284 15.4067C7.06266 16.6858 7.95986 17.779 9.11101 18.5482C10.2622 19.3174 11.6155 19.7279 13 19.7279C14.3845 19.7279 15.7378 19.3174 16.889 18.5482C18.0401 17.779 18.9373 16.6858 19.4672 15.4067C19.997 14.1276 20.1356 12.7201 19.8655 11.3623C19.5954 10.0044 18.9287 8.75713 17.9497 7.77817C17.5592 7.38764 17.5592 6.75448 17.9497 6.36395C18.3403 5.97343 18.9734 5.97343 19.364 6.36395C20.6226 7.62263 21.4798 9.22627 21.8271 10.9721C22.1743 12.7179 21.9961 14.5275 21.3149 16.1721C20.6337 17.8166 19.4802 19.2222 18.0001 20.2111C16.5201 21.2001 14.78 21.7279 13 21.7279C11.22 21.7279 9.47991 21.2001 7.99987 20.2111Z" fill="#157EF8"/>
<path fill-rule="evenodd" clip-rule="evenodd" d="M13 13.4499C12.4477 13.4499 12 13.0021 12 12.4499L12 2.44986C12 1.89757 12.4477 1.44986 13 1.44986V1.44986C13.5523 1.44986 14 1.89757 14 2.44986L14 12.4499C14 13.0021 13.5523 13.4499 13 13.4499V13.4499Z" fill="#157EF8"/>
</svg>
