<svg width="24" height="24" viewBox="0 0 24 24" fill="none" xmlns="http://www.w3.org/2000/svg">
<path d="M17.595 21.006H17.567C13.7253 20.9114 10.0593 19.3775 7.29498 16.708C4.6245 13.9462 3.08967 10.2816 2.99486 6.441C2.9892 5.903 3.20044 5.38536 3.58098 5.005L6.29498 2.293C6.68548 1.90262 7.31848 1.90262 7.70898 2.293L11.709 6.293C12.0994 6.6835 12.0994 7.3165 11.709 7.707L10.5219 8.89182C10.2689 9.14438 10.165 9.51465 10.2837 9.85186C10.5987 10.7464 11.0811 11.5748 11.707 12.292C12.4231 12.9183 13.2507 13.4011 14.1446 13.7164C14.481 13.8351 14.8505 13.732 15.1032 13.4803L16.295 12.293C16.6855 11.9026 17.3185 11.9026 17.709 12.293L21.709 16.293C22.0994 16.6835 22.0994 17.3165 21.709 17.707L18.995 20.42C18.6249 20.7939 18.121 21.0048 17.595 21.006ZM7.00174 4.41677C7.00061 4.41563 6.99908 4.415 6.99748 4.415V4.415C6.99588 4.415 6.99434 4.41564 6.99321 4.41677L5.29738 6.11599C5.10425 6.30951 4.99687 6.57385 5.01241 6.8468C5.19243 10.009 6.50058 13.0075 8.70698 15.293C10.9924 17.4985 13.9902 18.8065 17.1517 18.9874C17.4249 19.0031 17.6896 18.8955 17.8832 18.7021L18.8782 17.7081C19.2694 17.3172 19.2692 16.683 18.8776 16.2925L17.7018 15.1199C17.3112 14.7304 16.679 14.7307 16.2888 15.1206L15.702 15.707C15.517 15.894 15.265 15.9995 15.002 16C14.9317 16 14.8617 15.9927 14.793 15.978C13.1266 15.6094 11.5794 14.8285 10.293 13.707C9.17143 12.4206 8.39059 10.8734 8.02198 9.207C7.95244 8.87577 8.05517 8.53184 8.29498 8.293L8.88014 7.70738C9.27052 7.31671 9.27027 6.68354 8.8796 6.29317L7.00174 4.41677Z" fill="#157EF8"/>
</svg>
