<svg width="24" height="24" viewBox="0 0 24 24" fill="none" xmlns="http://www.w3.org/2000/svg">
<path d="M20 20H4C2.93052 20.032 2.03642 19.1933 2 18.124V5.875C2.03641 4.80581 2.93068 3.96743 4 4H20C21.0693 3.96743 21.9636 4.80581 22 5.875V18.125C21.963 19.1939 21.0691 20.032 20 20ZM5.00069 6.00069C4.44813 6.00031 4 6.44814 4 7.00069V16.9897C4 17.5417 4.4473 17.9893 4.99931 17.9897L18.9993 17.9993C19.5519 17.9997 20 17.5519 20 16.9993V7.01031C20 6.4583 19.5527 6.01069 19.0007 6.01032L5.00069 6.00069ZM13.1514 14.9485C13.3958 15.4825 12.9243 16 12.337 16H7.09274C6.50554 16 6.03404 15.4827 6.2783 14.9487C6.46731 14.5355 6.74361 14.1633 7.093 13.86C7.79183 13.1667 8.73081 12.7692 9.715 12.75C10.6992 12.7692 11.6382 13.1667 12.337 13.86C12.6862 14.1633 12.9624 14.5354 13.1514 14.9485ZM18 14C18 14.5523 17.5523 15 17 15H16C15.4477 15 15 14.5523 15 14V14C15 13.4477 15.4477 13 16 13H17C17.5523 13 18 13.4477 18 14V14ZM9.715 12C9.17907 12.0186 8.65947 11.8139 8.28029 11.4347C7.9011 11.0555 7.69638 10.5359 7.715 10C7.69668 9.46416 7.9015 8.94474 8.28062 8.56562C8.65974 8.1865 9.17916 7.98168 9.715 8C10.2508 7.98168 10.7703 8.1865 11.1494 8.56562C11.5285 8.94474 11.7333 9.46416 11.715 10C11.7336 10.5359 11.5289 11.0555 11.1497 11.4347C10.7705 11.8139 10.2509 12.0186 9.715 12ZM18 10C18 10.5523 17.5523 11 17 11H15C14.4477 11 14 10.5523 14 10V10C14 9.44772 14.4477 9 15 9H17C17.5523 9 18 9.44772 18 10V10Z" fill="#157EF8"/>
</svg>
