<svg width="24" height="24" viewBox="0 0 24 24" fill="none" xmlns="http://www.w3.org/2000/svg">
<path d="M19 22H5C3.89543 22 3 21.1046 3 20V6C3 4.89543 3.89543 4 5 4H6.6C6.82091 4 7 3.82091 7 3.6V3C7 2.44772 7.44772 2 8 2C8.55228 2 9 2.44772 9 3V3.6C9 3.82091 9.17909 4 9.4 4H14.6C14.8209 4 15 3.82091 15 3.6V3C15 2.44772 15.4477 2 16 2C16.5523 2 17 2.44772 17 3V3.6C17 3.82091 17.1791 4 17.4 4H19C20.1046 4 21 4.89543 21 6V20C21 21.1046 20.1046 22 19 22ZM6 10C5.44772 10 5 10.4477 5 11V19C5 19.5523 5.44772 20 6 20H18C18.5523 20 19 19.5523 19 19V11C19 10.4477 18.5523 10 18 10H6ZM6 6C5.44772 6 5 6.44772 5 7C5 7.55228 5.44772 8 6 8H18C18.5523 8 19 7.55228 19 7C19 6.44772 18.5523 6 18 6H6ZM9.70735 18.7066L9.70565 18.7066L8.99961 18.0001C8.60932 17.6095 8.60943 16.9766 8.99986 16.5861L10.1617 15.4243C10.3961 15.1899 10.3961 14.8101 10.1617 14.5757L9 13.414C8.60954 13.0235 8.60953 12.3905 9 12C9.39047 11.6095 10.0235 11.6095 10.414 12L11.5758 13.1618C11.8101 13.3961 12.1899 13.3961 12.4243 13.1619L13.586 12.0007C13.9765 11.6104 14.6094 11.6104 14.9998 12.0008C15.3904 12.3914 15.3903 13.0246 14.9997 13.415L13.8384 14.5757C13.604 14.81 13.604 15.19 13.8384 15.4244L15.0003 16.5863C15.3906 16.9766 15.3906 17.6094 15.0003 17.9997C14.6102 18.3898 13.9777 18.3899 13.5873 18L12.4243 16.8379C12.1899 16.6038 11.8102 16.6038 11.5759 16.8381L9.70735 18.7066Z" fill="white"/>
</svg>
