<svg width="24" height="24" viewBox="0 0 24 24" fill="none" xmlns="http://www.w3.org/2000/svg">
<path d="M12 22C7.05667 21.9348 3.06515 17.9433 2.99999 13C3.06515 8.05666 7.05667 4.06514 12 3.99999C16.9433 4.06514 20.9348 8.05666 21 13C20.9348 17.9433 16.9433 21.9348 12 22ZM12 5.99999C8.15516 6.0506 5.05061 9.15515 4.99999 13C5.05061 16.8448 8.15516 19.9494 12 20C15.8448 19.9494 18.9494 16.8448 19 13C18.9494 9.15515 15.8448 6.0506 12 5.99999ZM13 17C13 17.5523 12.5523 18 12 18C11.4477 18 11 17.5523 11 17V14.4C11 14.1791 10.8209 14 10.6 14H7.99999C7.44771 14 6.99999 13.5523 6.99999 13C6.99999 12.4477 7.44771 12 7.99999 12H10.6C10.8209 12 11 11.8209 11 11.6V8.99999C11 8.4477 11.4477 7.99999 12 7.99999C12.5523 7.99999 13 8.4477 13 8.99999V11.6C13 11.8209 13.1791 12 13.4 12H16C16.5523 12 17 12.4477 17 13C17 13.5523 16.5523 14 16 14H13.4C13.1791 14 13 14.1791 13 14.4V17ZM20.9976 5.99885C20.608 6.39038 19.9747 6.39164 19.5835 6.00166L17.9897 4.41255C17.5992 4.02328 17.5979 3.39133 17.9866 3.00037C18.376 2.60872 19.0094 2.6073 19.4006 2.99719L20.9947 4.58604C21.3854 4.97546 21.3867 5.60781 20.9976 5.99885ZM4.4161 5.99804C4.0258 6.3899 3.39033 6.38932 2.99925 5.99824C2.60914 5.60813 2.60745 4.97458 2.99698 4.58388L4.57564 3.00047C4.96609 2.60884 5.60108 2.6093 5.99198 3.00048C6.38172 3.39049 6.38306 4.02319 5.99396 4.41384L4.4161 5.99804Z" fill="black"/>
</svg>
