<svg width="27" height="25" viewBox="0 0 27 25" fill="none" xmlns="http://www.w3.org/2000/svg">
<path d="M2.11929 1.78717H4.85379V0.791017C4.85379 0.354165 5.20795 0 5.6448 0C6.08166 0 6.43582 0.354165 6.43582 0.791017V1.78717H20.5642V0.791017C20.5642 0.354165 20.9183 0 21.3552 0C21.792 0 22.1462 0.354165 22.1462 0.791017V1.78717H24.8807C26.0493 1.78717 27 2.73792 27 3.90652V22.4425C27 23.6111 26.0493 24.5619 24.8807 24.5619H2.11935C0.950749 24.5619 -2.97918e-07 23.6111 -2.97918e-07 22.4425V3.90652C-5.30324e-05 2.73792 0.950696 1.78717 2.11929 1.78717V1.78717ZM1.58198 22.4425C1.58198 22.7338 1.82804 22.9798 2.11929 22.9798H24.8807C25.1719 22.9798 25.418 22.7338 25.418 22.4425V3.90652C25.418 3.61526 25.1719 3.36921 24.8807 3.36921H22.1462V4.33688C22.1462 4.77374 21.792 5.1279 21.3552 5.1279C20.9183 5.1279 20.5642 4.77374 20.5642 4.33688V3.36921H6.43582V4.33688C6.43582 4.77374 6.08166 5.1279 5.6448 5.1279C5.20795 5.1279 4.85379 4.77374 4.85379 4.33688V3.36921H2.11929C1.82804 3.36921 1.58198 3.61526 1.58198 3.90652V22.4425Z" fill="black"/>
<path d="M4.55397 7.78988C4.86284 7.48101 5.36371 7.48101 5.67263 7.78988L6.44318 8.56043L7.21374 7.78988C7.52261 7.48101 8.02348 7.48101 8.3324 7.78988C8.64132 8.09874 8.64132 8.59962 8.3324 8.90853L7.56184 9.67909L8.3324 10.4496C8.64132 10.7585 8.64132 11.2594 8.3324 11.5683C8.17794 11.7228 7.97549 11.8 7.7731 11.8C7.5707 11.8 7.3682 11.7228 7.21379 11.5683L6.44324 10.7977L5.67268 11.5683C5.51822 11.7228 5.31577 11.8 5.11338 11.8C4.91098 11.8 4.70848 11.7228 4.55408 11.5683C4.24516 11.2594 4.24516 10.7586 4.55408 10.4496L5.32463 9.67909L4.55408 8.90853C4.24505 8.59962 4.24505 8.09874 4.55397 7.78988V7.78988Z" fill="black"/>
<path d="M11.6108 7.78987C11.9196 7.48095 12.4205 7.48095 12.7295 7.78987L13.5 8.56042L14.2706 7.78982C14.5795 7.48095 15.0804 7.48095 15.3893 7.78982C15.6982 8.09868 15.6982 8.59955 15.3893 8.90847L14.6187 9.67903L15.3893 10.4496C15.6982 10.7584 15.6982 11.2593 15.3893 11.5682C15.2348 11.7228 15.0324 11.8 14.83 11.8C14.6276 11.8 14.4251 11.7227 14.2707 11.5682L13.5 10.7977L12.7294 11.5683C12.575 11.7228 12.3725 11.8001 12.1701 11.8001C11.9677 11.8001 11.7652 11.7228 11.6108 11.5683C11.3019 11.2595 11.3019 10.7586 11.6108 10.4497L12.3814 9.67913L11.6108 8.90858C11.3018 8.59961 11.3018 8.09873 11.6108 7.78987V7.78987Z" fill="black"/>
<path d="M18.6677 7.78988C18.9766 7.48101 19.4775 7.48101 19.7864 7.78988L20.557 8.56043L21.3275 7.78988C21.6364 7.48101 22.1372 7.48101 22.4462 7.78988C22.7551 8.09874 22.7551 8.59962 22.4462 8.90853L21.6756 9.67909L22.4462 10.4496C22.7551 10.7585 22.7551 11.2594 22.4462 11.5683C22.2917 11.7228 22.0893 11.8 21.8869 11.8C21.6845 11.8 21.482 11.7228 21.3276 11.5683L20.557 10.7977L19.7864 11.5683C19.632 11.7228 19.4295 11.8 19.2271 11.8C19.0248 11.8 18.8223 11.7228 18.6678 11.5683C18.3589 11.2594 18.3589 10.7586 18.6678 10.4496L19.4384 9.67909L18.6678 8.90853C18.3588 8.59962 18.3588 8.09874 18.6677 7.78988Z" fill="black"/>
<path d="M4.55397 15.7057C4.86284 15.3968 5.36371 15.3968 5.67263 15.7057L6.44318 16.4763L7.21374 15.7057C7.52255 15.3968 8.02343 15.3968 8.3324 15.7057C8.64132 16.0146 8.64132 16.5154 8.3324 16.8243L7.56179 17.595L8.3324 18.3656C8.64132 18.6744 8.64132 19.1753 8.3324 19.4842C8.17794 19.6387 7.97549 19.7159 7.7731 19.7159C7.5707 19.7159 7.3682 19.6387 7.21379 19.4842L6.44324 18.7136L5.67268 19.4842C5.51822 19.6387 5.31577 19.7159 5.11338 19.7159C4.91098 19.7159 4.70848 19.6387 4.55408 19.4842C4.24516 19.1754 4.24516 18.6745 4.55408 18.3656L5.32469 17.595L4.55408 16.8243C4.24505 16.5155 4.24505 16.0146 4.55397 15.7057V15.7057Z" fill="black"/>
<path d="M11.6108 15.7057C11.9197 15.3968 12.4205 15.3968 12.7295 15.7057L13.5 16.4763L14.2706 15.7057C14.5795 15.3968 15.0804 15.3968 15.3893 15.7057C15.6982 16.0146 15.6982 16.5154 15.3893 16.8244L14.6187 17.595L15.3893 18.3656C15.6982 18.6744 15.6982 19.1753 15.3893 19.4842C15.2348 19.6387 15.0324 19.716 14.83 19.716C14.6276 19.716 14.4251 19.6387 14.2707 19.4842L13.5 18.7136L12.7294 19.4842C12.575 19.6387 12.3725 19.716 12.1701 19.716C11.9677 19.716 11.7652 19.6387 11.6108 19.4842C11.3019 19.1754 11.3019 18.6745 11.6108 18.3656L12.3814 17.595L11.6108 16.8244C11.3018 16.5155 11.3018 16.0146 11.6108 15.7057V15.7057Z" fill="black"/>
<path d="M18.6677 15.7057C18.9766 15.3968 19.4775 15.3968 19.7864 15.7057L20.557 16.4763L21.3275 15.7057C21.6363 15.3968 22.1372 15.3968 22.4462 15.7057C22.7551 16.0146 22.7551 16.5154 22.4462 16.8243L21.6756 17.595L22.4462 18.3656C22.7551 18.6744 22.7551 19.1753 22.4462 19.4842C22.2917 19.6387 22.0893 19.7159 21.8869 19.7159C21.6845 19.7159 21.482 19.6387 21.3276 19.4842L20.557 18.7136L19.7864 19.4842C19.632 19.6387 19.4295 19.7159 19.2271 19.7159C19.0248 19.7159 18.8223 19.6387 18.6678 19.4842C18.3589 19.1754 18.3589 18.6745 18.6678 18.3656L19.4385 17.595L18.6678 16.8243C18.3588 16.5155 18.3588 16.0146 18.6677 15.7057Z" fill="black"/>
</svg>
