<svg width="24" height="24" viewBox="0 0 24 24" fill="none" xmlns="http://www.w3.org/2000/svg">
<path d="M17 22H7C5.89543 22 5 21.1046 5 20V7H4C3.44772 7 3 6.55228 3 6C3 5.44772 3.44772 5 4 5H7V4C7 2.89543 7.89543 2 9 2H15C16.1046 2 17 2.89543 17 4V5H20C20.5523 5 21 5.44772 21 6C21 6.55228 20.5523 7 20 7H19V20C19 21.1046 18.1046 22 17 22ZM8 7C7.44772 7 7 7.44772 7 8V19C7 19.5523 7.44772 20 8 20H16C16.5523 20 17 19.5523 17 19V8C17 7.44772 16.5523 7 16 7H8ZM9.5 4C9.22386 4 9 4.22386 9 4.5C9 4.77614 9.22386 5 9.5 5H14.5C14.7761 5 15 4.77614 15 4.5C15 4.22386 14.7761 4 14.5 4H9.5Z" fill="black"/>
</svg>
