<svg width="24" height="24" viewBox="0 0 24 24" fill="none" xmlns="http://www.w3.org/2000/svg">
<path d="M4.41999 20.579C4.13948 20.5785 3.87206 20.4602 3.68299 20.253C3.49044 20.0475 3.39476 19.7695 3.41999 19.489C3.5783 17.7483 4.34199 16.1182 5.57814 14.8825L13.2149 7.24845C14.1915 6.27222 15.7745 6.27225 16.751 7.24851C17.7279 8.22515 17.728 9.80888 16.7511 10.7856L9.11797 18.4174C7.8819 19.6532 6.25173 20.4167 4.51099 20.575C4.47999 20.578 4.44899 20.579 4.41999 20.579ZM19.227 8.309C19.2264 8.30955 19.2255 8.30955 19.225 8.309L17.4578 6.54179C16.4815 5.56546 16.4815 3.98253 17.4578 3.00621L17.811 2.653C17.9986 2.46522 18.2531 2.35971 18.5185 2.35971C18.7839 2.35971 19.0384 2.46522 19.226 2.653L21.347 4.774C21.5348 4.96157 21.6403 5.21609 21.6403 5.4815C21.6403 5.74691 21.5348 6.00143 21.347 6.189L19.227 8.309Z" fill="black"/>
</svg>
