<svg width="24" height="24" viewBox="0 0 24 24" fill="none" xmlns="http://www.w3.org/2000/svg">
<path d="M18 22H6C4.89543 22 4 21.1046 4 20V4C4 2.89543 4.89543 2 6 2H13C13.0109 2.00047 13.0217 2.00249 13.032 2.006C13.0418 2.00902 13.0518 2.01103 13.062 2.012C13.1502 2.01765 13.2373 2.0348 13.321 2.063L13.349 2.072C13.3717 2.07968 13.3937 2.08904 13.415 2.1C13.5239 2.14842 13.6232 2.21618 13.708 2.3L19.708 8.3C19.7918 8.38479 19.8596 8.48406 19.908 8.593C19.918 8.615 19.925 8.638 19.933 8.661L19.942 8.687C19.9699 8.77039 19.9864 8.85718 19.991 8.945C19.9941 8.96333 20.0007 8.98142 20.0001 9V20C20.0001 21.1046 19.1046 22 18 22ZM7 4C6.44772 4 6 4.44772 6 5V19C6 19.5523 6.44772 20 7 20H17C17.5523 20 18 19.5523 18 19V11C18 10.4477 17.5523 10 17 10H13C12.4477 10 12 9.55228 12 9V5C12 4.44772 11.5523 4 11 4H7ZM14.6828 6.09684C14.4309 5.84486 14 6.02332 14 6.37969V7.6C14 7.82091 14.1791 8 14.4 8H15.6203C15.9767 8 16.1551 7.56914 15.9032 7.31716L14.6828 6.09684Z" fill="black"/>
<path fill-rule="evenodd" clip-rule="evenodd" d="M7 15C7 14.4477 7.40294 14 7.9 14H15.1C15.5971 14 16 14.4477 16 15C16 15.5523 15.5971 16 15.1 16H7.9C7.40294 16 7 15.5523 7 15Z" fill="black"/>
<path fill-rule="evenodd" clip-rule="evenodd" d="M7 18C7 17.4477 7.38376 17 7.85714 17H12.1429C12.6162 17 13 17.4477 13 18C13 18.5523 12.6162 19 12.1429 19H7.85714C7.38376 19 7 18.5523 7 18Z" fill="black"/>
</svg>
