<svg width="34" height="22" viewBox="0 0 34 22" fill="none" xmlns="http://www.w3.org/2000/svg">
<path d="M22.5473 9.00337C22.5384 8.95956 22.5254 8.91643 22.5076 8.87467C22.4905 8.8336 22.4699 8.79389 22.4446 8.75693C22.42 8.71927 22.3912 8.68436 22.3597 8.65287C22.3282 8.62138 22.2933 8.59263 22.2557 8.56799C22.2187 8.54334 22.179 8.52212 22.1379 8.50501C22.0962 8.48789 22.053 8.4742 22.0099 8.46599C21.9216 8.44819 21.8305 8.44819 21.7422 8.46599C21.6984 8.4742 21.6553 8.48789 21.6142 8.50501C21.5725 8.52212 21.5328 8.54334 21.4958 8.56799C21.4581 8.59263 21.4232 8.62138 21.3917 8.65287C21.3602 8.68436 21.3315 8.71927 21.3069 8.75693C21.2822 8.79389 21.261 8.8336 21.2439 8.87467C21.2268 8.91643 21.2131 8.95956 21.2049 9.00337C21.196 9.04718 21.1912 9.09236 21.1912 9.13686C21.1912 9.18136 21.196 9.22654 21.2049 9.27035C21.2131 9.31416 21.2268 9.35729 21.2439 9.39836C21.261 9.44012 21.2822 9.47983 21.3069 9.51679C21.3315 9.55444 21.3602 9.58936 21.3917 9.62085C21.4232 9.65234 21.4581 9.68109 21.4958 9.70573C21.5328 9.73038 21.5725 9.7516 21.6142 9.76871C21.6553 9.78583 21.6984 9.79883 21.7422 9.80773C21.786 9.81663 21.8312 9.82142 21.8757 9.82142C21.9202 9.82142 21.9654 9.81663 22.0099 9.80773C22.053 9.79883 22.0962 9.78583 22.1379 9.76871C22.179 9.7516 22.2187 9.73038 22.2557 9.70573C22.2933 9.68109 22.3282 9.65234 22.3597 9.62085C22.3912 9.58936 22.42 9.55444 22.4446 9.51679C22.4699 9.47983 22.4905 9.44012 22.5076 9.39836C22.5254 9.35729 22.5384 9.31416 22.5473 9.27035C22.5562 9.22654 22.5603 9.18136 22.5603 9.13686C22.5603 9.09236 22.5562 9.04718 22.5473 9.00337Z" fill="black"/>
<path d="M32.3326 2.31847H28.2624C27.8843 2.31847 27.5779 2.62495 27.5779 3.00303V3.59409H25.6691C25.291 3.59409 24.9845 3.90057 24.9845 4.27865V4.47567C23.8718 4.37853 23.5059 4.16755 22.484 3.57827C21.6981 3.12509 20.5103 2.44018 18.3713 1.47844C18.3614 1.47392 18.3514 1.46974 18.3412 1.46577C17.6449 1.19181 15.82 0.652784 13.871 1.53608L11.1163 2.5224L8.79435 0.200492C8.52703 -0.0668306 8.09356 -0.0668306 7.82624 0.200492L0.203061 7.8236C-0.0435196 8.07025 -0.0908231 8.4979 0.203061 8.79178L13.2294 21.8182C13.4379 22.0267 13.926 22.0897 14.1976 21.8182L21.1573 14.8586C21.3382 14.8742 21.526 14.8826 21.7206 14.8826C23.5091 14.8826 25.0911 13.6558 25.9962 12.3185H32.3326C32.7107 12.3185 33.0172 12.012 33.0172 11.634V3.00303C33.0172 2.62495 32.7107 2.31847 32.3326 2.31847ZM8.31023 1.65266L9.87049 3.21292C9.4067 3.49975 8.87048 3.65323 8.31023 3.65323C7.74991 3.65323 7.21376 3.49982 6.74997 3.21292L8.31023 1.65266ZM3.21556 9.86799L1.6553 8.30766L3.21556 6.7474C3.50239 7.21119 3.65587 7.74741 3.65587 8.30766C3.65587 8.8679 3.50246 9.40412 3.21556 9.86799ZM13.7136 20.3659L12.1536 18.8059C13.106 18.2182 14.321 18.2182 15.2735 18.8059L13.7136 20.3659ZM16.2598 17.8198C14.7471 16.7224 12.6801 16.7224 11.1673 17.8198L4.20181 10.8542C4.73639 10.1189 5.025 9.23579 5.025 8.30766C5.025 7.37946 4.73646 6.49637 4.20181 5.76114L5.76378 4.19924C6.49901 4.73382 7.3821 5.02243 8.3103 5.02243C9.2385 5.02243 10.1216 4.73382 10.8568 4.19924L12.3375 5.67989C12.018 5.72705 11.7064 5.83234 11.4159 5.99424C10.9252 6.26765 10.5402 6.67709 10.3005 7.17244C9.52828 7.31545 8.81338 7.68929 8.25259 8.25002C6.73114 9.77153 6.73114 12.2471 8.25266 13.7686C9.01335 14.5293 10.0126 14.9097 11.0119 14.9097C12.0112 14.9097 13.0105 14.5294 13.7713 13.7686C14.2662 13.2737 14.613 12.6654 14.7866 12.0025L17.098 12.7869C16.8378 13.9923 17.1043 15.2604 17.8232 16.2564L16.2598 17.8198ZM12.0978 11.0896C12.1038 11.0918 12.1098 11.094 12.1159 11.096L13.4848 11.5606C13.3814 12.0272 13.1475 12.4561 12.8032 12.8005C11.8155 13.7881 10.2084 13.7882 9.22084 12.8005C8.23315 11.8129 8.23315 10.2059 9.22084 9.2182C9.45907 8.97983 9.74022 8.79356 10.0466 8.66726C10.1729 9.71889 10.9301 10.6563 12.0978 11.0896ZM18.8095 15.27C18.5453 14.8394 18.3958 14.3479 18.3722 13.8463C18.7001 14.0834 19.1008 14.3157 19.5795 14.5L18.8095 15.27ZM24.9845 11.361C24.3356 12.4247 23.0773 13.5134 21.7206 13.5134C21.4667 13.5134 21.2289 13.4953 21.0064 13.4631C21.0056 13.463 21.0047 13.4628 21.0038 13.4627C19.5254 13.248 18.7301 12.4077 18.468 12.075C18.454 12.0545 18.3946 11.9767 18.3857 11.9637C18.306 11.8212 18.1752 11.7066 18.0085 11.65L12.5656 9.80268C11.697 9.47669 11.2379 8.73291 11.4483 7.99111C11.4485 7.99063 11.4486 7.99016 11.4488 7.98968C11.449 7.98913 11.4491 7.98851 11.4492 7.98797C11.5471 7.64637 11.7717 7.36303 12.0823 7.19004C12.3907 7.01814 12.7473 6.97549 13.0874 7.06976L19.2206 9.01331C19.5811 9.1277 19.9658 8.92794 20.08 8.56752C20.1942 8.20709 19.9947 7.82237 19.6342 7.70812L14.7564 6.16237L14.7138 6.11979C14.7134 6.11938 14.713 6.1189 14.7125 6.11849L12.1871 3.59313L14.3577 2.81587C14.3651 2.8132 14.3741 2.80985 14.3814 2.8069C14.3832 2.80615 14.3868 2.80478 14.3886 2.80403C14.3979 2.80026 14.407 2.79629 14.4161 2.79212C15.8836 2.11768 17.2784 2.52137 17.8252 2.734C19.8914 3.66371 20.9943 4.2996 21.8 4.76421C22.9202 5.41024 23.46 5.72151 24.9845 5.8474V11.361V11.361ZM27.5779 10.9493H26.3537V4.96322H27.5779V10.9493ZM31.6481 10.9493H28.947V3.6876H31.6481V10.9493Z" fill="black"/>
</svg>
