<svg width="24" height="24" viewBox="0 0 24 24" fill="none" xmlns="http://www.w3.org/2000/svg">
<path d="M19 22H5C3.89543 22 3 21.1046 3 20V6C3 4.89543 3.89543 4 5 4H6.6C6.82091 4 7 3.82091 7 3.6V3C7 2.44772 7.44772 2 8 2C8.55228 2 9 2.44772 9 3V3.6C9 3.82091 9.17909 4 9.4 4H14.6C14.8209 4 15 3.82091 15 3.6V3C15 2.44772 15.4477 2 16 2C16.5523 2 17 2.44772 17 3V3.6C17 3.82091 17.1791 4 17.4 4H19C20.1046 4 21 4.89543 21 6V20C21 21.1046 20.1046 22 19 22ZM6 10C5.44772 10 5 10.4477 5 11V19C5 19.5523 5.44772 20 6 20H18C18.5523 20 19 19.5523 19 19V11C19 10.4477 18.5523 10 18 10H6ZM6 6C5.44772 6 5 6.44772 5 7C5 7.55228 5.44772 8 6 8H18C18.5523 8 19 7.55228 19 7C19 6.44772 18.5523 6 18 6H6ZM17 17.2C17 17.6418 16.6418 18 16.2 18H15.8C15.3582 18 15 17.6418 15 17.2V16.8C15 16.3582 15.3582 16 15.8 16H16.2C16.6418 16 17 16.3582 17 16.8V17.2ZM13 17.2C13 17.6418 12.6418 18 12.2 18H11.8C11.3582 18 11 17.6418 11 17.2V16.8C11 16.3582 11.3582 16 11.8 16H12.2C12.6418 16 13 16.3582 13 16.8V17.2ZM9 17.2C9 17.6418 8.64183 18 8.2 18H7.8C7.35817 18 7 17.6418 7 17.2V16.8C7 16.3582 7.35817 16 7.8 16H8.2C8.64183 16 9 16.3582 9 16.8V17.2ZM17 13.2C17 13.6418 16.6418 14 16.2 14H15.8C15.3582 14 15 13.6418 15 13.2V12.8C15 12.3582 15.3582 12 15.8 12H16.2C16.6418 12 17 12.3582 17 12.8V13.2ZM13 13.2C13 13.6418 12.6418 14 12.2 14H11.8C11.3582 14 11 13.6418 11 13.2V12.8C11 12.3582 11.3582 12 11.8 12H12.2C12.6418 12 13 12.3582 13 12.8V13.2ZM9 13.2C9 13.6418 8.64183 14 8.2 14H7.8C7.35817 14 7 13.6418 7 13.2V12.8C7 12.3582 7.35817 12 7.8 12H8.2C8.64183 12 9 12.3582 9 12.8V13.2Z" fill="black"/>
</svg>
