<svg width="24" height="24" viewBox="0 0 24 24" fill="none" xmlns="http://www.w3.org/2000/svg">
<path d="M18 22H6C4.89543 22 4 21.1046 4 20V3.99999C4 2.89542 4.89543 1.99999 6 1.99999H13C13.009 1.99882 13.018 1.99882 13.027 1.99999H13.033C13.0424 2.00294 13.0522 2.00495 13.062 2.00599C13.1502 2.01164 13.2373 2.02878 13.321 2.05699H13.336H13.351H13.363C13.3815 2.06991 13.3988 2.08429 13.415 2.09999C13.5239 2.14841 13.6232 2.21617 13.708 2.29999L19.708 8.29999C19.7918 8.38477 19.8596 8.48404 19.908 8.59299C19.917 8.61499 19.924 8.63599 19.931 8.65899V8.67299V8.68699C19.9589 8.77038 19.9754 8.85717 19.98 8.94499C19.9809 8.95495 19.9832 8.96472 19.987 8.97399V8.97999C19.9921 8.98614 19.9964 8.99285 20 8.99999V20C20 21.1046 19.1046 22 18 22ZM7 3.99999C6.44772 3.99999 6 4.4477 6 4.99999V19C6 19.5523 6.44772 20 7 20H17C17.5523 20 18 19.5523 18 19V11C18 10.4477 17.5523 9.99999 17 9.99999H13C12.4477 9.99999 12 9.55227 12 8.99999V4.99999C12 4.4477 11.5523 3.99999 11 3.99999H7ZM14.6828 6.09683C14.4309 5.84484 14 6.02331 14 6.37967V7.59999C14 7.8209 14.1791 7.99999 14.4 7.99999H15.6203C15.9767 7.99999 16.1551 7.56913 15.9032 7.31714L14.6828 6.09683ZM13 17C13 17.5523 12.5523 18 12 18C11.4477 18 11 17.5523 11 17V16.4C11 16.1791 10.8209 16 10.6 16H10C9.44772 16 9 15.5523 9 15C9 14.4477 9.44772 14 10 14H10.6C10.8209 14 11 13.8209 11 13.6V13C11 12.4477 11.4477 12 12 12C12.5523 12 13 12.4477 13 13V13.6C13 13.8209 13.1791 14 13.4 14H14C14.5523 14 15 14.4477 15 15C15 15.5523 14.5523 16 14 16H13.4C13.1791 16 13 16.1791 13 16.4V17Z" fill="black"/>
</svg>
