<svg width="24" height="24" viewBox="0 0 24 24" fill="none" xmlns="http://www.w3.org/2000/svg">
<path fill-rule="evenodd" clip-rule="evenodd" d="M19.4142 21.4142C19.0391 21.7893 18.5304 22 18 22H6C4.89543 22 4 21.1046 4 20V4.00002C4 2.89545 4.89543 2.00002 6 2.00002H13C13.009 1.99886 13.018 1.99886 13.027 2.00002C13.031 2.00002 13.0349 2.00066 13.0388 2.00169C13.0464 2.00375 13.0541 2.00519 13.062 2.00602C13.1452 2.01135 13.2274 2.02691 13.3067 2.05233C13.3162 2.05537 13.3261 2.05702 13.336 2.05702H13.351C13.3588 2.05702 13.3665 2.05938 13.3727 2.06404C13.3811 2.07024 13.3892 2.07675 13.397 2.08355C13.4092 2.0941 13.4226 2.10328 13.4372 2.11019C13.5374 2.15776 13.629 2.22192 13.708 2.30002L19.708 8.30002C19.7918 8.3848 19.8596 8.48407 19.908 8.59302C19.917 8.61502 19.924 8.63602 19.931 8.65902L19.941 8.68702C19.9689 8.77041 19.9854 8.8572 19.99 8.94502C19.9908 8.95376 19.9927 8.96235 19.9957 8.97058C19.9965 8.97287 19.997 8.97527 19.997 8.9777L19.9971 8.97985L19.9975 8.98227C19.9989 8.98811 19.9997 8.99404 20 9.00002V20C20 20.5305 19.7893 21.0392 19.4142 21.4142ZM13.6828 4.68286C13.4309 4.43087 13 4.60934 13 4.9657V8.60002C13 8.82093 13.1791 9.00002 13.4 9.00002H17.0343C17.3907 9.00002 17.5691 8.56916 17.3172 8.31717L13.6828 4.68286ZM6 15C6 14.4477 6.44772 14 7 14H15C15.5523 14 16 14.4477 16 15C16 15.5523 15.5523 16 15 16H7C6.44772 16 6 15.5523 6 15ZM7 18C6.44772 18 6 18.4477 6 19C6 19.5523 6.44772 20 7 20H12C12.5523 20 13 19.5523 13 19C13 18.4477 12.5523 18 12 18H7Z" fill="black"/>
</svg>
