<svg width="24" height="24" viewBox="0 0 24 24" fill="none" xmlns="http://www.w3.org/2000/svg">
<path d="M17.595 21.006H17.567C13.7253 20.9115 10.0593 19.3775 7.29498 16.708C4.6245 13.9463 3.08967 10.2816 2.99486 6.44103C2.9892 5.90303 3.20044 5.38539 3.58098 5.00503L6.29498 2.29303C6.68548 1.90265 7.31848 1.90265 7.70898 2.29303L11.709 6.29303C12.0994 6.68353 12.0994 7.31653 11.709 7.70703L10.5219 8.89185C10.2689 9.14441 10.165 9.51468 10.2837 9.85189C10.5987 10.7464 11.0811 11.5748 11.707 12.292C12.4231 12.9183 13.2507 13.4012 14.1446 13.7164C14.481 13.8351 14.8505 13.732 15.1032 13.4803L16.295 12.293C16.6855 11.9026 17.3185 11.9026 17.709 12.293L21.709 16.293C22.0994 16.6835 22.0994 17.3165 21.709 17.707L18.995 20.42C18.6249 20.7939 18.121 21.0048 17.595 21.006ZM7.00174 4.4168C7.00061 4.41567 6.99908 4.41503 6.99748 4.41503C6.99588 4.41503 6.99434 4.41567 6.99321 4.4168L5.29738 6.11603C5.10425 6.30954 4.99687 6.57388 5.0124 6.84683C5.19243 10.009 6.50058 13.0076 8.70698 15.293C10.9924 17.4985 13.9902 18.8065 17.1517 18.9875C17.4249 19.0031 17.6896 18.8956 17.8832 18.7021L18.8782 17.7081C19.2694 17.3173 19.2692 16.6831 18.8776 16.2926L17.7018 15.12C17.3112 14.7304 16.679 14.7307 16.2888 15.1206L15.702 15.707C15.517 15.8941 15.265 15.9995 15.002 16C14.9317 16.0001 14.8617 15.9927 14.793 15.978C13.1266 15.6094 11.5794 14.8286 10.293 13.707C9.17143 12.4206 8.39059 10.8734 8.02198 9.20703C7.95244 8.8758 8.05517 8.53187 8.29498 8.29303L8.88014 7.70741C9.27052 7.31674 9.27027 6.68357 8.8796 6.2932L7.00174 4.4168Z" fill="black"/>
</svg>
