<svg width="24" height="24" viewBox="0 0 24 24" fill="none" xmlns="http://www.w3.org/2000/svg">
<path d="M5.39997 21C5.16125 21.0038 5.09194 20.722 5.26073 20.5531L12.2465 13.5648C12.6371 13.174 13.2707 13.1741 13.6612 13.565L14.6883 14.5933C15.1562 15.0617 15.0479 15.8474 14.4706 16.1718L6.36497 20.726C6.0718 20.8978 5.73969 20.9921 5.39997 21ZM4.23572 20.3352C4.23586 20.3351 4.23591 20.3349 4.23582 20.3347C4.0722 20.0383 3.99077 19.7035 3.99997 19.365V4.66001C3.99812 4.3553 4.35702 4.25913 4.57246 4.47462L11.626 11.5299C12.0165 11.9204 12.0164 12.5535 11.6259 12.944L4.2353 20.3347C4.23502 20.335 4.23539 20.3354 4.23572 20.3352ZM17.0758 14.7053C16.685 14.9251 16.1958 14.858 15.8787 14.5411L14.2817 12.9452C13.8909 12.5547 13.8908 11.9213 14.2816 11.5307L16.171 9.64178C16.488 9.32495 16.977 9.25765 17.3677 9.47709L19.49 10.669C20.0242 10.9081 20.3816 11.4239 20.418 12.008C20.3818 12.5928 20.0239 13.109 19.489 13.348L17.0758 14.7053ZM12.9545 11.614C12.9541 11.614 12.9538 11.6139 12.9536 11.6137L5.21302 3.87399C4.8976 3.55861 4.95892 3.01433 5.40497 3.01401C5.74131 3.02595 6.06944 3.12112 6.35997 3.29101L14.761 8.01267C15.3384 8.33722 15.4465 9.12334 14.978 9.59165L12.9553 11.6137C12.9551 11.6139 12.9548 11.614 12.9545 11.614Z" fill="black"/>
</svg>
