<svg width="24" height="24" viewBox="0 0 24 24" fill="none" xmlns="http://www.w3.org/2000/svg">
<path d="M11.3981 21.009H8.87406C8.74581 21.0162 8.62215 20.9602 8.54306 20.859C8.46289 20.7563 8.43017 20.6243 8.45306 20.496C8.49306 20.255 8.54306 19.937 8.60606 19.533C8.64106 19.311 8.67906 19.07 8.72006 18.806C8.84506 18.006 8.93006 17.469 8.98706 17.118C9.00972 16.9773 9.03672 16.8107 9.06806 16.618V16.598C9.11939 16.2787 9.18206 15.8907 9.25606 15.434L9.35606 14.815V14.81C9.42806 14.3653 9.48472 14.0117 9.52606 13.749C9.53065 13.641 9.57987 13.5397 9.66195 13.4694C9.74404 13.3991 9.85163 13.366 9.95906 13.378H11.4791C12.2083 13.3858 12.9362 13.3148 13.6501 13.166C14.7249 12.9515 15.722 12.4509 16.5361 11.717C17.2494 11.0317 17.7848 10.1829 18.0961 9.24399C18.248 8.80782 18.3657 8.36046 18.4481 7.90599C18.4551 7.86399 18.4631 7.83999 18.4731 7.83199C18.479 7.82428 18.4883 7.81983 18.4981 7.81999H18.5081C18.53 7.82921 18.5508 7.84095 18.5701 7.85499C19.0947 8.25245 19.4458 8.83706 19.5501 9.48699C19.6684 10.1669 19.6548 10.8632 19.5101 11.538C19.3207 12.8439 18.6602 14.0354 17.6531 14.888C16.5405 15.6809 15.1925 16.0742 13.8281 16.004H13.3891C13.2256 16.0026 13.0675 16.0618 12.9451 16.17C12.8181 16.2802 12.7336 16.4312 12.7061 16.597L12.6651 16.791L12.1121 20.269L12.0911 20.42C12.0625 20.5875 11.9744 20.7392 11.8431 20.847C11.7194 20.9534 11.5612 21.011 11.3981 21.009ZM7.82006 19.009H4.85506C4.71357 19.012 4.57818 18.9514 4.48606 18.844C4.39004 18.7385 4.34766 18.5947 4.37106 18.454L6.70206 3.66399C6.73137 3.47424 6.83008 3.30212 6.97906 3.18099C7.12295 3.05691 7.30706 2.98938 7.49706 2.99096H13.5111C13.8408 3.00398 14.1685 3.04784 14.4901 3.12199C14.8733 3.19452 15.2492 3.30162 15.6131 3.44199C16.2754 3.67619 16.8497 4.10839 17.2581 4.67999C17.6453 5.26346 17.8436 5.95195 17.8261 6.65199C17.8091 7.46385 17.6532 8.2668 17.3651 9.02599C16.9057 10.5006 15.7792 11.6731 14.3241 12.191C13.5073 12.4676 12.6514 12.6111 11.7891 12.616C11.7791 12.622 11.3491 12.623 10.8891 12.623L9.98906 12.616C9.39537 12.5554 8.86455 12.9865 8.80206 13.58C8.78906 13.634 8.48506 15.527 7.94706 18.909C7.94708 18.9411 7.93272 18.9715 7.90792 18.9918C7.88312 19.0121 7.85051 19.0203 7.81906 19.014L7.82006 19.009Z" fill="#157EF8"/>
</svg>
