<svg width="23" height="23" viewBox="0 0 23 23" fill="none" xmlns="http://www.w3.org/2000/svg">
<path d="M11.5 17.3398C11.252 17.3398 11.0508 17.5411 11.0508 17.7891C11.0508 18.037 11.252 18.2383 11.5 18.2383C11.748 18.2383 11.9492 18.037 11.9492 17.7891C11.9492 17.5411 11.748 17.3398 11.5 17.3398Z" fill="black"/>
<path d="M21.0723 2.75686C19.9668 2.31163 18.5296 2.06641 17.0254 2.06641C15.5212 2.06641 14.084 2.31163 12.9785 2.75686C12.3253 3.01996 11.8265 3.34151 11.5 3.70233C11.1735 3.34151 10.6747 3.02001 10.0215 2.7569C8.91605 2.31163 7.47882 2.06641 5.97461 2.06641C4.4704 2.06641 3.03317 2.31163 1.92773 2.75686C0.684609 3.25755 0 3.96957 0 4.76172V15.543C0 16.3351 0.684609 17.0471 1.92773 17.5478C2.95586 17.9619 4.27108 18.2027 5.66016 18.2344V18.2383C5.66016 19.7749 8.17075 20.9336 11.5 20.9336C14.8292 20.9336 17.3398 19.7749 17.3398 18.2383V18.2344C18.7289 18.2027 20.0441 17.9619 21.0723 17.5478C22.3154 17.0471 23 16.3351 23 15.543V4.76172C23 3.96957 22.3154 3.25755 21.0723 2.75686ZM22.1016 12.8477C22.1016 13.2312 21.5785 13.68 20.7366 14.0191C19.8254 14.3861 18.602 14.6082 17.3398 14.6401V12.8477C17.3398 12.8464 17.3398 12.8451 17.3398 12.8438C18.7289 12.8121 20.0441 12.5713 21.0723 12.1572C21.4758 11.9947 21.8201 11.8098 22.1016 11.6072L22.1016 12.8477ZM11.0508 7.45703C11.0508 7.84053 10.5278 8.28939 9.68583 8.6285C8.69903 9.02597 7.34634 9.25391 5.97461 9.25391C4.60288 9.25391 3.25019 9.02597 2.26339 8.6285C1.42146 8.28939 0.898438 7.84053 0.898438 7.45703V6.21656C1.17996 6.41916 1.5242 6.60405 1.92773 6.76658C3.03317 7.2118 4.4704 7.45703 5.97461 7.45703C7.47882 7.45703 8.91605 7.2118 10.0215 6.76658C10.425 6.60405 10.7693 6.41916 11.0508 6.21656V7.45703ZM1.92773 9.46189C3.03317 9.90712 4.4704 10.1523 5.97461 10.1523C7.47882 10.1523 8.91605 9.90712 10.0215 9.46189C10.425 9.29937 10.7693 9.11447 11.0508 8.91187V10.1603C9.88865 10.1996 8.77414 10.3904 7.87269 10.7078C6.96855 11.0263 6.31795 11.4509 5.96414 11.9491C4.596 11.9479 3.24767 11.7203 2.26339 11.3238C1.42146 10.9847 0.898438 10.5358 0.898438 10.1523V8.91187C1.17996 9.11447 1.5242 9.29937 1.92773 9.46189ZM0.898438 11.6072C1.17996 11.8098 1.5242 11.9947 1.92773 12.1572C2.9559 12.5713 4.27117 12.8121 5.66029 12.8438C5.66029 12.8451 5.6602 12.8464 5.6602 12.8477V14.6401C4.39803 14.6082 3.17467 14.3861 2.26343 14.0191C1.42146 13.68 0.898438 13.2312 0.898438 12.8477V11.6072ZM6.60612 12.627C6.93904 11.8522 8.86057 11.0508 11.5 11.0508C14.1394 11.0508 16.061 11.8522 16.3935 12.6261C16.4258 12.7016 16.4414 12.774 16.4414 12.8477C16.4414 13.2426 15.9545 13.6813 15.1389 14.0211C14.1742 14.4232 12.8818 14.6445 11.5 14.6445C10.1182 14.6445 8.82585 14.4232 7.8611 14.0211C7.0455 13.6813 6.55859 13.2426 6.55859 12.8477C6.55859 12.774 6.57427 12.7016 6.60612 12.627ZM22.1016 10.1523C22.1016 10.5358 21.5785 10.9847 20.7366 11.3238C19.7524 11.7203 18.4041 11.9479 17.036 11.9491C16.6825 11.4512 16.0318 11.0264 15.1273 10.7078C14.2259 10.3903 13.1113 10.1996 11.9492 10.1603V8.91187C12.2307 9.11447 12.575 9.29937 12.9785 9.46189C14.084 9.90712 15.5212 10.1523 17.0254 10.1523C18.5296 10.1523 19.9668 9.90712 21.0723 9.46189C21.4758 9.29937 21.82 9.11447 22.1016 8.91187V10.1523ZM22.1016 7.45703C22.1016 7.84053 21.5785 8.28939 20.7366 8.6285C19.7498 9.02597 18.3971 9.25391 17.0254 9.25391C15.6537 9.25391 14.301 9.02597 13.3142 8.6285C12.4722 8.28939 11.9492 7.84053 11.9492 7.45703V6.21656C12.2307 6.41916 12.575 6.60405 12.9785 6.76658C14.084 7.2118 15.5212 7.45703 17.0254 7.45703C18.5296 7.45703 19.9668 7.2118 21.0723 6.76658C21.4758 6.60405 21.82 6.41916 22.1016 6.21656V7.45703ZM13.3142 3.59025C14.301 3.19278 15.6537 2.96484 17.0254 2.96484C18.3971 2.96484 19.7498 3.19278 20.7366 3.59025C21.5785 3.92936 22.1016 4.37822 22.1016 4.76172C22.1016 5.14522 21.5785 5.59408 20.7366 5.93319C19.7498 6.33066 18.3971 6.55859 17.0254 6.55859C15.6537 6.55859 14.301 6.33066 13.3142 5.93319C12.4722 5.59408 11.9492 5.14522 11.9492 4.76172C11.9492 4.37822 12.4722 3.92936 13.3142 3.59025ZM2.26339 3.59025C3.25019 3.19278 4.60288 2.96484 5.97461 2.96484C7.34634 2.96484 8.69903 3.19278 9.68583 3.59025C10.5278 3.92936 11.0508 4.37822 11.0508 4.76172C11.0508 5.14522 10.5278 5.59408 9.68583 5.93319C8.69903 6.33066 7.34634 6.55859 5.97461 6.55859C4.60288 6.55859 3.25019 6.33066 2.26339 5.93319C1.42146 5.59408 0.898438 5.14522 0.898438 4.76172C0.898438 4.37822 1.42146 3.92936 2.26339 3.59025ZM2.26339 16.7144C1.42146 16.3753 0.898438 15.9265 0.898438 15.543V14.3025C1.17996 14.5051 1.5242 14.69 1.92773 14.8525C2.95586 15.2666 4.27108 15.5074 5.66016 15.5391V17.3354C4.39799 17.3035 3.17463 17.0815 2.26339 16.7144ZM15.1389 19.4118C14.1742 19.8138 12.8818 20.0352 11.5 20.0352C10.1182 20.0352 8.82585 19.8138 7.8611 19.4118C7.0455 19.0719 6.55859 18.6332 6.55859 18.2383V17.024C6.66034 17.0976 6.77278 17.1708 6.89748 17.2429C7.59508 17.6466 8.54423 17.9452 9.64239 18.1064C9.66454 18.1096 9.68646 18.1112 9.7082 18.1112C9.92742 18.1112 10.1193 17.9505 10.1521 17.7272C10.1881 17.4817 10.0183 17.2535 9.77289 17.2175C7.68514 16.911 6.55859 16.126 6.55859 15.543V14.3247C7.57536 15.0687 9.37012 15.543 11.5 15.543C13.6299 15.543 15.4246 15.0687 16.4414 14.3247V15.543C16.4414 16.126 15.3149 16.911 13.2271 17.2175C12.9817 17.2535 12.8119 17.4817 12.8479 17.7272C12.8807 17.9506 13.0726 18.1112 13.2918 18.1112C13.3135 18.1112 13.3355 18.1096 13.3576 18.1064C14.4557 17.9452 15.4049 17.6467 16.1025 17.2429C16.2272 17.1708 16.3397 17.0976 16.4414 17.024V18.2383C16.4414 18.6332 15.9545 19.0719 15.1389 19.4118ZM20.7366 16.7144C19.8254 17.0815 18.602 17.3035 17.3398 17.3354V15.5391C18.7289 15.5073 20.0441 15.2666 21.0723 14.8525C21.4758 14.6899 21.82 14.505 22.1016 14.3025V15.543C22.1016 15.9265 21.5785 16.3753 20.7366 16.7144Z" fill="black"/>
</svg>
