<svg width="26" height="26" viewBox="0 0 26 26" fill="none" xmlns="http://www.w3.org/2000/svg">
<path fill-rule="evenodd" clip-rule="evenodd" d="M7.99987 20.2112C6.51983 19.2222 5.36627 17.8166 4.68508 16.1721C4.0039 14.5276 3.82567 12.718 4.17293 10.9721C4.5202 9.2263 5.37737 7.62266 6.63604 6.36398C7.02656 5.97346 7.65973 5.97346 8.05025 6.36398C8.44078 6.75451 8.44078 7.38767 8.05025 7.7782C7.07129 8.75716 6.4046 10.0044 6.1345 11.3623C5.86441 12.7202 6.00303 14.1276 6.53284 15.4067C7.06266 16.6858 7.95986 17.7791 9.11101 18.5482C10.2622 19.3174 11.6155 19.7279 13 19.7279C14.3845 19.7279 15.7378 19.3174 16.889 18.5482C18.0401 17.7791 18.9373 16.6858 19.4672 15.4067C19.997 14.1276 20.1356 12.7202 19.8655 11.3623C19.5954 10.0044 18.9287 8.75716 17.9497 7.7782C17.5592 7.38767 17.5592 6.75451 17.9497 6.36398C18.3403 5.97346 18.9734 5.97346 19.364 6.36398C20.6226 7.62266 21.4798 9.2263 21.8271 10.9721C22.1743 12.718 21.9961 14.5276 21.3149 16.1721C20.6337 17.8166 19.4802 19.2222 18.0001 20.2112C16.5201 21.2001 14.78 21.7279 13 21.7279C11.22 21.7279 9.47991 21.2001 7.99987 20.2112Z" fill="black"/>
<path fill-rule="evenodd" clip-rule="evenodd" d="M13 13.4499C12.4477 13.4499 12 13.0022 12 12.4499L12 2.44989C12 1.89761 12.4477 1.44989 13 1.44989C13.5523 1.44989 14 1.89761 14 2.44989L14 12.4499C14 13.0022 13.5523 13.4499 13 13.4499Z" fill="black"/>
</svg>
