<svg width="24" height="24" viewBox="0 0 24 24" fill="none" xmlns="http://www.w3.org/2000/svg">
<path fill-rule="evenodd" clip-rule="evenodd" d="M18 3C16.8954 3 16 3.89543 16 5C16 5.3473 16.0885 5.67393 16.2442 5.95855C16.2544 5.97399 16.2642 5.9898 16.2737 6.00597C16.2831 6.02203 16.2919 6.03823 16.3003 6.05457C16.6532 6.62215 17.2825 7 18 7C19.1046 7 20 6.10457 20 5C20 3.89543 19.1046 3 18 3ZM14.4888 8.20539C14.8828 7.9755 15.3757 8.05305 15.7528 8.3096C16.3933 8.74533 17.1669 9 18 9C20.2091 9 22 7.20914 22 5C22 2.79086 20.2091 1 18 1C15.7909 1 14 2.79086 14 5C14 5.11012 14.0044 5.2192 14.0132 5.32708C14.0499 5.7813 13.8748 6.2481 13.4812 6.47778L9.51115 8.79461C9.11722 9.0245 8.62427 8.94696 8.24715 8.6904C7.60665 8.25467 6.83307 8 6 8C3.79086 8 2 9.79086 2 12C2 14.2091 3.79086 16 6 16C6.83342 16 7.6073 15.7451 8.24796 15.3091C8.62486 15.0525 9.11754 14.9748 9.51147 15.2044L13.481 17.5175C13.8753 17.7472 14.0506 18.2149 14.0134 18.6698C14.0045 18.7787 14 18.8888 14 19C14 21.2091 15.7909 23 18 23C20.2091 23 22 21.2091 22 19C22 16.7909 20.2091 15 18 15C17.1681 15 16.3955 15.254 15.7555 15.6886C15.3787 15.9445 14.8866 16.0218 14.4931 15.7925L10.5196 13.477C10.1257 13.2475 9.95023 12.7805 9.9869 12.3261C9.99558 12.2186 10 12.1098 10 12C10 11.8899 9.99555 11.7808 9.98682 11.6729C9.95006 11.2187 10.1252 10.7519 10.5188 10.5222L14.4888 8.20539ZM7.6997 10.9454C7.70808 10.9618 7.71695 10.978 7.72631 10.994C7.73575 11.0102 7.74557 11.026 7.75576 11.0414C7.91147 11.3261 8 11.6527 8 12C8 12.3473 7.91148 12.6739 7.75576 12.9585C7.74546 12.9742 7.73553 12.9902 7.72599 13.0065C7.71674 13.0224 7.70798 13.0384 7.6997 13.0546C7.3468 13.6221 6.71753 14 6 14C4.89543 14 4 13.1046 4 12C4 10.8954 4.89543 10 6 10C6.71753 10 7.3468 10.3779 7.6997 10.9454ZM16.1761 18.1782C16.2009 18.1232 16.2348 18.073 16.2668 18.0219C16.2727 18.0126 16.2784 18.0031 16.284 17.9935C16.2888 17.9853 16.2934 17.9771 16.2979 17.9689C16.3268 17.916 16.354 17.862 16.3898 17.8135C16.754 17.32 17.3396 17 18 17C19.1046 17 20 17.8954 20 19C20 20.1046 19.1046 21 18 21C16.8954 21 16 20.1046 16 19C16 18.7071 16.063 18.4289 16.1761 18.1782Z" fill="black"/>
</svg>
