<svg width="24" height="24" viewBox="0 0 24 24" fill="none" xmlns="http://www.w3.org/2000/svg">
<path d="M20.9177 6.52683C20.7075 6.5755 20.584 6.27174 20.7409 6.12361C21.1371 5.74939 21.4597 5.30226 21.6899 4.80556C21.7673 4.63847 21.5837 4.48528 21.4199 4.56934C20.7394 4.91846 20.0148 5.17545 19.2651 5.333C19.1979 5.34712 19.1285 5.32437 19.0801 5.2757C17.7444 3.93292 15.681 3.61992 14.0034 4.51764C12.3715 5.39094 11.4902 7.20365 11.7898 9.01047C11.8115 9.14134 11.7093 9.26339 11.577 9.25387C8.32334 9.01973 5.29912 7.49009 3.18254 5.00878C3.09168 4.90228 2.92194 4.91612 2.85995 5.04164C2.01555 6.75125 2.40744 8.80182 3.77813 10.0824C3.92502 10.2196 3.82904 10.4758 3.63185 10.4368C3.21278 10.3538 2.80731 10.2082 2.42936 10.004C2.40806 9.99245 2.38202 10.0078 2.38202 10.032C2.38235 11.7889 3.44713 13.3363 5.01879 13.9929C5.21337 14.0742 5.20414 14.3659 4.99376 14.3805C4.73646 14.3983 4.47774 14.393 4.22073 14.3644C4.0697 14.3476 3.94525 14.4904 4.00302 14.631C4.57883 16.0319 5.84998 17.0226 7.33727 17.2467C7.52321 17.2747 7.59888 17.5195 7.44371 17.6258C6.01102 18.6066 4.31099 19.1338 2.56602 19.131C2.51173 19.1311 2.45745 19.1306 2.40319 19.1297C2.1912 19.126 2.09822 19.4114 2.28428 19.5131C4.06979 20.4885 6.07623 21.0021 8.12002 21C11.3653 21.0223 14.484 19.7429 16.7787 17.448C19.0734 15.1531 20.3526 12.0342 20.33 8.78899C20.33 8.63939 20.3272 8.49043 20.3216 8.34212C20.3191 8.27464 20.3501 8.21028 20.4043 8.17005C21.0229 7.7112 21.5773 7.17292 22.0535 6.56973C22.1776 6.41249 22.0069 6.19966 21.8179 6.26587C21.5227 6.36921 21.2222 6.45633 20.9177 6.52683Z" fill="black"/>
</svg>
