<svg width="24" height="24" viewBox="0 0 24 24" fill="none" xmlns="http://www.w3.org/2000/svg">
<path d="M12.7071 21.2929C12.3166 21.6834 11.6834 21.6834 11.2929 21.2929L9.29289 19.2929C9.10536 19.1054 8.851 19 8.58579 19H5C3.89543 19 3 18.1046 3 17V4C3 2.89543 3.89543 2 5 2H19C20.1046 2 21 2.89543 21 4V17C21 18.1046 20.1046 19 19 19H15.4142C15.149 19 14.8946 19.1054 14.7071 19.2929L12.7071 21.2929ZM6 4C5.44772 4 5 4.44772 5 5V16C5 16.5523 5.44772 17 6 17H9.58579C9.851 17 10.1054 17.1054 10.2929 17.2929L11.7172 18.7172C11.8734 18.8734 12.1266 18.8734 12.2828 18.7172L13.7071 17.2929C13.8946 17.1054 14.149 17 14.4142 17H18C18.5523 17 19 16.5523 19 16V5C19 4.44772 18.5523 4 18 4H6ZM16 14.986H8V14.6C8.11835 12.5051 9.90424 10.8978 12 11C14.0958 10.8978 15.8816 12.5051 16 14.6C16 14.6 16 14.7057 16 14.7734C16 14.8564 16 14.986 16 14.986ZM12 10C11.4641 10.0186 10.9445 9.8139 10.5653 9.43471C10.1861 9.05553 9.98138 8.53593 10 8C9.98168 7.46416 10.1865 6.94474 10.5656 6.56562C10.9447 6.1865 11.4642 5.98168 12 6C12.5358 5.98168 13.0553 6.1865 13.4344 6.56562C13.8135 6.94474 14.0183 7.46416 14 8C14.0186 8.53593 13.8139 9.05553 13.4347 9.43471C13.0555 9.8139 12.5359 10.0186 12 10Z" fill="black"/>
</svg>
