<svg width="24" height="24" viewBox="0 0 24 24" fill="none" xmlns="http://www.w3.org/2000/svg">
<path d="M19.971 21.385C19.9704 21.385 19.9697 21.3848 19.9693 21.3843L17.1044 18.5194C16.8094 18.2245 16.364 18.1478 15.9741 18.296C14.7073 18.7775 13.3593 19.0178 12 19.002C10.3599 19.0224 8.73671 18.6684 7.254 17.967C6.10468 17.4063 5.07264 16.6318 4.213 15.685C3.30049 14.7069 2.5833 13.5634 2.1 12.316L2.09873 12.312C2.03457 12.1106 2.03592 11.8939 2.10259 11.6933L2.105 11.686C2.68797 10.199 3.59204 8.86459 4.74727 7.77531C5.18819 7.35956 5.23939 6.6534 4.81087 6.22489L3.7065 5.12051C3.31635 4.73036 3.31646 4.09777 3.70675 3.70776V3.70776C4.09684 3.31795 4.72905 3.31806 5.119 3.70801L20.6759 19.2649C21.066 19.655 21.0665 20.2874 20.6769 20.6781L19.9727 21.3843C19.9723 21.3848 19.9716 21.385 19.971 21.385V21.385ZM7.62964 9.04387C7.2863 8.70098 6.74185 8.6494 6.37362 8.96542C5.51773 9.69995 4.81407 10.5971 4.3044 11.6062C4.17853 11.8554 4.17742 12.1494 4.30173 12.3993C5.74107 15.2937 8.74248 17.1041 12 17.002C12.5138 17.0062 13.0261 16.9679 13.5317 16.8878C14.2627 16.7721 14.4758 15.8909 13.9525 15.3675L13.7924 15.2074C13.4901 14.9051 13.0313 14.8457 12.6134 14.9359C12.4125 14.9792 12.2069 15.0015 12 15.002C10.3475 14.9916 9.01037 13.6546 9 12.002C9.00022 11.7943 9.02247 11.5879 9.06596 11.3862C9.15612 10.968 9.09652 10.5088 8.79379 10.2065L7.62964 9.04387ZM19.8521 15.6128C19.852 15.6123 19.8518 15.6118 19.8514 15.6114L19.1256 14.8861C18.7516 14.5124 18.7387 13.9154 19.0436 13.4835C19.2874 13.1382 19.5055 12.7752 19.6961 12.3974C19.8216 12.1484 19.8228 11.8549 19.6988 11.6051C18.261 8.70897 15.2583 6.89778 12 7.00201C11.907 7.00201 11.8138 7.00329 11.721 7.00579C11.4311 7.01359 11.1473 6.91014 10.9423 6.70496L10.7987 6.56117C10.2387 6.00054 10.5285 5.0615 11.3197 5.01887C11.5462 5.00667 11.773 5.00104 12 5.00201C13.6401 4.98166 15.2633 5.33564 16.746 6.03701C17.8953 6.59775 18.9274 7.37221 19.787 8.31901C20.6991 9.29598 21.4163 10.4381 21.9 11.684L21.903 11.6936C21.9661 11.8941 21.9643 12.1094 21.898 12.3089L21.895 12.318C21.4274 13.5345 20.736 14.6525 19.8566 15.6141C19.8551 15.6157 19.8525 15.6149 19.8521 15.6128V15.6128Z" fill="#157EF8"/>
</svg>
