<svg width="24" height="24" viewBox="0 0 24 24" fill="none" xmlns="http://www.w3.org/2000/svg">
<path d="M7.5 21.5C5.95411 21.4935 4.59326 20.4795 4.145 19H3C2.44772 19 2 18.5523 2 18V18C2 17.4477 2.44772 17 3 17H4.145C4.6599 15.273 6.40204 14.2192 8.1707 14.565C9.93936 14.9108 11.1563 16.5431 10.9828 18.3369C10.8094 20.1307 9.30215 21.4995 7.5 21.5ZM7.5 16.5C6.67157 16.5 6 17.1716 6 18C6 18.8284 6.67157 19.5 7.5 19.5C8.32843 19.5 9 18.8284 9 18C9 17.1716 8.32843 16.5 7.5 16.5ZM22 18C22 18.5523 21.5523 19 21 19H13C12.4477 19 12 18.5523 12 18V18C12 17.4477 12.4477 17 13 17H21C21.5523 17 22 17.4477 22 18V18ZM16.5 15.5C14.6979 15.4995 13.1906 14.1307 13.0172 12.3369C12.8437 10.5431 14.0606 8.91084 15.8293 8.56503C17.598 8.21923 19.3401 9.27297 19.855 11H21C21.5523 11 22 11.4477 22 12V12C22 12.5523 21.5523 13 21 13H19.855C19.4067 14.4795 18.0459 15.4935 16.5 15.5ZM16.5 10.5C15.6716 10.5 15 11.1716 15 12C15 12.8284 15.6716 13.5 16.5 13.5C17.3284 13.5 18 12.8284 18 12C18 11.1716 17.3284 10.5 16.5 10.5ZM12 12C12 12.5523 11.5523 13 11 13H3C2.44772 13 2 12.5523 2 12V12C2 11.4477 2.44772 11 3 11H11C11.5523 11 12 11.4477 12 12V12ZM9.5 9.49999C7.69785 9.49953 6.19063 8.1307 6.01715 6.33692C5.84367 4.54314 7.06064 2.91084 8.8293 2.56503C10.598 2.21923 12.3401 3.27297 12.855 4.99999H21C21.5523 4.99999 22 5.44771 22 5.99999V5.99999C22 6.55228 21.5523 6.99999 21 6.99999H12.855C12.4065 8.47928 11.0458 9.4932 9.5 9.49999ZM9.5 4.49999C8.68198 4.5011 8.01568 5.15742 8.00223 5.97534C7.98878 6.79325 8.63315 7.47112 9.45069 7.49911C10.2682 7.52711 10.9575 6.89491 11 6.07799V6.36799V5.99999C11 5.17157 10.3284 4.49999 9.5 4.49999ZM5 5.99999C5 6.55228 4.55228 6.99999 4 6.99999H3C2.44772 6.99999 2 6.55228 2 5.99999V5.99999C2 5.44771 2.44772 4.99999 3 4.99999H4C4.55228 4.99999 5 5.44771 5 5.99999V5.99999Z" fill="#157EF8"/>
</svg>
