<svg width="39" height="45" viewBox="0 0 39 45" fill="none" xmlns="http://www.w3.org/2000/svg">
<path d="M35.1566 27.7341L35.1564 27.7294L35.1565 20.3261C35.1565 20.2703 35.1335 20.2184 35.0942 20.1824C34.3087 19.4645 33.4487 18.8369 32.5296 18.3107C32.4099 18.2422 32.2531 18.3263 32.2531 18.4798V23.7449C32.2531 24.1289 31.8974 24.414 31.5226 24.3305L30.2084 24.0378C29.934 23.9766 29.7389 23.7332 29.7389 23.4521V17.1159C29.7389 17.0327 29.688 16.96 29.6132 16.9322C29.0398 16.719 28.4568 16.5334 27.8662 16.3759C27.4674 16.2721 27.0748 16.1814 26.6881 16.0993C26.5677 16.0738 26.4523 16.166 26.4523 16.293V22.5068C26.4523 22.8908 26.0966 23.1759 25.7218 23.0924L24.4076 22.7996C24.1332 22.7385 23.9381 22.4951 23.9381 22.214V15.8488C23.9381 15.7475 23.863 15.6639 23.7651 15.6526C22.9205 15.5555 22.0723 15.4928 21.2228 15.4647C21.1135 15.4611 21.0214 15.5494 21.0214 15.6621V21.3782C21.0214 21.7613 20.6673 22.0462 20.2931 21.9643L18.4503 21.5608C18.175 21.5005 17.9787 21.2566 17.9787 20.9747V5.42601C17.9345 4.98739 17.7261 4.58363 17.3979 4.29837C17.0675 4.01121 16.6413 3.86634 16.2091 3.89325L16.1966 3.89403L16.1842 3.89325C15.752 3.86634 15.3258 4.01121 14.9954 4.29837C14.6671 4.58364 14.4588 4.9874 14.4146 5.42603V25.3175C14.4146 25.5432 14.288 25.7498 14.0869 25.8522L12.2441 26.7906C11.8449 26.9939 11.3718 26.7039 11.3718 26.2559V22.7645L7.46609 18.7866C7.46591 18.7864 7.46572 18.7862 7.46553 18.786C7.06766 18.3872 6.53254 18.1643 5.97584 18.1643C5.41894 18.1643 4.88365 18.3873 4.48573 18.7864L35.1566 27.7341ZM35.1566 27.7341C35.2397 31.258 34.0358 34.6872 31.7793 37.3577C31.4559 37.6319 31.2471 38.0201 31.1939 38.4439L31.1924 38.4563M35.1566 27.7341L31.1924 38.4563M31.1924 38.4563V38.4688M31.1924 38.4563V38.4688M31.1924 38.4688V40.9757C31.1924 41.0862 31.1028 41.1757 30.9924 41.1757H16.1209C16.0105 41.1757 15.9209 41.0862 15.9209 40.9757V39.3842M31.1924 38.4688L12.9125 35.1738M12.9125 35.1738L12.9123 35.1739C13.4957 36.3016 14.2943 37.299 15.2609 38.1077C15.4638 38.2493 15.6296 38.4386 15.7444 38.6592C15.8608 38.8827 15.9213 39.1317 15.9209 39.3842M12.9125 35.1738L12.9077 35.1655M12.9125 35.1738L12.9077 35.1655M15.9209 39.3842L15.7209 39.3839H15.9209V39.3842ZM12.9077 35.1655C12.0807 33.7393 11.55 32.1552 11.3484 30.5114C11.3307 30.1805 11.2088 29.8637 11 29.6081L10.999 29.6069M12.9077 35.1655L10.999 29.6069M10.999 29.6069L4.49784 21.7744L4.49209 21.7675M10.999 29.6069L4.49209 21.7675M4.49209 21.7675L4.48573 21.7611M4.49209 21.7675L4.48573 21.7611M4.48573 21.7611C4.29266 21.567 4.13917 21.3357 4.03434 21.0803M4.48573 21.7611L4.03434 21.0803M4.03434 21.0803C3.92951 20.8249 3.87548 20.5508 3.87548 20.2738M4.03434 21.0803L3.87548 20.2738M3.87548 20.2738C3.87548 19.9967 3.92951 19.7226 4.03434 19.4672M3.87548 20.2738L4.03434 19.4672M4.03434 19.4672C4.13915 19.2119 4.29259 18.9806 4.48559 18.7866L4.03434 19.4672ZM37.8046 18.6195L37.8047 18.6195L37.8005 18.6151C35.3098 16 32.119 14.1877 28.6246 13.4041C26.2004 12.7839 23.7177 12.4333 21.2201 12.3585C21.1087 12.3552 21.0214 12.2646 21.0214 12.1562V5.41625H21.0215L21.0213 5.40941C20.9782 4.14873 20.4466 2.95598 19.5417 2.09228C18.6381 1.22988 17.4358 0.765716 16.1966 0.801975C14.9575 0.765716 13.7551 1.22988 12.8516 2.09228C11.9467 2.95598 11.4151 4.14873 11.372 5.40941L11.3718 5.4094V5.41625V18.3893L9.59948 16.6068L9.599 16.6063C8.63057 15.6388 7.32736 15.0961 5.96923 15.0961C4.61137 15.0961 3.3084 15.6386 2.34003 16.6057C1.85458 17.0835 1.46837 17.6555 1.20407 18.2876C0.939894 18.9194 0.802831 19.5986 0.800888 20.2851C0.776158 21.6153 1.26876 22.9021 2.17224 23.8648L8.29087 31.2466C8.59525 33.1484 9.24054 34.9773 10.1948 36.6419C10.8862 37.9105 11.7695 39.0603 12.8121 40.049V42.5454C12.8077 42.9635 12.9606 43.3681 13.2405 43.676C13.5207 43.9842 13.907 44.172 14.3202 44.1996L14.3202 44.2H14.3335H32.7138V44.2004L32.7271 44.1996C33.1403 44.172 33.5266 43.9842 33.8068 43.676C34.0866 43.3682 34.2395 42.9637 34.2351 42.5457V38.9845C36.8324 35.8081 38.2376 31.795 38.1992 27.6611V19.5874H38.1995L38.199 19.5767C38.18 19.2214 38.041 18.8832 37.8046 18.6195Z" fill="#262626" stroke="#262626" stroke-width="0.4"/>
</svg>
