<svg width="43" height="43" viewBox="0 0 43 43" fill="none" xmlns="http://www.w3.org/2000/svg">
<g clip-path="url(#clip0)">
<path d="M28.6667 37.625V34.0417C28.6667 32.1409 27.9116 30.3181 26.5676 28.9741C25.2236 27.6301 23.4007 26.875 21.5 26.875H8.95835C7.05764 26.875 5.23477 27.6301 3.89076 28.9741C2.54674 30.3181 1.79169 32.1409 1.79169 34.0417V37.625" stroke="#262626" stroke-width="4" stroke-linecap="round" stroke-linejoin="round"/>
<path d="M15.2292 19.7083C19.1872 19.7083 22.3958 16.4997 22.3958 12.5417C22.3958 8.58363 19.1872 5.375 15.2292 5.375C11.2711 5.375 8.0625 8.58363 8.0625 12.5417C8.0625 16.4997 11.2711 19.7083 15.2292 19.7083Z" stroke="#262626" stroke-width="4" stroke-linecap="round" stroke-linejoin="round"/>
<path fill-rule="evenodd" clip-rule="evenodd" d="M35.8334 12.5416C36.8229 12.5416 37.625 13.3438 37.625 14.3333V16.5166C37.625 17.2898 38.2518 17.9166 39.025 17.9166H41.2084C42.1979 17.9166 43 18.7188 43 19.7083C43 20.6978 42.1979 21.5 41.2084 21.5H39.025C38.2518 21.5 37.625 22.1268 37.625 22.9V25.0833C37.625 26.0728 36.8229 26.875 35.8334 26.875C34.8438 26.875 34.0417 26.0728 34.0417 25.0833V22.9C34.0417 22.1268 33.4149 21.5 32.6417 21.5H30.4584C29.4688 21.5 28.6667 20.6978 28.6667 19.7083C28.6667 18.7188 29.4688 17.9166 30.4584 17.9166H32.6417C33.4149 17.9166 34.0417 17.2898 34.0417 16.5166V14.3333C34.0417 13.3438 34.8438 12.5416 35.8334 12.5416Z" fill="#262626"/>
</g>
<defs>
<clipPath id="clip0">
<rect width="43" height="43" fill="white"/>
</clipPath>
</defs>
</svg>
